<mxfile host="app.diagrams.net" modified="2024-08-04T12:08:23.079Z" agent="Mozilla/5.0 (Windows NT 10.0; Win64; x64) AppleWebKit/537.36 (KHTML, like Gecko) Chrome/127.0.0.0 Safari/537.36" etag="oJ4wNRwhevK3aQ5zJSI7" version="24.4.6" type="google">
  <diagram name="Page-1" id="ryLlunEIv8m5jj5G1aqK">
    <mxGraphModel dx="1064" dy="1169" grid="1" gridSize="10" guides="1" tooltips="1" connect="1" arrows="1" fold="1" page="1" pageScale="1" pageWidth="827" pageHeight="1169" math="0" shadow="0">
      <root>
        <mxCell id="0" />
        <mxCell id="1" parent="0" />
        <mxCell id="R2kOFksjPvD2Qqe6QgFd-1" value="User" style="shape=umlActor;verticalLabelPosition=bottom;verticalAlign=top;html=1;outlineConnect=0;" vertex="1" parent="1">
          <mxGeometry x="40" y="320" width="30" height="60" as="geometry" />
        </mxCell>
        <mxCell id="R2kOFksjPvD2Qqe6QgFd-18" style="edgeStyle=orthogonalEdgeStyle;rounded=0;orthogonalLoop=1;jettySize=auto;html=1;exitX=1;exitY=0.25;exitDx=0;exitDy=0;entryX=0.5;entryY=0;entryDx=0;entryDy=0;" edge="1" parent="1" source="R2kOFksjPvD2Qqe6QgFd-6" target="R2kOFksjPvD2Qqe6QgFd-14">
          <mxGeometry relative="1" as="geometry" />
        </mxCell>
        <mxCell id="R2kOFksjPvD2Qqe6QgFd-35" style="edgeStyle=orthogonalEdgeStyle;rounded=0;orthogonalLoop=1;jettySize=auto;html=1;startArrow=classic;startFill=1;endArrow=none;endFill=0;" edge="1" parent="1" source="R2kOFksjPvD2Qqe6QgFd-6">
          <mxGeometry relative="1" as="geometry">
            <mxPoint x="90" y="345" as="targetPoint" />
          </mxGeometry>
        </mxCell>
        <mxCell id="R2kOFksjPvD2Qqe6QgFd-6" value="" style="whiteSpace=wrap;html=1;aspect=fixed;" vertex="1" parent="1">
          <mxGeometry x="230" y="220" width="250" height="250" as="geometry" />
        </mxCell>
        <mxCell id="R2kOFksjPvD2Qqe6QgFd-7" value="client" style="text;html=1;align=center;verticalAlign=middle;resizable=0;points=[];autosize=1;strokeColor=none;fillColor=none;" vertex="1" parent="1">
          <mxGeometry x="230" y="220" width="50" height="30" as="geometry" />
        </mxCell>
        <mxCell id="R2kOFksjPvD2Qqe6QgFd-8" value="&lt;b&gt;Front-end development&lt;/b&gt;" style="text;html=1;align=center;verticalAlign=middle;resizable=0;points=[];autosize=1;strokeColor=none;fillColor=none;" vertex="1" parent="1">
          <mxGeometry x="225" y="190" width="160" height="30" as="geometry" />
        </mxCell>
        <mxCell id="R2kOFksjPvD2Qqe6QgFd-9" value="" style="whiteSpace=wrap;html=1;aspect=fixed;" vertex="1" parent="1">
          <mxGeometry x="255" y="250" width="200" height="200" as="geometry" />
        </mxCell>
        <mxCell id="R2kOFksjPvD2Qqe6QgFd-10" value="Browser" style="text;html=1;align=center;verticalAlign=middle;resizable=0;points=[];autosize=1;strokeColor=none;fillColor=none;" vertex="1" parent="1">
          <mxGeometry x="250" y="248" width="70" height="30" as="geometry" />
        </mxCell>
        <mxCell id="R2kOFksjPvD2Qqe6QgFd-11" value="" style="rounded=0;whiteSpace=wrap;html=1;" vertex="1" parent="1">
          <mxGeometry x="280" y="300" width="150" height="120" as="geometry" />
        </mxCell>
        <mxCell id="R2kOFksjPvD2Qqe6QgFd-12" value="Web Application" style="text;html=1;align=center;verticalAlign=middle;resizable=0;points=[];autosize=1;strokeColor=none;fillColor=none;" vertex="1" parent="1">
          <mxGeometry x="280" y="308" width="110" height="30" as="geometry" />
        </mxCell>
        <mxCell id="R2kOFksjPvD2Qqe6QgFd-13" value="hosted on" style="text;html=1;align=center;verticalAlign=middle;resizable=0;points=[];autosize=1;strokeColor=none;fillColor=none;" vertex="1" parent="1">
          <mxGeometry x="385" y="190" width="80" height="30" as="geometry" />
        </mxCell>
        <mxCell id="R2kOFksjPvD2Qqe6QgFd-14" value="" style="whiteSpace=wrap;html=1;aspect=fixed;" vertex="1" parent="1">
          <mxGeometry x="660" y="400" width="270" height="270" as="geometry" />
        </mxCell>
        <mxCell id="R2kOFksjPvD2Qqe6QgFd-20" style="edgeStyle=orthogonalEdgeStyle;rounded=0;orthogonalLoop=1;jettySize=auto;html=1;entryX=1;entryY=0.75;entryDx=0;entryDy=0;" edge="1" parent="1" source="R2kOFksjPvD2Qqe6QgFd-15" target="R2kOFksjPvD2Qqe6QgFd-11">
          <mxGeometry relative="1" as="geometry">
            <Array as="points">
              <mxPoint x="550" y="510" />
              <mxPoint x="550" y="390" />
            </Array>
          </mxGeometry>
        </mxCell>
        <mxCell id="R2kOFksjPvD2Qqe6QgFd-15" value="" style="rounded=0;whiteSpace=wrap;html=1;" vertex="1" parent="1">
          <mxGeometry x="685" y="450" width="215" height="190" as="geometry" />
        </mxCell>
        <mxCell id="R2kOFksjPvD2Qqe6QgFd-16" value="Framework" style="text;html=1;align=center;verticalAlign=middle;resizable=0;points=[];autosize=1;strokeColor=none;fillColor=none;" vertex="1" parent="1">
          <mxGeometry x="685" y="450" width="80" height="30" as="geometry" />
        </mxCell>
        <mxCell id="R2kOFksjPvD2Qqe6QgFd-17" value="Server" style="text;html=1;align=center;verticalAlign=middle;resizable=0;points=[];autosize=1;strokeColor=none;fillColor=none;" vertex="1" parent="1">
          <mxGeometry x="660" y="400" width="60" height="30" as="geometry" />
        </mxCell>
        <mxCell id="R2kOFksjPvD2Qqe6QgFd-21" value="&lt;b&gt;Back-end development&lt;/b&gt;" style="text;html=1;align=center;verticalAlign=middle;resizable=0;points=[];autosize=1;strokeColor=none;fillColor=none;" vertex="1" parent="1">
          <mxGeometry x="800" y="370" width="150" height="30" as="geometry" />
        </mxCell>
        <mxCell id="R2kOFksjPvD2Qqe6QgFd-22" value="hsoted on" style="text;html=1;align=center;verticalAlign=middle;resizable=0;points=[];autosize=1;strokeColor=none;fillColor=none;" vertex="1" parent="1">
          <mxGeometry x="640" y="370" width="80" height="30" as="geometry" />
        </mxCell>
        <mxCell id="R2kOFksjPvD2Qqe6QgFd-23" value="" style="shape=cylinder3;whiteSpace=wrap;html=1;boundedLbl=1;backgroundOutline=1;size=15;" vertex="1" parent="1">
          <mxGeometry x="420" y="630" width="140" height="220" as="geometry" />
        </mxCell>
        <mxCell id="R2kOFksjPvD2Qqe6QgFd-26" style="edgeStyle=orthogonalEdgeStyle;rounded=0;orthogonalLoop=1;jettySize=auto;html=1;entryX=1.005;entryY=0.586;entryDx=0;entryDy=0;entryPerimeter=0;startArrow=classicThin;startFill=1;" edge="1" parent="1" source="R2kOFksjPvD2Qqe6QgFd-15" target="R2kOFksjPvD2Qqe6QgFd-23">
          <mxGeometry relative="1" as="geometry">
            <mxPoint x="780" y="620" as="sourcePoint" />
            <Array as="points">
              <mxPoint x="780" y="760" />
              <mxPoint x="640" y="760" />
            </Array>
          </mxGeometry>
        </mxCell>
        <mxCell id="R2kOFksjPvD2Qqe6QgFd-27" value="JSON" style="text;html=1;align=center;verticalAlign=middle;resizable=0;points=[];autosize=1;strokeColor=none;fillColor=none;" vertex="1" parent="1">
          <mxGeometry x="490" y="470" width="60" height="30" as="geometry" />
        </mxCell>
        <mxCell id="R2kOFksjPvD2Qqe6QgFd-28" value="HTTP Requests" style="text;html=1;align=center;verticalAlign=middle;resizable=0;points=[];autosize=1;strokeColor=none;fillColor=none;" vertex="1" parent="1">
          <mxGeometry x="510" y="330" width="110" height="30" as="geometry" />
        </mxCell>
        <mxCell id="R2kOFksjPvD2Qqe6QgFd-33" style="edgeStyle=orthogonalEdgeStyle;rounded=0;orthogonalLoop=1;jettySize=auto;html=1;exitX=0.5;exitY=1;exitDx=0;exitDy=0;startArrow=classic;startFill=1;endArrow=none;endFill=0;" edge="1" parent="1">
          <mxGeometry relative="1" as="geometry">
            <mxPoint x="680" y="282" as="targetPoint" />
            <mxPoint x="680" y="172" as="sourcePoint" />
          </mxGeometry>
        </mxCell>
        <mxCell id="R2kOFksjPvD2Qqe6QgFd-29" value="" style="rounded=0;whiteSpace=wrap;html=1;" vertex="1" parent="1">
          <mxGeometry x="610" y="70" width="140" height="100" as="geometry" />
        </mxCell>
        <mxCell id="R2kOFksjPvD2Qqe6QgFd-30" value="Version Control" style="text;html=1;align=center;verticalAlign=middle;resizable=0;points=[];autosize=1;strokeColor=none;fillColor=none;" vertex="1" parent="1">
          <mxGeometry x="610" y="40" width="110" height="30" as="geometry" />
        </mxCell>
        <mxCell id="R2kOFksjPvD2Qqe6QgFd-34" value="&lt;font style=&quot;font-size: 24px;&quot;&gt;&lt;u&gt;System Architecture&lt;/u&gt;&lt;/font&gt;&lt;div&gt;&lt;font style=&quot;font-size: 24px;&quot;&gt;&lt;u&gt;Design Model&lt;/u&gt;&lt;/font&gt;&lt;/div&gt;" style="text;html=1;align=center;verticalAlign=middle;resizable=0;points=[];autosize=1;strokeColor=none;fillColor=none;" vertex="1" parent="1">
          <mxGeometry x="120" y="8" width="240" height="70" as="geometry" />
        </mxCell>
        <mxCell id="R2kOFksjPvD2Qqe6QgFd-37" value="uses" style="text;html=1;align=center;verticalAlign=middle;resizable=0;points=[];autosize=1;strokeColor=none;fillColor=none;" vertex="1" parent="1">
          <mxGeometry x="130" y="308" width="50" height="30" as="geometry" />
        </mxCell>
        <mxCell id="R2kOFksjPvD2Qqe6QgFd-19" style="edgeStyle=orthogonalEdgeStyle;rounded=0;orthogonalLoop=1;jettySize=auto;html=1;exitX=1;exitY=0.5;exitDx=0;exitDy=0;entryX=0;entryY=0.25;entryDx=0;entryDy=0;" edge="1" parent="1" source="R2kOFksjPvD2Qqe6QgFd-11" target="R2kOFksjPvD2Qqe6QgFd-15">
          <mxGeometry relative="1" as="geometry">
            <Array as="points">
              <mxPoint x="610" y="360" />
              <mxPoint x="610" y="497" />
            </Array>
          </mxGeometry>
        </mxCell>
        <mxCell id="R2kOFksjPvD2Qqe6QgFd-39" value="Data transfer(CRUD)" style="text;html=1;align=center;verticalAlign=middle;resizable=0;points=[];autosize=1;strokeColor=none;fillColor=none;" vertex="1" parent="1">
          <mxGeometry x="620" y="758" width="140" height="30" as="geometry" />
        </mxCell>
        <mxCell id="R2kOFksjPvD2Qqe6QgFd-42" value="" style="shape=image;verticalLabelPosition=bottom;labelBackgroundColor=default;verticalAlign=top;aspect=fixed;imageAspect=0;image=data:image/jpeg,/9j/4AAQSkZJRgABAQEAYABgAAD/2wBDAAoHBwkHBgoJCAkLCwoMDxkQDw4ODx4WFxIZJCAmJSMgIyIoLTkwKCo2KyIjMkQyNjs9QEBAJjBGS0U+Sjk/QD3/2wBDAQsLCw8NDx0QEB09KSMpPT09PT09PT09PT09PT09PT09PT09PT09PT09PT09PT09PT09PT09PT09PT09PT09PT3/wAARCAC0AS0DASIAAhEBAxEB/8QAHwAAAQUBAQEBAQEAAAAAAAAAAAECAwQFBgcICQoL/8QAtRAAAgEDAwIEAwUFBAQAAAF9AQIDAAQRBRIhMUEGE1FhByJxFDKBkaEII0KxwRVS0fAkM2JyggkKFhcYGRolJicoKSo0NTY3ODk6Q0RFRkdISUpTVFVWV1hZWmNkZWZnaGlqc3R1dnd4eXqDhIWGh4iJipKTlJWWl5iZmqKjpKWmp6ipqrKztLW2t7i5usLDxMXGx8jJytLT1NXW19jZ2uHi4+Tl5ufo6erx8vP09fb3+Pn6/8QAHwEAAwEBAQEBAQEBAQAAAAAAAAECAwQFBgcICQoL/8QAtREAAgECBAQDBAcFBAQAAQJ3AAECAxEEBSExBhJBUQdhcRMiMoEIFEKRobHBCSMzUvAVYnLRChYkNOEl8RcYGRomJygpKjU2Nzg5OkNERUZHSElKU1RVVldYWVpjZGVmZ2hpanN0dXZ3eHl6goOEhYaHiImKkpOUlZaXmJmaoqOkpaanqKmqsrO0tba3uLm6wsPExcbHyMnK0tPU1dbX2Nna4uPk5ebn6Onq8vP09fb3+Pn6/9oADAMBAAIRAxEAPwD2SilpKAEZgqlmIAAySegrj9a+KGgaSzRwzPfzrwVtgCoPu54/LNYfxnv7iG00yyjlZILgyPKinAfbt2g+o+Y8fT0ryWrjG5Ldj0PUfjJq05ZdPsrS0Q9DITKw/kP0rBn+Inim5PzavKg9I40T+S1zBdQwUsNx6L3P4VoQaJq10oa20jUZVPdbV8fyqrJCuy+PG/iQHP8Abd7/AN9j/Crlt8SvFFsR/wATPzVH8M0KNn8cA/rWNL4f1mBS02jakgHc2r/0FZ+cMVOQ69VIwR9QaLIV2eo6P8Zn8xU1rTlKH/ltaHkfVG/ofwr0nStYsdbslu9NuUuIGONy9QfQjqD7GvmWtbw34jvPC+qpe2ZLLwJoM4WZPQ+/oex9s0nHsUmfSNVdTvBp2mXV6yNIttC8pRerBQTj9KXTdRt9W063vrN99vcIJEb2Pr71NNEk8LxSqGjdSrA9weDWZR5T/wALruO2iQ/+BR/+Jqa1+NQNygvtIEduSA8kU+5kHc4KjOPTNea6nYPpWqXdhJ9+2laIn1wcA/iMGqvXg9O9a8qIuz6lSRZEV0YMrAEEdCKdXMfDnUjqfgbTXdt0kKG3f6odv8gK6esiwoopk8yW9vJNKcRxqXY+gAyaAOB8T/FWHQ9Ym06z0/7W9udssrTbFDd1AAOcevHOax/+F1XP/QEh/wDAo/8AxNeb3d099eT3cpzJcSNK2fViT/Woa1UURc+gfBnjW38X21wUt2trm2YCSEvuGD0YHAyOD27V01eGfCbUPsfjZbc8Je27xf8AAl+df0DfnXudZyVmUgoopaQzO13Wrbw/o1xqN3uMUI+6v3nYnAUe5Jrzd/jXPuOzRIwvbN0c/wDoNXfjPqOzTdO05TzNK07j2UYH6t+leR1cYpktnrmh/FyTVdcstPm0hY1u5hD5kc5YqT0OCoyK9L7V4V8KtK/tLxrHcOuYtPiac5HG9vlT+bH8K917UpKz0GgrkvE/xG0jw5I9spa9vl4MEJGEPo7dB9OT7VifEvx1NpjHRdJlMd2yg3M6HBiB6Kp7MRznsMY5PHkFOMb7ibO21L4s+Ibxz9ka3sY+wijDtj3Zs/oBWJL408RTHL63e/RZNo/SsMsFIB6ngAck/Qd61bbwxr12ge30PUXU9GMBUH/vrFVZInUsQ+NvEcBBTW7zjszhh+RBrasfiz4jtWH2h7W8X0lh2n81x/KsJ/B3iRFy2g6hj2jB/kay7u0ubBtt9a3Fs3pPE0f8xRZMep7Hofxc0rUJFh1SF9OkY4EjNviz7tgFfxGPeu+R1dQysCpGQQeCK+We3sa96+F0zzfD/TjIxYp5kaknOFWRgB+AwKmUbDTOtpaSlqChKKWigDifiL4Mv/Fg046dNbRvbFw4nLAYbbyMA9NvT3rM0X4N6dAFk1q8mvpOvlRZiiHtx8x/MV6RS07sVjO0zQNK0ZAum6fa2uB1iiAY/U9TWh+NLRSGJWVrnhrSvENsYtTs45TjCyYxInurdRWrSmgD5w8VeG5/C2uSWEzmSPHmQy4x5iHoT7jkH3FY1eu/GixVtL02+AG6KdoSfUMuf5p+teRVrF3RDPXPgzqxm02/0qRs/ZZBNECeivnI/wC+gT/wKvS68S+D8/leNJou01k/5qyEfzNe21EtylseJfFzSvsXixLxVxHfQhiccb1+Vv021wte2/FvSvtvhNbxV/eWMwcn/Yb5W/mp/CvE6uL0Je56p8FdRzDqumM33HS5jHsw2t+qj869SrwP4Z6j/Z3juzUtiO8R7ZvqRuX9VH5174KiW5UdgrmfiJqP9neB9SdW2vMgt19y5Cn9Ca6avMvjRqGyw0zT1bmWVp2Hso2j9WP5UlqwZ5LSkEAEggHke/8AnFIzhFLN0UZNdh4w8PHSPC3hWcj52tDHN7MT5n83f8q1uRY5zRL/APsrX9Ov8kC3uUdsf3c4b9Ca+mgQenSvld13oynowxX0f4O1I6v4R0u8Y5eS3UOf9tRtb9QaiZUTZoopk0qwRPLI21EBZiewHJqCjwz4p6j9v8bTxqwKWcaQDHrjc36tj8K46rOoXr6lqV1eyffuZnlP/AiT/Wq2ySUrHCMyyMEjHqxOB+pFbLRGb1Z7P8HNK+y+GJ9RdcPqE5Kn/pmnyr+u4/jXdXt0ljYz3Un+rgjaVvooyf5VBo2mx6Po1np8I+S1hWIH1wME/iar+KVZ/CWsKn3jZTAf98GsnqzQ+c7u7m1C8mu7lt01w5lc+5OTUOGOAi7nYhVUfxMeAPzoByAR0qa0nW1vrW5cZSCeOVh6hWDH9BWpme8+DvA9h4WsY28qObUmUGe6Zctu7qp/hUdMD8a6imQzRzwpNC4eKRQ6MDwwPIIp9YmgUyWKOaNo5UV0bgqwyD+BqSigDi9b+FmgasTJbRPps5532uApPuh+X8sV0Hh3Q4PDeh2+mWrvJHCD87/eZiSxJ/EmtSincBKWiikAlFFFABRUc88VtA808qRRRgs7u21VA7knoK8u8S/F5hI9t4dhUoOPtc65z7on9W/KmlcTdj1WoZLy3hOJLiFD6M4FfOGo+ItX1di2oaldTgnO0yEKP+AjA/Sszap6qPyquQXMfUcd1BMcRTRufRXBqX8K+VwoByAAfYVftNa1TTz/AKHqV5B7RzsB+WcUcgcx698YefBsP/X7H/6C1eJ1tan4v1rWdMWw1K9NzAsgkG9F3AjOPmAB7msWqirCbOy+E/8AyP0P/XpN/wCy17rXhPwn/wCR/h/69Jv/AGWvdqiW447FXVLCPVNKurGX7lzE0RJHTIxmvmWaGS3mkhmUrLExRwezA4P6ivqQ14J8S9K/szxtdsq4iuwLlPq3Df8AjwP504MJI5i2u30+7gvIs77aVZl+qkH+lfT0EyXNvHNEd0cih1PqCMivlzrXvvw11L+0vAunFm3SW6m2f6ocD9MU5oInVV4X8VtQ+2eNpYQcrZwpCMepG8/+hD8q90JABJIAHUmvmTV786prN7fH/l5neUfQnj9MVMNwkN0ywOq6vY6eoz9quI4j/ulvm/TNe2fFLTheeBp3RebORJ1AHYHaf/HWNedfCrT/ALd46hmYZSygec8fxH5F/wDQj+Ve26nZLqWl3dlJjZcQvEc/7QI/rTk9QWx8xV7J8GtQ8/wzdWLHLWdy2B6K43D9d1eNsjxsUkBDoSrA9iODXe/B7UPs3iq6s2bC3ltkD1ZDn+TNVSWglue01zPxE1L+zPBGourbZJkFunuXO0/oSfwrpu1eX/GjUsQ6Zpit95muHH0G1f5t+VZrVlPY8orqPhvpX9reOLEMuYrMNdv/AMB4X/x4g/hXL1658F9K8vTNQ1Zx81zKII8j+CPr+bE/lWknZEpHpdNkRZY2SRdyMCrA9wadRWRZ80+INGl8P67d6bMD+4f5GP8AEh5VvxH65rOr3rx54ITxXYpLbssWpW4Iikb7rr3Rvb0PY/jXh1/p93pV69nqFvJb3EfWOQYOPUdiPccVrF3IasdJ4S+Ieo+GI1tJEF5p4PELtho/9xvT2PH0r1HR/iN4d1gKovhaTH/lld/uz+f3T+BrwGj2ocUwUj6mVw6hlIZSMgg5Bpa+Z9M13U9FcNpl/cW3OSqP8h+qng/lXa6R8YtTtiqataQ3kY6yRfupPrj7p/SocWPmPY6KxPD3jDSPE0Z/s+5/fKMvbyDbIo+nce4yK281JQUUUtACUUVl+JtSOj+GtRvlOHggZkP+1jC/qRQB5P8AEzxjJrGqSaTZyEafaPtfaf8AXSDqT7A8AeoJ9K4SjnHJyfWkO48Rjc7EKq+pPAH51slYzZpaJoGpeI71rXSrUzMmDI7HbHED03N2+nJ9q76x+CkrIDqOtBX7pawcD/gTHn8hXoXhjw/b+GdBt9OtwMou6VwOZJD95j9T+mBWtWbk+hSiean4K6dt41e/B/3Y/wDCqlx8E+CbXXWz2E1sD+oYV6rRS5mOyPAPEvw+1XwvY/bLuazmtt4TdCzBsnp8pH9a5f8ACvbfi/IE8GIpPL3cYH5Mf6V4lWkXdEvc7H4T/wDI/wAP/XpN/wCy17tXhXwo/wCR+h/69Zv/AGWvdaiW5Udgrzb4y6X52lWOpovzW8phfA/hfp+RA/OvSayfFOlf234Z1CwAy80J2D/bHK/qBSTswZ83V6n8FdR41XTGboyXKD6ja38l/OvLO3p7V1Pw21H+zvHdhlsR3Qe2b/gQyv8A48o/OtJK6JW57F401D+y/B2qXIOGEDRof9p/lH6tXzpgDgdBXsnxj1DyPD1nZKcNdXG4+6oMn9SteNlgoJJ4HJpQWgS3PWfgrp+2w1TUmUZmmWBD7IMn9X/SvTq5n4dacdM8C6XGy7ZJYvtD/WQlv5ED8K6aoe5SPnjx3p/9meNtUhAwrzecv0cbv5kj8Kq+FNR/srxbpV4W2olyquf9l/kP/oVdl8ZtP8rWNOv1HE8LQtj1Q5H6N+lebOCUIU4bHB9D2rRaol7n1R2rwP4mal/aPji8CtujtQtsvttGW/8AHmavZ9K1qK78K2usSsBG1oLiQ+ny5b+Rr5yurmS9u5rqY5lnkaVz7sST/OpgtRyIXYqhKrlgOB6nsK+kvC2kDQfDGn6dj54IVEnu55Y/99E14X4I0r+2fGmmWrDdEkn2iXjjbH836naPxr6KomwiFFFFQUFUNW0PTddtfs+qWcVzGOV3jlT6qeoP0q/RQB5jq3wYtnLPo2pSQE9IrlfMX/voYYfjmuL1X4eeJNI3NJpzXUQ/5aWjeaP++eG/SvoKiqUmLlR8sEbZGjYFZF6owww+oPIor6V1fw7pWvReXqljDcDHDMvzr9GHI/A14946+Hz+F1W+sZXn0522t5nLwMegJ7qfX86pSuTY4+Cea1uI57eV4pom3JIjYZT6g17r8PvGX/CVaW8d1tXUrXAnCjAkB6OB2zjkdiPpXg1dH8PtTfS/G+muGIS4c2sg7EP0/wDHgtOSuCZ9CUtIKWsiwrlviUD/AMK/1THXbH+XmLXUVm+IdNOseHtQsF+9cQOiZ/vY+X9cUID5qqaykWLUrOR/uJcxM30DqTURBHDAqw4IPY9xSFQwKnoRg1sZn1PS1w3gDx3a61p0FhqE6xapCoQiRsfaAOAy+p9R/Su4/A1i1Y0Ciorm7t7OEy3U8UEQ6vK4VR+Jrz/xX8V7Ozhe28PkXV0Rj7QR+6j9x/eP6fXpTSuFzJ+Metxz3lno8Lbjb5nnx2YjCj64yfxFeZ0+eeS4nea4laSWVizu5yWY8kk9zTK1SsZt3Ot+F8vl/EGxGcCSGZPr8uf/AGWveq+ZtF1Q6JrljqSgn7LMJGA7r0Yf98k19LQzRzwpLCweORQyMOjAjINRPcqI+iiioKPnXxrpf9j+MNStVXEZlMsYHTa/zDH0yR+FY0Fy9jcQ3cXElvIsy/VSG/pXpnxn0rbPp2qopwwa2kOO4+Zf/Z68vrVO6Ie52/xV1hNV8RWiQNuhhtEcfWT5/wD0HbXG2tm+o3lvZRj57qVIB/wJgP602WaSd98rs7BVXJPZQAB+AAH4V0/wz0/+0PHtiSuUtEe5b8BtX9WH5UbINz3qKJIIkijUKiKFUDsBwKfRRWRZxHxa0/7Z4Ma4UDdZzpLnvtPyn/0IH8K8Qr6X13Txq2h31iQD9ogeMZ7Eg4P54r5n5wN3B7j0NaQZEj0PTvEPk/BO8td2JkuGsVx/dc7/AP0At+VeeVMLqVbJrQORA0omK+rhSoP5E1AzBFZj0UZNUlYVz1L4LaVl9T1d17raRH6fM/6lfyr1aue8BaQdE8GabbSLiZovOm9d7/Mfyzj8K6GsnuWhaSisTxhrU3h7wvealbIjzRBQiyZ25ZguTj0zSGbdFeU6N8ZXVgmuaeGX/ntacEfVGP8AI/hXc6Z418P6sALXVbbef+WcreW/5Ng02mhJm7RSKwZQykEHoQc0v4GkMK57x8Ij4F1fzsbfIOM/3sjb+uK17/VLLS4DNqF3BbRgZ3SyBc/TPWvH/iF4/j8QoNM0reNPV90krDaZyOmB1CjrzyTjpjlpXEzgz1rS8MoZPFmjIv3jfQ4x7OCf0BrMrtvhRoj6l4sF+yH7NpqFyx6GVgQo/AFj+XrWr2IR7jS0lLWJoFJRRQB418T/AAZLp19NrthEWsbg77lVGfIc9W/3T1z2OfWvPa+pnRXUqwBVhggjIIrz7xB8ItN1CR59HnOnSscmLbvhJ9l6r+Bx7VcZdyWjxojPWrkWsalBH5cOo3saf3UuHA/LNdTdfCXxNAxEK2NyvZknK5/BhUMfwr8VyNhrS0jHq90P6A1V0KzOTlmluH3zyPK/96Rix/M0tvBNeXUdtawyT3EpxHFGu5mP0/r0r0fTPgtdO4bWNVjjTvHZoSx/4G3T/vmvRPD/AIT0nwzAU0u0WN3GJJm+aST/AHmPP4dKTkugKJyvg74X2+m6dPLrqJcX93C0TKpytsjDkKe7ere2Bx18o1rSbjQtXudOux+8gbG7s6/wsPYjn/8AVX0ziuZ8YeB7LxdBEZZWtryEYjuUUE7f7rDuO/t275lS1G0fPxIGPc4A9T6e9fQHw5tdSsvBNjBqsbRTLu8uN/vpHk7A3oQO3YYqHwp8OtK8MOLlt17qA6XMyj5P9xei/Xr711tEpXGlYKWkoqRnN/EHSf7X8F38SrulhT7RH9U5/UZH418+Zz0r6mIDAg9K87vvgzpVxdyS2moXlrE5LCFQjKnsCRnFXGViWrnjtepfBTTsnV9SYdWS2Q/Qbm/9CWrI+CdjnnWb7HtHH/hXdeH9As/DWkRadp6uIYyWLOcs7E5LMe5NEpXQJGnRSUVBQV85eMNO/srxfqlqF2os7Og9Ff5h+jV9G1yXiz4d6f4qvEvHuJ7S6VAjPEFIdR0yCOo9aqLsxNXPBa0/Delf254m03TiMpNOpkH/AEzX5m/QY/GvRv8AhSdr/wBBu8/78x10XhL4ead4UupLyOee7u3TyxJNtARSckKAOM4GTz0qnJE8p1gooorMsK5zx/p1zqvgrUbazjaWfarrGoyX2sGIHvgGujoxQB8sDvjscH2NBGeCMj3r6F17wHoPiJ2mvLMJct1uID5ch+pHDfiDXEaj8Fp1JOl6wrL2S7i5/wC+l/wrRSRFmeaw3E9tzBNLEf8Apm5X+Rqw2r6kw2tqN6R6G4f/ABro7n4V+KYGIS0tbgDvFcj/ANmAqt/wrjxZnH9jP9ftEX/xVO6FZnNMzO+92LOf4mOT+dJXY2vwo8UXLASwWdoD3muNxH4KDXVaP8GLOJlk1rUJbsjkwwDyoz7E8sfzFHMh2Z5voHh/UPE2oiz0yLcQf3szD93CPVj6+ijk17/4b8PWnhjR4tOsgSqfM8jfelc9WPuf04FW9P0yz0mzS10+2itrdPuxxqAPr9ferVZt3KSsLRSUtIYUlFFABRRRQAUUUUAFLSUtACUUUUAFFFFABRRRQAUUUUAFFFFAC0lLSUAFFFFABRRRQAUUUUAFFFFABRRRQAUUUUAFFFFABRRRigApaSloApS6pZwXX2eW4VJfQ9vqelWgQcYPBrA13RGnd7u2BZz9+P19xWPYaxdaedsbb4weY36D/CvIqZjLD1nCvG0ejR3wwca1NSpPXqjuaKy7DXrW9wrN5Mp/gc9foa0816VKtCrHmg7o45wlB2krC0UUVqQFLSUUAFFFFABRRRQAUUUUAFFFFABRRRQAtJRRQAUUUUAFFFFABRRRQAUUUUAFFFFACMcDOeBWRe+I7S2JWHM7j+6cKPx/wp2vWd9fRxRWjKI+fMBbbn0+orJTwreH780CfTJ/pXl4zEYpS9nQh8/8jtw9Kg1zVZfIiuPEl9MSI2SFfRF5/M1Qlvbqb/WXMzfVzW2vhJv47wfhH/8AXp48JJ3vJP8AvgV5M8HmNXWd/vO+OIwcPht9xzeSf4ifrSq7ocq7KfYkV0L+Ej/yzu+f9qP/AOvWTf6Vc6cVMwUoxwrqeK462CxNFc046HRTxNGo+WLEh1e+t8FLqQgdmO4frXT6Tq326zMkoCSKxVgOh9/1rja3fD8DSWcrf9NSP/HRXTlmKrKryczasYY2jT5Oa1mdTisbVtBjvd00GI7jv6P9f8a2qbX1FahCvDkmro8WnUlTlzRZ57NDJbytFMhRx1VhVyy1m8scKknmR/3JOR+HcV1d/psGoRbJl+YfdccMtcnqOk3GnMS43xdpFHH4+lfMYjBV8FL2lJu3f/M9qjiaWJXJUWv9bHQWfiS0uMLPmB/9rlfz/wAa11dXUMpDKehByDXnXHpU9teXFm2beZ4/UA8H8Olb4fO5R0rK/mjOrlkXrTdjv80ZrmLXxVIuBdwBx/fj4P5Gtm11myuyBHOqt/df5T+tezQx+HrfDLX7jzqmFq0/iReooz3ozXYc4UUUUAFFFFABRRRQAUUUUALSUtJQAUUUUAFFFFABRRRQAUUUZoAKKKM0ABpKrXWpWln/AK6dFb+6DlvyFY914qUcWkBY/wB6TgfkK5a+NoUfjkbU8NVq/DE6EnH0FU31iwSbymuo9/Tg5H59K5C71K7veLiZiv8AcHC/lUENvLdSiGBC8jdh2+voK8mpnTlJRowv6/8AAO+GWpK9SR6EDkZFZHifH9kjPXzVx+taNpEbezhhZtzRoFLeuBWH4rn+W3gB7lz/ACH9a9HHz5cJJy6r8zjwseavFLuc5/DXY+G4fK0aMkcyMz/meP0FcekbTOsUYy7sFX6mvQIYVggSJPuooUfhXkZJS5qkqj2Wn3noZnO0FBdSWilpK+mPGCmlQwIYZB6g06ilYDn9S8MpJmSxIjbvGfun6elc7Pby20hjnjaN/Rv8816FUNzaw3cRjnjV1PY15GLyinV96n7r/A9ChmE6ek9V+J5/QRmt++8LuuXsZNw/55uefwP+NYc0MlvJsnjaN/Rhivna+DrYd/vF8+h69LEU6q91kttqF3aH9xcOg/u5yPyNakHim5TAuIo5R6j5TWH1oopYyvR+CTFPDUqnxROtg8T2UmBIJIj/ALQyPzFaEOoWlxjybiJiewYZ/KuCoxXo088rR+OKf4HJPLKb+FtHoo60tefRXdxB/qp5U/3XIq5Fr+oxgD7QHA/vqDXbTzyi/ii1+JzSyyovhaZ2tFconiu7X/WQwN9MirCeLR/y0tD9Vk/+tXVHNsLL7VvkzF4Cuun4nR0VhL4rtT96GYfTB/rUg8UWJ6iYfVP/AK9bLMMM/tozeFrL7LNmisn/AISXT/78g/7Zmj/hJdP/AOekn/fs1X13D/8APxfeL6tW/lf3GtRWO3iewHQzH6R0xvFNmPuxzn8AP60nj8MvtoFhaz+yzbornn8WRgfJauf95wKgfxZcHPl20Q+rE/4VjLNcLH7V/kzRYGu/snUUVxsniTUX+7Iif7qD+tU5dQvJ8+bdSsD23kCuaeeUF8KbN45ZVfxNI7iW5gg5mmjj/wB5gKz5/EenxfdkaU/9M1/qcVx/U570VxVM9qv4IpfidEMrgvilc6CfxXI2RbW6r6GRsn8hWXc6tfXWRJcPtP8ACvyj9Kp0hOOpGK86rj8RW+Kb/I64YWjT2iFBIAyenvV+y0W9vsMkflRn+OQY/IdTXSafoFrYlXYedMP437fQdBWuGyyviNbWXdkVsbSpaXuzB07Qbi9w8uYID3I+ZvoP6mups7CCwh8u3TaOpPcn1JqzRX02FwFLDL3Vd9zxq+KqV/i27CVxOt3Qu9VmYHKodi/h/wDXzXWaldCysJp8/Mq4X/ePArh4YZLmdIYRukc4Gf5mvOzuq2oUI7vX/I68tp2cqsuhreGbHz75rlx+7h+77sf8B/OutqtYWSWFpHBHyFHJ7k9zVqvSwGG+rUVDr19TjxVb21Ry6dApKKK7DnCiiigAooooAMVHPbRXEZSaNZEPZhmpKKTipKzGm1qjAvPC0T5NpK0R/uv8y/41i3Wj31nkyQlkH8UfzD/Gu4xRivLr5Rh6usVyvy/yOylj6tPR6o86zR+td5c6ZaXefPgRmP8AFjB/MVlXHhOBsm3nkjPo3zD/ABryauS14fA0/wADvp5lTl8WhzFFas3hq/i+4I5R/stg/kaoy2N3AT5ttMuO+zI/MV51TC1qXxxaOyFelP4ZIgo/CkJAOCefSlrA1CiikpALRRRQMKKKKACikLAdSKfHFLMcRRSSH/ZUmmot6ITaW42ir8Oh6jPjFuUB7yEL/wDXrQg8Jynm4uVX2jXJ/M/4V2UsvxNT4YP56fmc88XRhvIwKfDBNcttt4nlP+wM119v4d0+3IJi81h3lO79OlaSIsahUUKo6ADAr0qORzetWVvQ46mZxXwK5ylr4YupsG5kWBT2HzN/hW7ZaHZWeGSLfIP45PmP/wBatCgV6+Hy7D0NYxu+7PPq4urV3egY+tAFFFdxzBRRRQBheJYrq5FvBbwvIpJY7RxnoM+nerOi6Mumxl3Ie4cfM3ZR6D2rUoFciwcPbuvLV9PI3eIl7JUlovzDFLSUtdZgFFFFABRRRQAUUUUAFFFFABRRRQAUUUUAIaQ0UUAhklvDKP3kSP8A7yg1UfRdOlPzWkQP+yMfyoorKdKnL4op/ItVJR+F2IX8Nac2f3Tr9JDUL+F7EAkNOMf7f/1qKK8zEYeim7QX3I7KVao/tP7yu3h61B+/N/30P8Kki8NWb/eef/vof4UUVwU6NNy+FfcdMqk7bsnXwvp46iZvrIf6VOvh/TU/5dg3+8xP8zRRXq0MNR/kX3I4atapf4n95Yj0+0h/1dtCvuEFWFAAwOBRRXfGEY/CrHM5NvVhjmlooqwFooooEFFFFABRRRQAUUUUAFFFFABRRRQB/9k=;" vertex="1" parent="1">
          <mxGeometry x="459.83" y="186" width="50.17" height="30" as="geometry" />
        </mxCell>
        <mxCell id="R2kOFksjPvD2Qqe6QgFd-43" value="" style="shape=image;verticalLabelPosition=bottom;labelBackgroundColor=default;verticalAlign=top;aspect=fixed;imageAspect=0;image=data:image/jpeg,/9j/4AAQSkZJRgABAQEAYABgAAD/2wBDAAoHBwkHBgoJCAkLCwoMDxkQDw4ODx4WFxIZJCAmJSMgIyIoLTkwKCo2KyIjMkQyNjs9QEBAJjBGS0U+Sjk/QD3/2wBDAQsLCw8NDx0QEB09KSMpPT09PT09PT09PT09PT09PT09PT09PT09PT09PT09PT09PT09PT09PT09PT09PT09PT3/wAARCAC0AS0DASIAAhEBAxEB/8QAHwAAAQUBAQEBAQEAAAAAAAAAAAECAwQFBgcICQoL/8QAtRAAAgEDAwIEAwUFBAQAAAF9AQIDAAQRBRIhMUEGE1FhByJxFDKBkaEII0KxwRVS0fAkM2JyggkKFhcYGRolJicoKSo0NTY3ODk6Q0RFRkdISUpTVFVWV1hZWmNkZWZnaGlqc3R1dnd4eXqDhIWGh4iJipKTlJWWl5iZmqKjpKWmp6ipqrKztLW2t7i5usLDxMXGx8jJytLT1NXW19jZ2uHi4+Tl5ufo6erx8vP09fb3+Pn6/8QAHwEAAwEBAQEBAQEBAQAAAAAAAAECAwQFBgcICQoL/8QAtREAAgECBAQDBAcFBAQAAQJ3AAECAxEEBSExBhJBUQdhcRMiMoEIFEKRobHBCSMzUvAVYnLRChYkNOEl8RcYGRomJygpKjU2Nzg5OkNERUZHSElKU1RVVldYWVpjZGVmZ2hpanN0dXZ3eHl6goOEhYaHiImKkpOUlZaXmJmaoqOkpaanqKmqsrO0tba3uLm6wsPExcbHyMnK0tPU1dbX2Nna4uPk5ebn6Onq8vP09fb3+Pn6/9oADAMBAAIRAxEAPwD2SilpKAEZgqlmIAAySegrj9a+KGgaSzRwzPfzrwVtgCoPu54/LNYfxnv7iG00yyjlZILgyPKinAfbt2g+o+Y8fT0ryWrjG5Ldj0PUfjJq05ZdPsrS0Q9DITKw/kP0rBn+Inim5PzavKg9I40T+S1zBdQwUsNx6L3P4VoQaJq10oa20jUZVPdbV8fyqrJCuy+PG/iQHP8Abd7/AN9j/Crlt8SvFFsR/wATPzVH8M0KNn8cA/rWNL4f1mBS02jakgHc2r/0FZ+cMVOQ69VIwR9QaLIV2eo6P8Zn8xU1rTlKH/ltaHkfVG/ofwr0nStYsdbslu9NuUuIGONy9QfQjqD7GvmWtbw34jvPC+qpe2ZLLwJoM4WZPQ+/oex9s0nHsUmfSNVdTvBp2mXV6yNIttC8pRerBQTj9KXTdRt9W063vrN99vcIJEb2Pr71NNEk8LxSqGjdSrA9weDWZR5T/wALruO2iQ/+BR/+Jqa1+NQNygvtIEduSA8kU+5kHc4KjOPTNea6nYPpWqXdhJ9+2laIn1wcA/iMGqvXg9O9a8qIuz6lSRZEV0YMrAEEdCKdXMfDnUjqfgbTXdt0kKG3f6odv8gK6esiwoopk8yW9vJNKcRxqXY+gAyaAOB8T/FWHQ9Ym06z0/7W9udssrTbFDd1AAOcevHOax/+F1XP/QEh/wDAo/8AxNeb3d099eT3cpzJcSNK2fViT/Woa1UURc+gfBnjW38X21wUt2trm2YCSEvuGD0YHAyOD27V01eGfCbUPsfjZbc8Je27xf8AAl+df0DfnXudZyVmUgoopaQzO13Wrbw/o1xqN3uMUI+6v3nYnAUe5Jrzd/jXPuOzRIwvbN0c/wDoNXfjPqOzTdO05TzNK07j2UYH6t+leR1cYpktnrmh/FyTVdcstPm0hY1u5hD5kc5YqT0OCoyK9L7V4V8KtK/tLxrHcOuYtPiac5HG9vlT+bH8K917UpKz0GgrkvE/xG0jw5I9spa9vl4MEJGEPo7dB9OT7VifEvx1NpjHRdJlMd2yg3M6HBiB6Kp7MRznsMY5PHkFOMb7ibO21L4s+Ibxz9ka3sY+wijDtj3Zs/oBWJL408RTHL63e/RZNo/SsMsFIB6ngAck/Qd61bbwxr12ge30PUXU9GMBUH/vrFVZInUsQ+NvEcBBTW7zjszhh+RBrasfiz4jtWH2h7W8X0lh2n81x/KsJ/B3iRFy2g6hj2jB/kay7u0ubBtt9a3Fs3pPE0f8xRZMep7Hofxc0rUJFh1SF9OkY4EjNviz7tgFfxGPeu+R1dQysCpGQQeCK+We3sa96+F0zzfD/TjIxYp5kaknOFWRgB+AwKmUbDTOtpaSlqChKKWigDifiL4Mv/Fg046dNbRvbFw4nLAYbbyMA9NvT3rM0X4N6dAFk1q8mvpOvlRZiiHtx8x/MV6RS07sVjO0zQNK0ZAum6fa2uB1iiAY/U9TWh+NLRSGJWVrnhrSvENsYtTs45TjCyYxInurdRWrSmgD5w8VeG5/C2uSWEzmSPHmQy4x5iHoT7jkH3FY1eu/GixVtL02+AG6KdoSfUMuf5p+teRVrF3RDPXPgzqxm02/0qRs/ZZBNECeivnI/wC+gT/wKvS68S+D8/leNJou01k/5qyEfzNe21EtylseJfFzSvsXixLxVxHfQhiccb1+Vv021wte2/FvSvtvhNbxV/eWMwcn/Yb5W/mp/CvE6uL0Je56p8FdRzDqumM33HS5jHsw2t+qj869SrwP4Z6j/Z3juzUtiO8R7ZvqRuX9VH5174KiW5UdgrmfiJqP9neB9SdW2vMgt19y5Cn9Ca6avMvjRqGyw0zT1bmWVp2Hso2j9WP5UlqwZ5LSkEAEggHke/8AnFIzhFLN0UZNdh4w8PHSPC3hWcj52tDHN7MT5n83f8q1uRY5zRL/APsrX9Ov8kC3uUdsf3c4b9Ca+mgQenSvld13oynowxX0f4O1I6v4R0u8Y5eS3UOf9tRtb9QaiZUTZoopk0qwRPLI21EBZiewHJqCjwz4p6j9v8bTxqwKWcaQDHrjc36tj8K46rOoXr6lqV1eyffuZnlP/AiT/Wq2ySUrHCMyyMEjHqxOB+pFbLRGb1Z7P8HNK+y+GJ9RdcPqE5Kn/pmnyr+u4/jXdXt0ljYz3Un+rgjaVvooyf5VBo2mx6Po1np8I+S1hWIH1wME/iar+KVZ/CWsKn3jZTAf98GsnqzQ+c7u7m1C8mu7lt01w5lc+5OTUOGOAi7nYhVUfxMeAPzoByAR0qa0nW1vrW5cZSCeOVh6hWDH9BWpme8+DvA9h4WsY28qObUmUGe6Zctu7qp/hUdMD8a6imQzRzwpNC4eKRQ6MDwwPIIp9YmgUyWKOaNo5UV0bgqwyD+BqSigDi9b+FmgasTJbRPps5532uApPuh+X8sV0Hh3Q4PDeh2+mWrvJHCD87/eZiSxJ/EmtSincBKWiikAlFFFABRUc88VtA808qRRRgs7u21VA7knoK8u8S/F5hI9t4dhUoOPtc65z7on9W/KmlcTdj1WoZLy3hOJLiFD6M4FfOGo+ItX1di2oaldTgnO0yEKP+AjA/Sszap6qPyquQXMfUcd1BMcRTRufRXBqX8K+VwoByAAfYVftNa1TTz/AKHqV5B7RzsB+WcUcgcx698YefBsP/X7H/6C1eJ1tan4v1rWdMWw1K9NzAsgkG9F3AjOPmAB7msWqirCbOy+E/8AyP0P/XpN/wCy17rXhPwn/wCR/h/69Jv/AGWvdqiW447FXVLCPVNKurGX7lzE0RJHTIxmvmWaGS3mkhmUrLExRwezA4P6ivqQ14J8S9K/szxtdsq4iuwLlPq3Df8AjwP504MJI5i2u30+7gvIs77aVZl+qkH+lfT0EyXNvHNEd0cih1PqCMivlzrXvvw11L+0vAunFm3SW6m2f6ocD9MU5oInVV4X8VtQ+2eNpYQcrZwpCMepG8/+hD8q90JABJIAHUmvmTV786prN7fH/l5neUfQnj9MVMNwkN0ywOq6vY6eoz9quI4j/ulvm/TNe2fFLTheeBp3RebORJ1AHYHaf/HWNedfCrT/ALd46hmYZSygec8fxH5F/wDQj+Ve26nZLqWl3dlJjZcQvEc/7QI/rTk9QWx8xV7J8GtQ8/wzdWLHLWdy2B6K43D9d1eNsjxsUkBDoSrA9iODXe/B7UPs3iq6s2bC3ltkD1ZDn+TNVSWglue01zPxE1L+zPBGourbZJkFunuXO0/oSfwrpu1eX/GjUsQ6Zpit95muHH0G1f5t+VZrVlPY8orqPhvpX9reOLEMuYrMNdv/AMB4X/x4g/hXL1658F9K8vTNQ1Zx81zKII8j+CPr+bE/lWknZEpHpdNkRZY2SRdyMCrA9wadRWRZ80+INGl8P67d6bMD+4f5GP8AEh5VvxH65rOr3rx54ITxXYpLbssWpW4Iikb7rr3Rvb0PY/jXh1/p93pV69nqFvJb3EfWOQYOPUdiPccVrF3IasdJ4S+Ieo+GI1tJEF5p4PELtho/9xvT2PH0r1HR/iN4d1gKovhaTH/lld/uz+f3T+BrwGj2ocUwUj6mVw6hlIZSMgg5Bpa+Z9M13U9FcNpl/cW3OSqP8h+qng/lXa6R8YtTtiqataQ3kY6yRfupPrj7p/SocWPmPY6KxPD3jDSPE0Z/s+5/fKMvbyDbIo+nce4yK281JQUUUtACUUVl+JtSOj+GtRvlOHggZkP+1jC/qRQB5P8AEzxjJrGqSaTZyEafaPtfaf8AXSDqT7A8AeoJ9K4SjnHJyfWkO48Rjc7EKq+pPAH51slYzZpaJoGpeI71rXSrUzMmDI7HbHED03N2+nJ9q76x+CkrIDqOtBX7pawcD/gTHn8hXoXhjw/b+GdBt9OtwMou6VwOZJD95j9T+mBWtWbk+hSiean4K6dt41e/B/3Y/wDCqlx8E+CbXXWz2E1sD+oYV6rRS5mOyPAPEvw+1XwvY/bLuazmtt4TdCzBsnp8pH9a5f8ACvbfi/IE8GIpPL3cYH5Mf6V4lWkXdEvc7H4T/wDI/wAP/XpN/wCy17tXhXwo/wCR+h/69Zv/AGWvdaiW5Udgrzb4y6X52lWOpovzW8phfA/hfp+RA/OvSayfFOlf234Z1CwAy80J2D/bHK/qBSTswZ83V6n8FdR41XTGboyXKD6ja38l/OvLO3p7V1Pw21H+zvHdhlsR3Qe2b/gQyv8A48o/OtJK6JW57F401D+y/B2qXIOGEDRof9p/lH6tXzpgDgdBXsnxj1DyPD1nZKcNdXG4+6oMn9SteNlgoJJ4HJpQWgS3PWfgrp+2w1TUmUZmmWBD7IMn9X/SvTq5n4dacdM8C6XGy7ZJYvtD/WQlv5ED8K6aoe5SPnjx3p/9meNtUhAwrzecv0cbv5kj8Kq+FNR/srxbpV4W2olyquf9l/kP/oVdl8ZtP8rWNOv1HE8LQtj1Q5H6N+lebOCUIU4bHB9D2rRaol7n1R2rwP4mal/aPji8CtujtQtsvttGW/8AHmavZ9K1qK78K2usSsBG1oLiQ+ny5b+Rr5yurmS9u5rqY5lnkaVz7sST/OpgtRyIXYqhKrlgOB6nsK+kvC2kDQfDGn6dj54IVEnu55Y/99E14X4I0r+2fGmmWrDdEkn2iXjjbH836naPxr6KomwiFFFFQUFUNW0PTddtfs+qWcVzGOV3jlT6qeoP0q/RQB5jq3wYtnLPo2pSQE9IrlfMX/voYYfjmuL1X4eeJNI3NJpzXUQ/5aWjeaP++eG/SvoKiqUmLlR8sEbZGjYFZF6owww+oPIor6V1fw7pWvReXqljDcDHDMvzr9GHI/A14946+Hz+F1W+sZXn0522t5nLwMegJ7qfX86pSuTY4+Cea1uI57eV4pom3JIjYZT6g17r8PvGX/CVaW8d1tXUrXAnCjAkB6OB2zjkdiPpXg1dH8PtTfS/G+muGIS4c2sg7EP0/wDHgtOSuCZ9CUtIKWsiwrlviUD/AMK/1THXbH+XmLXUVm+IdNOseHtQsF+9cQOiZ/vY+X9cUID5qqaykWLUrOR/uJcxM30DqTURBHDAqw4IPY9xSFQwKnoRg1sZn1PS1w3gDx3a61p0FhqE6xapCoQiRsfaAOAy+p9R/Su4/A1i1Y0Ciorm7t7OEy3U8UEQ6vK4VR+Jrz/xX8V7Ozhe28PkXV0Rj7QR+6j9x/eP6fXpTSuFzJ+Metxz3lno8Lbjb5nnx2YjCj64yfxFeZ0+eeS4nea4laSWVizu5yWY8kk9zTK1SsZt3Ot+F8vl/EGxGcCSGZPr8uf/AGWveq+ZtF1Q6JrljqSgn7LMJGA7r0Yf98k19LQzRzwpLCweORQyMOjAjINRPcqI+iiioKPnXxrpf9j+MNStVXEZlMsYHTa/zDH0yR+FY0Fy9jcQ3cXElvIsy/VSG/pXpnxn0rbPp2qopwwa2kOO4+Zf/Z68vrVO6Ie52/xV1hNV8RWiQNuhhtEcfWT5/wD0HbXG2tm+o3lvZRj57qVIB/wJgP602WaSd98rs7BVXJPZQAB+AAH4V0/wz0/+0PHtiSuUtEe5b8BtX9WH5UbINz3qKJIIkijUKiKFUDsBwKfRRWRZxHxa0/7Z4Ma4UDdZzpLnvtPyn/0IH8K8Qr6X13Txq2h31iQD9ogeMZ7Eg4P54r5n5wN3B7j0NaQZEj0PTvEPk/BO8td2JkuGsVx/dc7/AP0At+VeeVMLqVbJrQORA0omK+rhSoP5E1AzBFZj0UZNUlYVz1L4LaVl9T1d17raRH6fM/6lfyr1aue8BaQdE8GabbSLiZovOm9d7/Mfyzj8K6GsnuWhaSisTxhrU3h7wvealbIjzRBQiyZ25ZguTj0zSGbdFeU6N8ZXVgmuaeGX/ntacEfVGP8AI/hXc6Z418P6sALXVbbef+WcreW/5Ng02mhJm7RSKwZQykEHoQc0v4GkMK57x8Ij4F1fzsbfIOM/3sjb+uK17/VLLS4DNqF3BbRgZ3SyBc/TPWvH/iF4/j8QoNM0reNPV90krDaZyOmB1CjrzyTjpjlpXEzgz1rS8MoZPFmjIv3jfQ4x7OCf0BrMrtvhRoj6l4sF+yH7NpqFyx6GVgQo/AFj+XrWr2IR7jS0lLWJoFJRRQB418T/AAZLp19NrthEWsbg77lVGfIc9W/3T1z2OfWvPa+pnRXUqwBVhggjIIrz7xB8ItN1CR59HnOnSscmLbvhJ9l6r+Bx7VcZdyWjxojPWrkWsalBH5cOo3saf3UuHA/LNdTdfCXxNAxEK2NyvZknK5/BhUMfwr8VyNhrS0jHq90P6A1V0KzOTlmluH3zyPK/96Rix/M0tvBNeXUdtawyT3EpxHFGu5mP0/r0r0fTPgtdO4bWNVjjTvHZoSx/4G3T/vmvRPD/AIT0nwzAU0u0WN3GJJm+aST/AHmPP4dKTkugKJyvg74X2+m6dPLrqJcX93C0TKpytsjDkKe7ere2Bx18o1rSbjQtXudOux+8gbG7s6/wsPYjn/8AVX0ziuZ8YeB7LxdBEZZWtryEYjuUUE7f7rDuO/t275lS1G0fPxIGPc4A9T6e9fQHw5tdSsvBNjBqsbRTLu8uN/vpHk7A3oQO3YYqHwp8OtK8MOLlt17qA6XMyj5P9xei/Xr711tEpXGlYKWkoqRnN/EHSf7X8F38SrulhT7RH9U5/UZH418+Zz0r6mIDAg9K87vvgzpVxdyS2moXlrE5LCFQjKnsCRnFXGViWrnjtepfBTTsnV9SYdWS2Q/Qbm/9CWrI+CdjnnWb7HtHH/hXdeH9As/DWkRadp6uIYyWLOcs7E5LMe5NEpXQJGnRSUVBQV85eMNO/srxfqlqF2os7Og9Ff5h+jV9G1yXiz4d6f4qvEvHuJ7S6VAjPEFIdR0yCOo9aqLsxNXPBa0/Delf254m03TiMpNOpkH/AEzX5m/QY/GvRv8AhSdr/wBBu8/78x10XhL4ead4UupLyOee7u3TyxJNtARSckKAOM4GTz0qnJE8p1gooorMsK5zx/p1zqvgrUbazjaWfarrGoyX2sGIHvgGujoxQB8sDvjscH2NBGeCMj3r6F17wHoPiJ2mvLMJct1uID5ch+pHDfiDXEaj8Fp1JOl6wrL2S7i5/wC+l/wrRSRFmeaw3E9tzBNLEf8Apm5X+Rqw2r6kw2tqN6R6G4f/ABro7n4V+KYGIS0tbgDvFcj/ANmAqt/wrjxZnH9jP9ftEX/xVO6FZnNMzO+92LOf4mOT+dJXY2vwo8UXLASwWdoD3muNxH4KDXVaP8GLOJlk1rUJbsjkwwDyoz7E8sfzFHMh2Z5voHh/UPE2oiz0yLcQf3szD93CPVj6+ijk17/4b8PWnhjR4tOsgSqfM8jfelc9WPuf04FW9P0yz0mzS10+2itrdPuxxqAPr9ferVZt3KSsLRSUtIYUlFFABRRRQAUUUUAFLSUtACUUUUAFFFFABRRRQAUUUUAFFFFAC0lLSUAFFFFABRRRQAUUUUAFFFFABRRRQAUUUUAFFFFABRRRigApaSloApS6pZwXX2eW4VJfQ9vqelWgQcYPBrA13RGnd7u2BZz9+P19xWPYaxdaedsbb4weY36D/CvIqZjLD1nCvG0ejR3wwca1NSpPXqjuaKy7DXrW9wrN5Mp/gc9foa0816VKtCrHmg7o45wlB2krC0UUVqQFLSUUAFFFFABRRRQAUUUUAFFFFABRRRQAtJRRQAUUUUAFFFFABRRRQAUUUUAFFFFACMcDOeBWRe+I7S2JWHM7j+6cKPx/wp2vWd9fRxRWjKI+fMBbbn0+orJTwreH780CfTJ/pXl4zEYpS9nQh8/8jtw9Kg1zVZfIiuPEl9MSI2SFfRF5/M1Qlvbqb/WXMzfVzW2vhJv47wfhH/8AXp48JJ3vJP8AvgV5M8HmNXWd/vO+OIwcPht9xzeSf4ifrSq7ocq7KfYkV0L+Ej/yzu+f9qP/AOvWTf6Vc6cVMwUoxwrqeK462CxNFc046HRTxNGo+WLEh1e+t8FLqQgdmO4frXT6Tq326zMkoCSKxVgOh9/1rja3fD8DSWcrf9NSP/HRXTlmKrKryczasYY2jT5Oa1mdTisbVtBjvd00GI7jv6P9f8a2qbX1FahCvDkmro8WnUlTlzRZ57NDJbytFMhRx1VhVyy1m8scKknmR/3JOR+HcV1d/psGoRbJl+YfdccMtcnqOk3GnMS43xdpFHH4+lfMYjBV8FL2lJu3f/M9qjiaWJXJUWv9bHQWfiS0uMLPmB/9rlfz/wAa11dXUMpDKehByDXnXHpU9teXFm2beZ4/UA8H8Olb4fO5R0rK/mjOrlkXrTdjv80ZrmLXxVIuBdwBx/fj4P5Gtm11myuyBHOqt/df5T+tezQx+HrfDLX7jzqmFq0/iReooz3ozXYc4UUUUAFFFFABRRRQAUUUUALSUtJQAUUUUAFFFFABRRRQAUUUZoAKKKM0ABpKrXWpWln/AK6dFb+6DlvyFY914qUcWkBY/wB6TgfkK5a+NoUfjkbU8NVq/DE6EnH0FU31iwSbymuo9/Tg5H59K5C71K7veLiZiv8AcHC/lUENvLdSiGBC8jdh2+voK8mpnTlJRowv6/8AAO+GWpK9SR6EDkZFZHifH9kjPXzVx+taNpEbezhhZtzRoFLeuBWH4rn+W3gB7lz/ACH9a9HHz5cJJy6r8zjwseavFLuc5/DXY+G4fK0aMkcyMz/meP0FcekbTOsUYy7sFX6mvQIYVggSJPuooUfhXkZJS5qkqj2Wn3noZnO0FBdSWilpK+mPGCmlQwIYZB6g06ilYDn9S8MpJmSxIjbvGfun6elc7Pby20hjnjaN/Rv8816FUNzaw3cRjnjV1PY15GLyinV96n7r/A9ChmE6ek9V+J5/QRmt++8LuuXsZNw/55uefwP+NYc0MlvJsnjaN/Rhivna+DrYd/vF8+h69LEU6q91kttqF3aH9xcOg/u5yPyNakHim5TAuIo5R6j5TWH1oopYyvR+CTFPDUqnxROtg8T2UmBIJIj/ALQyPzFaEOoWlxjybiJiewYZ/KuCoxXo088rR+OKf4HJPLKb+FtHoo60tefRXdxB/qp5U/3XIq5Fr+oxgD7QHA/vqDXbTzyi/ii1+JzSyyovhaZ2tFconiu7X/WQwN9MirCeLR/y0tD9Vk/+tXVHNsLL7VvkzF4Cuun4nR0VhL4rtT96GYfTB/rUg8UWJ6iYfVP/AK9bLMMM/tozeFrL7LNmisn/AISXT/78g/7Zmj/hJdP/AOekn/fs1X13D/8APxfeL6tW/lf3GtRWO3iewHQzH6R0xvFNmPuxzn8AP60nj8MvtoFhaz+yzbornn8WRgfJauf95wKgfxZcHPl20Q+rE/4VjLNcLH7V/kzRYGu/snUUVxsniTUX+7Iif7qD+tU5dQvJ8+bdSsD23kCuaeeUF8KbN45ZVfxNI7iW5gg5mmjj/wB5gKz5/EenxfdkaU/9M1/qcVx/U570VxVM9qv4IpfidEMrgvilc6CfxXI2RbW6r6GRsn8hWXc6tfXWRJcPtP8ACvyj9Kp0hOOpGK86rj8RW+Kb/I64YWjT2iFBIAyenvV+y0W9vsMkflRn+OQY/IdTXSafoFrYlXYedMP437fQdBWuGyyviNbWXdkVsbSpaXuzB07Qbi9w8uYID3I+ZvoP6mups7CCwh8u3TaOpPcn1JqzRX02FwFLDL3Vd9zxq+KqV/i27CVxOt3Qu9VmYHKodi/h/wDXzXWaldCysJp8/Mq4X/ePArh4YZLmdIYRukc4Gf5mvOzuq2oUI7vX/I68tp2cqsuhreGbHz75rlx+7h+77sf8B/OutqtYWSWFpHBHyFHJ7k9zVqvSwGG+rUVDr19TjxVb21Ry6dApKKK7DnCiiigAooooAMVHPbRXEZSaNZEPZhmpKKTipKzGm1qjAvPC0T5NpK0R/uv8y/41i3Wj31nkyQlkH8UfzD/Gu4xRivLr5Rh6usVyvy/yOylj6tPR6o86zR+td5c6ZaXefPgRmP8AFjB/MVlXHhOBsm3nkjPo3zD/ABryauS14fA0/wADvp5lTl8WhzFFas3hq/i+4I5R/stg/kaoy2N3AT5ttMuO+zI/MV51TC1qXxxaOyFelP4ZIgo/CkJAOCefSlrA1CiikpALRRRQMKKKKACikLAdSKfHFLMcRRSSH/ZUmmot6ITaW42ir8Oh6jPjFuUB7yEL/wDXrQg8Jynm4uVX2jXJ/M/4V2UsvxNT4YP56fmc88XRhvIwKfDBNcttt4nlP+wM119v4d0+3IJi81h3lO79OlaSIsahUUKo6ADAr0qORzetWVvQ46mZxXwK5ylr4YupsG5kWBT2HzN/hW7ZaHZWeGSLfIP45PmP/wBatCgV6+Hy7D0NYxu+7PPq4urV3egY+tAFFFdxzBRRRQBheJYrq5FvBbwvIpJY7RxnoM+nerOi6Mumxl3Ie4cfM3ZR6D2rUoFciwcPbuvLV9PI3eIl7JUlovzDFLSUtdZgFFFFABRRRQAUUUUAFFFFABRRRQAUUUUAIaQ0UUAhklvDKP3kSP8A7yg1UfRdOlPzWkQP+yMfyoorKdKnL4op/ItVJR+F2IX8Nac2f3Tr9JDUL+F7EAkNOMf7f/1qKK8zEYeim7QX3I7KVao/tP7yu3h61B+/N/30P8Kki8NWb/eef/vof4UUVwU6NNy+FfcdMqk7bsnXwvp46iZvrIf6VOvh/TU/5dg3+8xP8zRRXq0MNR/kX3I4atapf4n95Yj0+0h/1dtCvuEFWFAAwOBRRXfGEY/CrHM5NvVhjmlooqwFooooEFFFFABRRRQAUUUUAFFFFABRRRQB/9k=;" vertex="1" parent="1">
          <mxGeometry x="709.8299999999999" y="360" width="50.17" height="30" as="geometry" />
        </mxCell>
        <mxCell id="R2kOFksjPvD2Qqe6QgFd-44" value="" style="shape=image;verticalLabelPosition=bottom;labelBackgroundColor=default;verticalAlign=top;aspect=fixed;imageAspect=0;image=data:image/avif,AAAAIGZ0eXBhdmlmAAAAAGF2aWZtaWYxbWlhZk1BMUIAAA3ibWV0YQAAAAAAAAAoaGRscgAAAAAAAAAAcGljdAAAAAAAAAAAAAAAAGxpYmF2aWYAAAAADnBpdG0AAAAAAAEAAAAsaWxvYwAAAABEAAACAAEAAAABAAAlnAAAW/cAAgAAAAEAAA4KAAAXkgAAAEJpaW5mAAAAAAACAAAAGmluZmUCAAAAAAEAAGF2MDFDb2xvcgAAAAAaaW5mZQIAAAAAAgAAYXYwMUFscGhhAAAAABppcmVmAAAAAAAAAA5hdXhsAAIAAQABAAANGGlwcnAAAAzxaXBjbwAAABRpc3BlAAAAAAAABN4AAATeAAAAEHBpeGkAAAAAAwgICAAAAAxhdjFDgQgMAAAADFRjb2xycHJvZgAADEhMaW5vAhAAAG1udHJSR0IgWFlaIAfOAAIACQAGADEAAGFjc3BNU0ZUAAAAAElFQyBzUkdCAAAAAAAAAAAAAAAAAAD21gABAAAAANMtSFAgIAAAAAAAAAAAAAAAAAAAAAAAAAAAAAAAAAAAAAAAAAAAAAAAAAAAAAAAAAAAAAAAEWNwcnQAAAFQAAAAM2Rlc2MAAAGEAAAAbHd0cHQAAAHwAAAAFGJrcHQAAAIEAAAAFHJYWVoAAAIYAAAAFGdYWVoAAAIsAAAAFGJYWVoAAAJAAAAAFGRtbmQAAAJUAAAAcGRtZGQAAALEAAAAiHZ1ZWQAAANMAAAAhnZpZXcAAAPUAAAAJGx1bWkAAAP4AAAAFG1lYXMAAAQMAAAAJHRlY2gAAAQwAAAADHJUUkMAAAQ8AAAIDGdUUkMAAAQ8AAAIDGJUUkMAAAQ8AAAIDHRleHQAAAAAQ29weXJpZ2h0IChjKSAxOTk4IEhld2xldHQtUGFja2FyZCBDb21wYW55AABkZXNjAAAAAAAAABJzUkdCIElFQzYxOTY2LTIuMQAAAAAAAAAAAAAAEnNSR0IgSUVDNjE5NjYtMi4xAAAAAAAAAAAAAAAAAAAAAAAAAAAAAAAAAAAAAAAAAAAAAAAAAAAAAAAAAAAAAAAAAABYWVogAAAAAAAA81EAAQAAAAEWzFhZWiAAAAAAAAAAAAAAAAAAAAAAWFlaIAAAAAAAAG+iAAA49QAAA5BYWVogAAAAAAAAYpkAALeFAAAY2lhZWiAAAAAAAAAkoAAAD4QAALbPZGVzYwAAAAAAAAAWSUVDIGh0dHA6Ly93d3cuaWVjLmNoAAAAAAAAAAAAAAAWSUVDIGh0dHA6Ly93d3cuaWVjLmNoAAAAAAAAAAAAAAAAAAAAAAAAAAAAAAAAAAAAAAAAAAAAAAAAAAAAAAAAAAAAAGRlc2MAAAAAAAAALklFQyA2MTk2Ni0yLjEgRGVmYXVsdCBSR0IgY29sb3VyIHNwYWNlIC0gc1JHQgAAAAAAAAAAAAAALklFQyA2MTk2Ni0yLjEgRGVmYXVsdCBSR0IgY29sb3VyIHNwYWNlIC0gc1JHQgAAAAAAAAAAAAAAAAAAAAAAAAAAAABkZXNjAAAAAAAAACxSZWZlcmVuY2UgVmlld2luZyBDb25kaXRpb24gaW4gSUVDNjE5NjYtMi4xAAAAAAAAAAAAAAAsUmVmZXJlbmNlIFZpZXdpbmcgQ29uZGl0aW9uIGluIElFQzYxOTY2LTIuMQAAAAAAAAAAAAAAAAAAAAAAAAAAAAAAAAAAdmlldwAAAAAAE6T+ABRfLgAQzxQAA+3MAAQTCwADXJ4AAAABWFlaIAAAAAAATAlWAFAAAABXH+dtZWFzAAAAAAAAAAEAAAAAAAAAAAAAAAAAAAAAAAACjwAAAAJzaWcgAAAAAENSVCBjdXJ2AAAAAAAABAAAAAAFAAoADwAUABkAHgAjACgALQAyADcAOwBAAEUASgBPAFQAWQBeAGMAaABtAHIAdwB8AIEAhgCLAJAAlQCaAJ8ApACpAK4AsgC3ALwAwQDGAMsA0ADVANsA4ADlAOsA8AD2APsBAQEHAQ0BEwEZAR8BJQErATIBOAE+AUUBTAFSAVkBYAFnAW4BdQF8AYMBiwGSAZoBoQGpAbEBuQHBAckB0QHZAeEB6QHyAfoCAwIMAhQCHQImAi8COAJBAksCVAJdAmcCcQJ6AoQCjgKYAqICrAK2AsECywLVAuAC6wL1AwADCwMWAyEDLQM4A0MDTwNaA2YDcgN+A4oDlgOiA64DugPHA9MD4APsA/kEBgQTBCAELQQ7BEgEVQRjBHEEfgSMBJoEqAS2BMQE0wThBPAE/gUNBRwFKwU6BUkFWAVnBXcFhgWWBaYFtQXFBdUF5QX2BgYGFgYnBjcGSAZZBmoGewaMBp0GrwbABtEG4wb1BwcHGQcrBz0HTwdhB3QHhgeZB6wHvwfSB+UH+AgLCB8IMghGCFoIbgiCCJYIqgi+CNII5wj7CRAJJQk6CU8JZAl5CY8JpAm6Cc8J5Qn7ChEKJwo9ClQKagqBCpgKrgrFCtwK8wsLCyILOQtRC2kLgAuYC7ALyAvhC/kMEgwqDEMMXAx1DI4MpwzADNkM8w0NDSYNQA1aDXQNjg2pDcMN3g34DhMOLg5JDmQOfw6bDrYO0g7uDwkPJQ9BD14Peg+WD7MPzw/sEAkQJhBDEGEQfhCbELkQ1xD1ERMRMRFPEW0RjBGqEckR6BIHEiYSRRJkEoQSoxLDEuMTAxMjE0MTYxODE6QTxRPlFAYUJxRJFGoUixStFM4U8BUSFTQVVhV4FZsVvRXgFgMWJhZJFmwWjxayFtYW+hcdF0EXZReJF64X0hf3GBsYQBhlGIoYrxjVGPoZIBlFGWsZkRm3Gd0aBBoqGlEadxqeGsUa7BsUGzsbYxuKG7Ib2hwCHCocUhx7HKMczBz1HR4dRx1wHZkdwx3sHhYeQB5qHpQevh7pHxMfPh9pH5Qfvx/qIBUgQSBsIJggxCDwIRwhSCF1IaEhziH7IiciVSKCIq8i3SMKIzgjZiOUI8Ij8CQfJE0kfCSrJNolCSU4JWgllyXHJfcmJyZXJocmtyboJxgnSSd6J6sn3CgNKD8ocSiiKNQpBik4KWspnSnQKgIqNSpoKpsqzysCKzYraSudK9EsBSw5LG4soizXLQwtQS12Last4S4WLkwugi63Lu4vJC9aL5Evxy/+MDUwbDCkMNsxEjFKMYIxujHyMioyYzKbMtQzDTNGM38zuDPxNCs0ZTSeNNg1EzVNNYc1wjX9Njc2cjauNuk3JDdgN5w31zgUOFA4jDjIOQU5Qjl/Obw5+To2OnQ6sjrvOy07azuqO+g8JzxlPKQ84z0iPWE9oT3gPiA+YD6gPuA/IT9hP6I/4kAjQGRApkDnQSlBakGsQe5CMEJyQrVC90M6Q31DwEQDREdEikTORRJFVUWaRd5GIkZnRqtG8Ec1R3tHwEgFSEtIkUjXSR1JY0mpSfBKN0p9SsRLDEtTS5pL4kwqTHJMuk0CTUpNk03cTiVObk63TwBPSU+TT91QJ1BxULtRBlFQUZtR5lIxUnxSx1MTU19TqlP2VEJUj1TbVShVdVXCVg9WXFapVvdXRFeSV+BYL1h9WMtZGllpWbhaB1pWWqZa9VtFW5Vb5Vw1XIZc1l0nXXhdyV4aXmxevV8PX2Ffs2AFYFdgqmD8YU9homH1YklinGLwY0Njl2PrZEBklGTpZT1lkmXnZj1mkmboZz1nk2fpaD9olmjsaUNpmmnxakhqn2r3a09rp2v/bFdsr20IbWBtuW4SbmtuxG8eb3hv0XArcIZw4HE6cZVx8HJLcqZzAXNdc7h0FHRwdMx1KHWFdeF2Pnabdvh3VnezeBF4bnjMeSp5iXnnekZ6pXsEe2N7wnwhfIF84X1BfaF+AX5ifsJ/I3+Ef+WAR4CogQqBa4HNgjCCkoL0g1eDuoQdhICE44VHhauGDoZyhteHO4efiASIaYjOiTOJmYn+imSKyoswi5aL/IxjjMqNMY2Yjf+OZo7OjzaPnpAGkG6Q1pE/kaiSEZJ6kuOTTZO2lCCUipT0lV+VyZY0lp+XCpd1l+CYTJi4mSSZkJn8mmia1ZtCm6+cHJyJnPedZJ3SnkCerp8dn4uf+qBpoNihR6G2oiailqMGo3aj5qRWpMelOKWpphqmi6b9p26n4KhSqMSpN6mpqhyqj6sCq3Wr6axcrNCtRK24ri2uoa8Wr4uwALB1sOqxYLHWskuywrM4s660JbSctRO1irYBtnm28Ldot+C4WbjRuUq5wro7urW7LrunvCG8m70VvY++Cr6Evv+/er/1wHDA7MFnwePCX8Lbw1jD1MRRxM7FS8XIxkbGw8dBx7/IPci8yTrJuco4yrfLNsu2zDXMtc01zbXONs62zzfPuNA50LrRPNG+0j/SwdNE08bUSdTL1U7V0dZV1tjXXNfg2GTY6Nls2fHadtr724DcBdyK3RDdlt4c3qLfKd+v4DbgveFE4cziU+Lb42Pj6+Rz5PzlhOYN5pbnH+ep6DLovOlG6dDqW+rl63Dr++yG7RHtnO4o7rTvQO/M8Fjw5fFy8f/yjPMZ86f0NPTC9VD13vZt9vv3ivgZ+Kj5OPnH+lf65/t3/Af8mP0p/br+S/7c/23//wAAABNjb2xybmNseAABAA0ABoAAAAAOcGl4aQAAAAABCAAAAAxhdjFDgQgcAAAAADhhdXhDAAAAAHVybjptcGVnOm1wZWdCOmNpY3A6c3lzdGVtczphdXhpbGlhcnk6YWxwaGEAAAAAH2lwbWEAAAAAAAAAAgABBQECgwQFAAIEAQaHCAAAc5FtZGF0EgAKBxoqpuzd4VAyhC8Q8AMMUPZYTi+3MJE6kUIK0EW/QYe1tiY2okJLV1nuWccN6se4LFGBsm0bvIGv/VumFBGPp7pNdeM1HviXwsrbomXAOt4amOjcpPBHFdknLP2GEZnWp2DIwNhIX+P3YSHLyNyNsi20BzW48t+ujfQqIqBvCNx2+EDgCA+2QnrSELIRniVzH5/4haWJgcLp3dYmDYgVBvGnCXrtEmdzYsUm84J7+iFYMYx+/PVZjnVlQ8ct6fZvu7CQs9NtwjsqtjKEnt5ukpA7dMVdUVdUs07eOep2t85ZJajx90wr96FjZysy3LAaDOURdwT+1Ps/kIqhTdjyHny8svgA0aLJ0JDdCCJT4qliVuyNqElZWgN0uJpPcel/haMl8oDc1UAmVY/Fbfbv6LVnlcqDVxmteF86/X0UU6gRAtybgKzs1OXd59zaxrPnli3sxnxKsEtWA1ac9r/JMm2nlvaiGDhbDYmRbWU+UcwCkuyGpHzla8vlnyY1PWyh4cwiQchN89q08yr1j1bAruXzEtiPXn3ht7H6rpMrClPmyrfCUTC3t2NbVBGnm2L/kKWm2iPxyy3djiFvuZBASQmhYnfcSKurJw4gYPQnW2NYY3IUzX0Jilae5J3au2I7hjWuiKkFp58gAHaQ4zXN/EC5zd6ZHxdLFHxuWPf1hm2I+WnF2DUfSjTeHanut9ECVzXeNd5lWGvA3o7ZueoI4dRNV8XgyJW30MeqSSLj/BZkfqCGAiKlxqf7T8e2hy/hEDjKNmSRix6eIsGKGQRdWTqkXPoAP63U/IWLInyLcEBQn0R16X7UGSoAinHKNV2g9TtstMJtFTDLe8xqj4nt1+WHRfqHwEKdM9JyIWLCbfWaFRu+hSmOe3YUZI5+nhivg6NHKrut+NaBghwOMbn5QICT94Z96a0WY5hloJkjMWj5Dq6ouJzIAU/k0bp5sYqXQvWzMzMzKU4rmr+E0OCrFm1TQ81ptxpPiCFPlGF/geb8ryb+HNRjRSXcLf3YeIBCBTmPb+unOiabdqUeSJsSvBVUG/bY8LLvtM0TM7d3xfoQ9CRVRTM+HAEvUEdzJNsR7kuuejr0dSwkJYd75pxCdUMN3XkIhVGbmVQN7uRu5LMp4kmcrFgDk2mSKCVwWvFH1WXxokdnWT3FIbZQ2cUcMQ1bvV4rfr3Wb+Bqct2TkOdKDZJ8x8D3Oda4IOq02w8rXTQ9QGD3wUZFUYEfEeWnHVr16gfHOqxx9WpZzd8t/gYykUgIGKCEhB6Gkq2Ud1RwJSVBauoieBeYCbTVsPAzHfW242ke8OOSV6sdcS+bxwPQdjnYHQOUYbdA57vld97LIs5Bm5VzUC0PtlN1hfNU2KuyK3AE2tOXcf54aODZY0UCwqpGUDqnBbiXPGZH1tZQOlnT7On/Z1AAAAAAAAAAAAAAAAAACYr/2d2Bbq+/rSQfPlEt/O47vKUq7tnCvW2AiAaD4Mr7nXrknPg56sdPuhITuYla6OjbN2Nk7tSHVVXeTET4ySZfLSUEHlPKp3N7ahE33WvDz2Ob1WT5sVvRNO5vcjiFQcKBUu26BzlTaQuDAOg2Wn6slhOlp5dkS8OdExLcIhp6UgyFo3toKxDt8KXpMGijZoyG+H0868DzKOsf+3JRRP3UhxBjrfwNJMofqnS2VCcqgg8FbchSPKMSH1E/az3S5FhvuS/QXNV4gCHMX9HB7a2YcKZzrhGcWLJceIYiihA6eoiP6RKDq6YE/5wviDRudtX3MyIH5mOFWFg9aBUY3+xFULXxxbYPZu6ONI9OTs/KjlwpU1xhJHcpDvKnPRfhiljWB2wO65fPKNLYu4SJq50KXrRiy0+UWD5MAtv+ajEuwf+y+lkXNRYHRSRrBJ2UzmqOxpywMCx8K8yUIPTIAq52ngLvnCaSlYgOvobLbS9zkY0LGpREzQ2WLzDYc2hcO27hWLixSf1xsqOfEP44CjtsFt/cD89A35QthzFVnyTs/VtaIliZ/HZnH6XsJSNf///////fpplqfvc6BYFksSR3YUrvJEhNAt3clAjW6GuUM9UEAI2/lUXsfomv896RsGlVYsFtDT65rLR6VAIucSlFsY8Wict64DdP8yYYV33uhQ4F6jLHXhA9+KGoIgyyu+1A7TwWyqIr7xB+JywONl9y66rflbQ5Sbk9zgCxQNe70bYfLpcGZ2RLQI1XEcygfwaLwSzdbjQJvM+tlggO01qpYYhjRP8RTvVo4JvHjqSh4c2FoxcuVny3f08vUmuYG+x8Rp3EfsEdX/////NvKClbir1seDQLap57Ry11iUih0HY+kgMhO6E6GUl4EQkNCGo7LCISPX6oALagn305Q9xxH2RLENAa8eF3pIYXTnO95hZW+qJKnv7aulTGkqcQC6pmXa8WlonNaZL7w1X5w/30y4w28RLEwR4EL6qln3FiB49FfmbHExkmZO5C6XdPu6f93WIr/3dQImocJZxnxP9kZabZsp3KJXmZ6zG6dba/70T5y2Snx5cXMpBhuWrgl+VFKlKVKpSqtWq1q1rVDL4ml9o/z28nPSKEfttym/aMwricJfXsqBfCuES0vHoVsj0MFqkTsZy9vKV30OExe80rTVuzMhnUs8ToAFNaEi0d1mIWAEqjgNW20mtaRUQSSKHDSY4skCArG8ah59brCkKz1imKCGNHd6LyvY2LqxxyQd5oLRMLN7/LUuLCgxEm84/brEGxNrewoNPrGMmxjHVxG7vtS9S1O/Qcs8vGMU+xqLOGVZY9lGEYjaSuokCfPY80GPr6qMCz35r8aYRpq1kwH9QpfGcTA7RDPJI5DyGycmcdIqupPHGXbTU26D9Woq/uqhu27Hz+/gXZQL/YG0tnHlbXMAyNHav7IJiol9ADX9iqeEbjO2nDZ7Kv1D3bRyiN2omx/LNmcv2TYMiOENoYL3JLDBwyb3nKEiiVUDocqfPsvgucT6x8AzcjcjckaMmc3Hbcmrnx3EtpaX9p4GfJ5NaXa11pww1MMoc/QtUR4uVUxyk+sS7n7E32J/BxcALUlOKn7w1mtj7XuwG5wQv6nOtcRGQFpmUsR2sMD0tP5kdFVClksSbEmHSjlrwJ56QL0yISyE8O8f243uPU0yp2mOFSlLOaE8qQSdo+IWTpaMBjnS5RjHwDrdst6hcSKXekOpbEv8CnFInx9op4uwGBNrIo2zPwy7E2WIZb2icSHMAo/fnfjz1koATv/L3Xlz1/isWFe43RU4OehSArADG4uHsHaAucOzsabJm9jl8IHnrtMX/aJFK0pLck/mc312RmUTOHHeUTd29K/QPgkIEJ2lpTRNTYl4fcscBVY3J4Rrlhe3l2xYeGZJbrcBc6kunGGmG+XwgQ3lUFqi6YHqLDb3riu3Ftzvv9jBDlYhAU8P8L5uWOFiUATgRE35SXK+mwe7jgrr9o27CkTZUjF1Z9MlOovb9ASCF74SML3OYOF3NcMCzPkayfPB+gvgz/C4ZBs9Qubwe+xBGWQesLS8YqppmDgbG1ynrmwSGpCKBrvktBcmLQaUDcwcxvuaFkjSIfGdRZdIP/ITJIIs3p5eufpC0Wt4SZaO7wUY025nvHKhWvpdoAZ2blYhBYjypc9YouplAjID22AO/ohq9fRXeAYFSwAOnHzHiaYLhiFGbAO72hvsIblJvMTJF9qI7wc+kCtljnv6+TmEZwhwh6bXmLYUEKIweh2IGsSaSJP+7n/Ms/u6JyKbiy500TbO/WRdFs3uR30Z/eiL4Bg4Na5JMrcPg9rgwivoOJ/IpDCh0gEsgtHx3YnFiODRCDWuihGDEpLbBBJQH32hx8GYWO8Kj9JGwWH7bqTKc9NZfer9Af/0D5FMtE9T2aNfTQVCXtLyz+HpiaQ+K6s4kSo/mBCdTgN63DzrQQjeQ+xh/xACBK4ecF/YgAagf/0xYllUaOQabM2CbNbuWC9KBvpiQLZ25aFO+zdyjTFKSjRtDBZgTs5nW6ivQUXmiLo2hkBXfpflgOJv9TCLSTOCFpd3EDAE5zH2ifrCRsBivsjqf9IpjMzMy+8wsV4woQreGcY2hItQOkbXpPSHScyBmfoo97Nye+yZPtd/iZE4CF2kUVgKassFpURny4/MKozap3yBBfS9s69dQOfg42wpcNIxglY3S1IpAeTCL44OhANFkUKhT9t5EV9AZ/kD4C3irVVa2RtB3tiaFdcy61k4/2vw6BxzWX5TuRKStzkghrq/thIQ++btqsz5FFvwL2dug1Q6P2il+PW9bjXFrS2m0ufRjWGjQkJPpLL8z8Op2i980wYVvuSrDF9QOxt4msuXdNbKX7XDnlwipYr8FT7nlqF1bUmTldXfiFeTp66Ypb/XqVYvbVagjPALunr3WWIJ8V+tv7uzMtU8yuYoNc/GPm8hFxRZfYArJXlxWdIzAhmQQRyGHTb5zOs+eVeeh8os9DXNiKs+yU+wEv6BXhSUQw9c46kvc0StC0A3MSbBANOLk1/PBfG0nE3YeEtDvUzKwVQH3XYHhEvpZeVr3SopzHOatzdS26Yb7UYRnnSB0bxhvhgBHFF7Vvn1ErBawvazsvI3UDTJHHcReE5MekTcJQgovXkm+I5f3BijpoU/ME9jhUVrt6NZbZ6IGoysRFVel1pt8NTDUMUOqgAw+5Jukp9bjeLBR82vSyxonVCn4AC7RWE2zMiMslJXcGBa7cWkl7VaKLHG9y14Xu1msu2z0Dne7iECcXYvgNgpixsMSC0qcjtTpJ8HPBboop4nvSma4Oa6wbay/FTsvmIoNaJqVCg2jUhnMYlVwi8sUd/GQgyg1LHrOzut+qiHSr3fWElMHzOhfW6eywvKwWDyLymG+3GYebtkN5FHxcEYFaW6btJEyTWph103wmHgiNbcAbCCIy23SuoX9rksOcXaoLbJT79kVua0Qu6JbS/p/9/dlO9nWQ547PWFRPB7dPhyg8MNbqFf8jKqKCIhf373nvtCsiXD4t/cLD+qD7HTEpcQcDVWtvKHm9EJmtUNmInywFP6wFP6wFPlg0+WImzg7wfc8elplF+gARar3CTSFrTAITCyDXd+MnHJSiCYs4Xco6SuV/1QiQvdEHeEUNNKjPJUuFUC3gAqhGM8tog8av8nrNi77JZ5tr8a0QI8+9/H6WqNJ/VksR7lwhzSepD1Kh6lVD1KqqqqqqqqqqqqqqvCtVVVVVVVDzA0YwAuofHeM9DVnsxtjaC5QNJPF3e+CpamGyqt0DCBVe0Ly7PpCFk8LpiJg8RA4BWg/wyVQEEBEY+CKwEH/y9S+1dzsXtTCxFqKttIBh2CXZ1N537C5jNjLceC8geF71wT9TkOPp31fa+TLyy5x1SrneAef83fKJiYTGeGEL5i7x/cCWu+t0kIHNvvQorQWInnXNCFwPKYQozuREVba+md+KP92/LIyAZi+AkomZtdQamEoQSmdNo9as20ocMWuJlK8sQC/OhRmNVQyrNZjgakZhPqWCUw8afu/ApQiUIw/Jov1+DznjxWRd0TNN5PYfQvGf2LRdE3TLInUbHYb0SmgyVwn4zhONvehvwA0b7y5zc+r6JKT1FJUv0K4g2ffmxemMeLCxTIznpEmyUSRYjl/y+1xjOer9mWxQu9NgCT6lYAA83DFKYlGV6ZGFdN4S+qyojXH6sf4dqMpdmVmxzLjqk2lFguDEyqPHLu0zuvfhlw3LGSrX5APgcGKU4sM2MlFdfte/d1lgftAnTmhPRo5fa9kyriVOSbTU2H/IkNGfKu2dilOvehik2OGqBuZRjBO2JUv3IXKb5Ov4s0d5R+goRuaCEffA8LR6pjnrXH81Z6kxdgW0exgdDuGBHCcxIdxFmElWX6DkWC2A7sHplyLPzVM/To+9/Pv6n39VVVVVVYIDCOOF8woXhb4lFptuhoi9I3DYwNb0OGWYUbYA+TxQs9R+aP1NH6qqrLgVlwKlrH+0tMJxHtfPJQkNCflfk/iDQQ4Opql7spf1uVRkqhYRWlIxGwn1PeFylKL6mIXUMU2iqzjdcF80M7NTL1jCsn4Li5fY2fn+qwdDXSLeAn6whTenrXJooIf+n6u9Hdrs/10jmZw4voNzpzfxUJwOE9q4VY+Rljir0uCYHzHXZ7g77WqEjwn3TrM4JMcFwCdVkBVhV1dTSdBI1ejfpQs5bdPsUmSrU0dUJK8iiKtO126By3I015qly3HAUf5gHP9ukhwOMW5ekW0V9ufX8WQ//wd1IDKpjgEMOBUaCodBmUypfRRBFWr4/XLHwRL0K9ONto+5zTr31cmfrlI19vmcVChzp7eEcoMA8sXtdd8gswlhFtQYy2zFKZy0LluV/VuL6KgTHeRx0tGWjAPLBdWWE5Mv/ymM6cbeKpa9sEm/ImwymW3cL3MHoSk+jOs/+MFcIKnLGRaVGVht7Pskl+NcGL52aqgJVeIQUU0wJUnpElxtFPuvY50gnP6deeRvDGgCKba8OOFrwV/2GcHYicjh7Ou/YtgSBFkcenYNayaQQVOnwgTBNctHaT6I+aHTwcOniwkGxJLDk4E77zvE+GRNsu/CgtktQGqxrs79uQPFYLOwAK7tlrv47dLkv58FZ7nvkeOnY5mKBbdTdE4Rhaq1LYiN8kBb5IjbGndAMz8RE9R0se27rea0KLnuwn1SsNmn90QzavTDRIFjUAF7axsNGuNi59SzAjvWvh+dqi8vc0wZjqSVV49wCP4RucOKggNv1TKjP1OhSFcJX75ZdlfQ92EAWmbLtssdmf2hYOUTrFraptun/W8ns/jmhsHlZzHc+GKcjA7NM0ZFK00MggXFSP9w638samTfPdC9YAo5YkW8z83PcP1cBr6r2tSx9InmJlms8Pk7tarbbaf7xyCA65DxqpJQwca6yml0JQNCv2M6DtK0XDXzmNVHmK9Fa6K1RdiK10kW76X+XcDwxPAP4UnNLTNTDAWSWsUMRmdL8LsCQ2XPz97CEvSHW51S/QUFXA+U3fgl2rMLMXrzzFr1vCIsfwBrUNokm7uzFYI71Jtp9BX7LsU6tOZPLfiVJhPk9n1/8IlMPsPjS2oKJ0TsLX+cZixGKVMkZQMXoNOhs1jn/IIbLQswsfCVcd94v0SQD90moAdjvY9XyPrzpzZzKRCSWOOPSnAFfrQEoGQJ5aSQ3CqSWpRAy2r0Hnz9JB1EZJWhPQs95jAc16UasDWwvqWwCr22c48jrzs/K9lmkz0LJ/KjV4K/JjFiJguXoyAEOJlDvX719JwkyUKygMvPIRZkzqjr/E9+Mcijm+6BrO780vu0A9sXLb/IN5yP+zrJyEu5WLG9Nj767HEpWs9pXx5HTnD6rWVfI026iH/Q5ZEeAonFd0n6gznSYkfU0U3YW8YOr8Ix4HW2Yo/kw6VTKyERp+lCjmIlZ5HX/Rz845fKJieUDq6F4Fq0pgMwZILtm4vV7eHNN37IGr7rFBKeT6WjgODovrI1fAusC0wGXP1a084UtL1bMyFQIMOO5SsEOAPPk1Myyb9LgZ9JCGziavl9PYnAgi2ZQmjDnBxM3h+34euT413Wlo9OWtmnQzTV7QCKykiMzeMAEWgXpeRGuC5XNNuRubSsA5ukW/zGpJ7r7d9RYGDZXcRMGS5rW5sGTivGTCNcKaPsc+EretrmTBVpo9nhfBfYlCilTGjoaq7Vmk2rMi97EC79EJ3sQnexCd7EXpVohUcYqP83lfC0wI/VHRUFD1M+sjZU85wV50W4l2joUza/r7A0MGL6jq5UoXVXOOfkUg0UVxuWfsmKgpj+g1SL4ROhlwB0aYHE50uXNGlp8ofDTTQ8v9ojUOSochjOplfnBk/E4535hW9rvT9dGCzaYipW2L24m6hcincnCszmHVjBPKam7HTxtpxW7VrK+SNSL6zQxkQYCq1pHg8Ko0FvoMd0xsxEoWT45KyjmQEKSGP58O6XLgwV+C5pRnJNwEO8f6ynWNv3QKwNu0ic1IXi+9euQ03LUFM5BT6As5HK9zvjhrw0CfYBWn51BcyKfIqaFIUY6UHC3Mx7n9WD6ZAkgVuD0JecQh1mGCnmdzy3uIQ2MhIACgoaKqbs3eCAhoNCMuW3AUQ8ADDDDFD2WC9AMqzI1YmDWAUwjuWFZPUIK2WXgVD8lcMHFtPHrHCVgErnl3Rz//zxNBYcdVEIi1lQRZDm99AEv4H/Gbyf3fDTbOs8IDGHcz6MmEp+titMiRhBe86y13BpVzEdk1D+tmJzu/GitfWLHJsUhufOwLHmN14EwzSpQ55Ax/uCtI57OvL68vLXn5/vjgforBVBuMRRPqSKWiz2/MfV61B5QO3Nh/j3v3QuD7g+0lxCOfDsFqbURO8JEYPs06yIgVCZ86D8ZpqX23T4bIPQvRqerEEFsbO1A2vncMkz//AObU2S0JWfN6eMTVfHd2ho74QMa68MfIZlILnn4Z4paCw4Jk1gzop+oTodkrxe9toZ67IwDpZyCDGinYVCxzkuIu4Lqjx07YeUNhnLVQZxHG5lPeHecnYpEuwLm3g4+WU7aJfzXmPzq64Yoz94KLE8JjDJ5RAuQ+2bLpg2f7Yc7WOaPsCG08nCRwaDXIT5ca2tg1S9NwyykjhV2XuuFD7H/152JsUWLod4gWov3r2m3n+Xv04874R0GRsuPpXaHBDxa+5y5bf1NGM8ZihO6SOHaIGzKAi7gmDdzVZvvkyTD2vBSW1CGL8BE+Mau72Lx7Lfe+tSJolsOHc1lmQ4aZNv3wUtfxpTnJxAuAR272fJXLeHNGyk2210Y5tJEEGejnd6NH9rcubcg5zqkOGrPhy8oe3Myf6HmEYWT7szxY1xlef/VaCPcbs11oyCtzrsXbGocBqEYECqnuY9SIJc3WcA4JQz+JFRA5mH8U6kyfndJsAvCjyn5TyKbR5id9nnZnq2yGgCmlfIV8D334U3d7tTRs4xG871bjjh3uKi4B6hoidIoA4yr1t791Ktc+xbWy2qWcKl21vRwttFbmoB3brMzOvLffhWdTthBZ4kRs1un3kNNPhwHUesciXRkzAwXAizW29PG+WbYPq2/Btpzd8HTyU0lTXRzxW6YnsUGa8NfVszR1dqjN3ihEyd5KZaTNhDvFhJv5iO7QASwIQ1R14ozWLBtbS6LrQZ+TrEik5wrsc60C+BuyQPU0v+Mcc6NNRREFee/w86vQ6HmiOtTXggk3CDe5rCZSvDzH/MO3vVdJsR6BZWK27VnXkfZzZCIFRSlzJ4SBA0RgGUhpzkueJ+xI0sbPQjmnY+Gaa/qUdeOLUuE0HNnBAlpbQ0oYaAuyJhOCcmdNiJ0PusIZ83aQnnID6ksvxA5nps7egmwOR/llz0/rXA2uZ7jVm3XlTxMH6oIm/96miBq7LR5azKiGY9VZBhAebNcSz+Wh55kVVpTFnMqlDW7GdE3QJ0H8/UDy9erxQBlDB10LjI2z/wZFWoFt709R60//7q5sLOUSD77ATeRzVTRAgqbKVVgpF92KNZwoyQP76assvc3z8xTSfIKa6irWEKBxF0vi0qtBAHux97/5Ja9zG/NZE2Hc8t13FjVWAxtyxBMV0tb78BDQcfD0kbpjxgCyetDyC1hAipa46r74Y6QHdX9pw4thw+aAg5reRaxJKgVGtfRhP6dJG2vlcf80E/+qw1VbAxiwRUItGwDABT1wa20fY3o0pLLWHjTFyjYK03hSVMN2YwdeXhdJ7jusZ16I1ICHOj45snnVp/XXhOkuVEQjPGPWnLwK2+r1ugzO8WaFITBxtdX506kVCKGN3JO5oW+6gcPpWeK+alPz1/vO1J453WL8HHR0HHzh0FbTJTagHu6QBApdurHfYXSdlBg/v1F8inSoxqxJaIydKBsUuKwRfqprInQ8mxucDrwMTpIRjd087C4uv9fb4zX+nKk5dllv2BQZxbsjXF4m+CQnG5zwczzAgmEOmStbzufrMeblYE/JjZlc9arddoCK1K4+Ka6klQfMmCLeVTN8PAtX+xc2UscfaMWjkLo7mwh0FIrZaMsC/tphd9F8oQAagTvb71/x+onO6E/wEfmm74bjEBpAlxRRu7bPTm3Jum3dNIuy3vBbyCmhT9Cn/oU////0Kf+hIV+JMKWrL8sdpe3FXEHejJfkrWJlpU4HuqOSCJuL0Dk0nyvxkCpxfhm9O7brRNAkXocZQyxHfAr5RLYIONwiNZgnDlgY3rWeaWFbuyU0xouVWyyTLNAP5JbC61I9QAtZ6oQ8qslr64hpyzlMytNY9YtBEb0frqvTiFJ4+M3i3245CdBPc1xpz74VTth0AnE0wWdc5N0SUOlBijOgoXCSipM98zMEa8gmcQA2QhvZ6o8D6+O0reQat2OFrN1BOSm2LLwzTJp+TarE/x5YAAAGyw2WbJknC5xmH7YdvASXQpFN6ADY0C6LCsqUxMpnWX19chtvrqAJagPHENIVny93B5J0cJz/qVxoCW/cjiSsvH704SK7L41O5GQ7415CZ574PphPaIzELi5DDr3psBYw5jLQXbj8cP2kEwBpXA/ZxgMI69AU4AzjIyBsTkwVRnSRl6ogvP+v9/L/TThr2diRsbtJKcSGxx1L8J/HoLtmB4FSA3hj2ezs9jWX0G9fiMoqZph9aCLCu3ClpTu8xSMrRU3y0OL8IvIx8sK7W9PoYQxHeY7+o/0r5TEcvv9HxKiMrNNW1fyoDv4/78o40enyn54M2zOHvLx93pZkKdvfLy7ev/ejqTNoe4Ljn6Jglap37nbp7uM0p98jYS1pthkljaCE9UvHRb/Te6Bt2xNpe9542/7u3spXz7//9xt8SfYp4JoK2MVZmEymq1Jr3QcR///gawRT+VhLeUAJOfwc/asvntmwTvxBQdWr7+YTWtJq4gzEJBvqV2eNLg/Ph3Ep0JIW9Qoh9Lz+MjMkYbye/PE1BnG7KOR3W2+JpcYJuClr/973kxkwMTUWE9mrVI00ZsaT5EUdqQdA7r6QVS0uusvnHwcCNzH9vUAoTtKpPAHDWJARi3AexlCNoLqjMCYK78XUk5GpsQTp7tLCz/C5jOGd+Rqb4feqW8ySH7DctDwAlmdezGzelLr3ksJ2f0QK7Ki9WfoBOtsaQeM5SilIgILUFH5c9567qT/+3eEbBOv7QqHoKbhvqVcI1BAsflToAN9wPvf6MbaXmgUBZgV3HzrnGbtEKKeD3V2J6w8L7O/IOFeu/4R3TnQ1tAMIAD1e7ZQLaK4qt/4LHTDNmHZAfn6WUKy2hHS4GaWgGpKdJ5WRTavEGRkyWYDeE0gz2v1Cm12767uZNKjfz4/Tx1TOGrSueZUiyzetKuXLIeJIE5N6/5UWLkyFEJhkPSv7q5VBq6iFzaEcf4sp40OX4HIekUdcZ629kwXkSqvN6AXZGP0oGDohgMw8U+QzSto+QSSnL4DANfRdjeMMhSGmV6z+l60usplMIWvzAAJf/jBBTrNj3Flp38PqhXc8cDAwvVc3uClcPQWvQLNCpOD82HZIuKaPBOep4DuAMFbwtQUM/iCzCc8jM5vx+eX1gcAKyAaEWB2UCuiBQXaYuguDWE9UupdA/1mFynZwch3AoKD6p4VX3GjPWSwyRFU/0tHzBI7qVC6rbG7B7sXr8ukIhQYbX34Au/lSKsuh1m4apIAsEpIdIfk8Ygvz1UAtFNteq+smb0EA2plhTFbBjtepoYS09DtQEemeucI6Mw85R44uxidMpeQUOywo6Gg6ue4wkmNSp1Y6NeshmmB9bNWkcA2HBT4PY1EhFZ7fgNetOLO6LytegpL3QvLEALqGoh/uVYtKS+Et1W5qp+e0obA6UVv3cXdHaErE2NhL4y/anyVIzxixFqTvLMuOXjohXYvXO7Zn7k1LsmLmLktF6mkWQeOLizbXy8/lsqCVKEqVQlSqqqoSpVVVesqgxYXinZZLnPt3kFYILE4RzmhtG+aRzxgYdE4CwTtmxJh5OLLvdd/r3SecwGObXKtX2ZC6UzX+WLGq9GmD+jPye6+BhA/N7x+/n4pUWUzXlwzvLFF6XWm8GrxEeHmEr+zXcZD4ShILeYF0BZpLSgpSqqqqqvZDazRMWOgwuy6A4xLB+Go0pQcl1ZEj4uRaRJDEQy3YHffLuqUcwyCdefVB2Y3wqdltX47JrZ1+2r5Ebme3/j9RSB1D2aMd5LSxk5ssZBA2Ns/sf6Y/1TH+qqqpj/VMe1FC2Zc6/7SCHuGYIkrPMzfwb9AwR1/aPgl5WsG3WFWhsl6RntNYF8xb5KqFfkcQIsr1gY/72k4NEP9GVSLZ0ixyOzDmrTNcfpe1+hgrIQjCAq1zR3LVx5xNLhuNuKQoeU7nF5z8qxQq8WxRBhIrKtvs36Zv1VVVVVVVUyA+fBO3cUWHchpOnA/fQiwACxybHwn17tx1gF6QWOW3W0ncZ9nlGrLjTYDsJHmD9mYXhHKis7JO0ZpZsZJdRBEuRSzlFvlwI6KzMHex6tEIq11UuhfIi6yAKhbJy8CAmKTghh+IOk68UdemB7R0mQ/mn3VtAbMb4twB43Pm1FwG/CvwclEp2O2LlPFeB2hFtBlimev+Pr4dNMo9py/kQ94HiL/6rKlS8gYG+gLj/06k5kGRtoAl7E7oaT5sump4nCM9s5/LWks3CuoAyNgwGEkYjw6kd9zoWwjdPMXAGOFfcxuNasu/gNMQm6PMUuTB4jcXmfMVOtjNYwO1TROUNJ4YDKYfe9eM1iJ2oHM6KJsdFNZJj5w9aKzjC8xB3EJAMQbehuJWzEG5/qUIzVQnXDXKGBbu4B1n3WkNsWc13XrnZeo0wtuo6fX+5H7MRNon8JjOVRF6Z+O6LXWLF+aX3GKhpeX+uxNteIMOpKzto37II5VMw1ANnvkrbSqelUUVHpLM2SkPKv7oQCaTk7CdPlCEPkBrVVObCcDBWtdDiHdcKXOls2jAIPUdUXVWOMb7dq+Ibob+wUYssqEOsUbMQV4gYJLxIq86gsrCXNE3yim1cJA7mCigThxq+fAXeyV7BnC3yNJuwMTEE8iMkqOwsJXzgT6DK9spFylJjKOA85EVMKgayd91LyCNauOD+UWUHw975QMa3h10S5BQ1d7KtrmqKaQeSxZLtiK1wMrIC+cDym4aP+590Xkv4R5pLnsO9BaTOjGAYLgX59K5vUXMK4ZzaL9DjZxkWAVGo4rsWKUREKySwsqIRJY9peBDNY1rdngVASGXNqg7gA1hbDYw2q1QjgEIZrq7e8Xs1EmdBH/lLEK+I7uzfujLCnlr3i/QCKXkf/6ryUJ0xtF0YmGXXcN5f2g/6OXIu1WH+KufcqxTRhMa/6dn6pMnEmIlccmUShi2kBuczreg2Oo/L73EAzYxXxAdQD/Y6349JJKMpIjONkL7xIaYOJuYVZ5WY9ookwl7jFDebyZxSCiLYAZHmP0VabU8S74AIxwof2L3AS1I+1zBKBwXqgYXF8tUm4krz8K32yzxiyqdTlUbotpwSl9o+2dXW2GnZMLYnIdPfqugbrMziWtEERcTJe0y06oWT5jutQPE/eTwNLQhLgqsnqFB3XtyJ2cwX2BDd43F87k/cm3/49KmXLdtZCL4x4Cxb1uGru3zfgzuWrK7cFOgPTHA5ZXF58M1bfcwVujnZMK+TAWD/JUM0QaBBb9JviNvaJsOD1Dt8ohZba5zKU7ALklTaTFv57Jnwhzh1VkufjVVizVmx18LBj6+pJ0PzwFjI8IymOEVbWVQWs3C1Nx6xyEwqYFZVpeAO4l9z+8PWOwHUsAr22BlQesYkgt9YvVcRIYSqzWU/s18YmYABgzMBFiHIiaZhHFO8gYYqQMCePJncd5nyi3rwvqLHukzgiXLc+MQL3PiYlQgxurHHNrw/aqrrDy1VYrYmgVdf6ZiWtNbHOjaFeS/DbK21OlHLbR9u16QZdQ0h0ZiqLUZER8MbfTC7cwQ9M0RsM5i+kSGRAigW1yNhIJc8Yg62s2yIeKe3wfZ9Ai/fEaYAdMfB0ylaztEjfy/EdM0x+HHyjVls+bCsLaeku8vxeGCecJSxkfkc15s9otY10AhLcZ0kULJM+/l9eK4yMNUxXy8wNlRWol/nGfRvNe9njZ0CYDv52+7RVWYvdb2iSYQnmnX0Pg7J+5YrXFXQfEVveYV5DhdbXU/TrvPpkk6sUcuoIy/eSV68Pb2Q4QnCcY0Tr3HhaP7mk3qKeqFmonOeXIQPOqanLomsQXCE9qPukn2jQhUEPSjXAHNDIUnGkcYCBoTCIZxxPrV2xnT31GwplzBj2tfpwScCZxPaSKIrdlj+kD6s4+OAmGc0hNkiR7RBWB9NpDOg//////+Out0RKCne2wButD3cNc3y++SwTGCIkEnbwBmEaw23jWXu3zk/U6kONBTB9u5pPkCVQMaUtZCb2lLXOWtKWtKWuada8Cx83azGQboOUmz9NhO3nHHCuksotNeSpXtU7XY+/gYcbkw8W0HNQLySCHqTjB9Ubj9ZwilBG4v7NnYYRWzk3XuupVPwD1PxN1kG0JpWk4sAZ6bnzLduDD1G1nuTDcc4AOFWrByILw1zJDQOaNgZOdSOTlLtM2wK+FxPkvd5clF5TFulheOA3tP/0rsziF53AAfASh9Y4dcr/yt/m4VLYQB3kpIk82z5gfR+iw+1L7tAt/SlJkqRPAs8pJhJ8TQA/U1s3mHzeZ3qNZtTXSvVj8sbAdXEYwuvmNFxu0aKvbQPC0M2XD8QPMUbdPfiXcyc7rUhSukzB19BAyB1bgHwsMN3G4Hthfkub+HvIwmp7AUekbmXJsUdvzhuOxZbdgLs2KuS8oo3sgxOZTtRe6hdLue1+KI3aexMe5aYa9sMinFojrAHlkubOo8/6xJYiUu5JDPno1GAmlHZjXzdeOqYyaSydqc1uuu/yT6+Yxt9DvGKeD54Zo2mnnqbWmdWT57xbwDbvrU0JTgh6cd/GO80EGhll6TL3rwDrwRwugHNPxXfuGoeI7sApO5b7UjKxruvTDm9V0qd615oj1K/mZawcLq7bkz64cIjjfXimSkd9brnGYYOCLhgn7XBrqE41jClI73vjIdchKYaWnB5IU/7jThxk1MZcvDVnHd9bJBb6uQYl41u5L9ec2Of5xEU++m+t/t7wdfchCAnZMmY0ZXZ1URX640QHTlJU/4rvLVHy5UMicgCPLcN7ekKlye7xS9qLwaCelZguIzT0SgWb3iJdU2/k9ywsRN3DkQCJxi9VUTNHgxt61VCv7XjdOfJm1gd7TvPwt204Z9N2+yLAzCXFvaBtwaNIxQLiVcnT9TImVGiOC/m/i/SicOV7QrupnOvsp9ap2eoS4NxTw4Ecd/ndnzIMiF1CUl5CmOS469uE36ODNunP++U2yJqNqqKfwjVqgVywd9I+/F/EErstJA9rX2s+IyGhe4diW/7EgnQnloSPMzZuBIf0molJT/jUQuPnuNfVe/6wBbgQDWAg1ED2FmAwH6R/tnC3ymj9MClxKaquRmsFmBEldyh9V2/9VpcwdWiCJtLWLmKcADrF6oBVYWU27jo4S7GOIXUGGhrnWiAznR3Os/hiJAudRmlfifci5t58jE2WcuCytl6QKGHRxfiDFErgs7yCJA2eLx7WJRQqJHWP0m9bSXUU3E8TcHOy68Pub1NbjRZSNqaZTzk2Ph8FV3H4+S+wjQW8aXojFKeOIeht1LQ6CKLfVaqMdLVbBoIQq0OjxI90m/d6S5DAgRVLuf0pw9VROFv4Ycqfi4xmLGgZRJjXCRsRvWyGBN8R/zJ/E1zECzXU6poZzcs1E22ikzGLJ2eWTNOvrOwNKUMEWed8GJ16TAq8Wn2r/dpo/wL7O+R847hzhYWIkExkZYxcnTGTOjBZ+I3dErTbNLs8l2tLcNRYYIYdC3NzZJr+MAuT3j/tImp/vBxft6RKKf8MKBXcAfU6O9JNgrkgFn8y9Qk42NDXNWRBwUpeTs5uBZUFAhDCnKZ4ucZGLcoZkPKZV0rbzrGqNULOLHn2z9Nn6ps/VVVU2fqmz9NkBXB0UmLFh1VOBliwKnYBVVLnPD4pEccG8LHf6wiiCwTISgL0eysl+g26Q+Zch3diQJoOCGRYaS+dDNf0IlDKuI6bS/lAYKgtQ9WO7VS18yCF6MsrnBbaeP8GNUiWMNDOMC6Na97PWbfaVJM8w3n90JRRlliIvSy/DVGvC/XG2Bd9UNBcpT2zE2uw3XQME4mkxciGzRXlbdiQI9KZK9ooWlMwvVo+ZjdIyklFI97DbxPz7/CoQHEBSwp9hT/sKf/2FLClhSwpYUsKWFP//7Cn///2FLCn/2FQAAAAAAAAAAJ4RAIBUAnhF3rTwTj2UPq8cjkQZY8u1O89K0W8JyB6QyFW5+JyDaKP6l7NTQCD8xZ4Z9FSZfUK/Nax1Eee7HqRHqCKxJmbG8aYdV2NOOKBOUZ5OMjS7Ng4Irk7BrPB2STlgEyP9wBjxMHL2815yliWh6tAKWlpPZI1mxHCDR/WAzwpqVMs1Z9f91hnKB+igusAG+FeWuHKpwKbR5saCBZTwYmn7l0ZiMjFwsBbJs+Fyduz8lxkQdBU2C2pvsCUgHh0tsusiaaXxFcSu3NRl0cJ+EfvSiWt6w7Srsipx8w6/3hgpaK5J/NBTyQJ93aO6Jhy+L1HpaY4PfHuDIH5uaJZzLHtaH73emAERQCG8tgrx6bC+kl6i76RM+/r4ZT3AaFN1CRDmoJkXE5TVx005uQVxYg7zIAZryprqNRugeyBjKZGqyNLTWLKx0g+eZqz3BJZ+cu/R59gw2MrzEyMgE/zBKgW6PUdos4cuNHLnCOu+Z090mBvlwCDOfi/OwDeJPkyJBi42/fGJJMwibTR0KgCKY7LaUFEzmvjZPDDN5U+hLMUCQxNI+NjFB9iixighrA8umhaAvvp3RGFJMcR5pCgaV5u0XztTANTRjQkU3nvFbSmHIOo/vt4gAbr+dku9N7rkXLZPMA6TOzrJV6zNNSI91k2qtWEOJQJTYrd17MNyPtg401Cas21VDlKrwkZGo5QXWVtT5FvF2mIhCmIAuQJUuVB3gkVHNwpBpCrOi5V0hawKo1n9n+qqckcP9VOeKSLcgHfabGtgCFrofNFK0ZexvxBM1bHkdLMmpH63/wU8BCBjgiBJjK7vmPue7o7n2Nasaur5ZMb4qQiqdG+nFYXS0mU/+9u2WwNERfC1LyfA0u1YLb6hkgFt88+pBJms6KwNQsajik5tPZuU5IziG2wOGjK2RSqq4E4GeJwtnSExsUfjszIPzepWGLilUK4/jSTQTlwQL6J17CxWyIWb8iwTdfshz273J2AMibynG0SYIE61TFcpBuSrwwm+C4wJeD/0C7IkchjQDT3nMeDOTWmYwDNXHCsqhd3oySwpbXZOQQ5hRYC1LQSau2TFW8q+7ST+Ht6mHNq7h5qfopQU020KG910VZm9+WWdyVKAnatgTMfrVebF6O3s2xqsqv0VYqjlpfjzhuMJ46UGRRjgggGgEJgmq4Ply7seaphCdsFxpA7P4YQWCv0JEG7vZSV6ey3sxyxsP1WeDNvTMggCS/An5nYpvXPDaTTHqRgnSCh1UvMsvtisiSMH1iki9bd8PrnVhQV4kF+5/0d2CDdx8GR1yIHH5QIXhc1aTCxb6GcRqn4ZLvH/VUDNJPQkYBwS/yrThlKoKaAXtQmorxBYg3krQQQAHmv2D09CbLCa129HbthUGhHNv0qW62iBFhIg0i7Hq/2oGXAwbn2Slx9/8DLFBRf2lnqOqGLml/KkpSNrJiyc4auxpkB7gAU6qBsolw20D8TleFHcP+/VhFhxsxXXmh9hyotogMcicKQrJpxBIUaQI5obKWv9fTzupfm/53xtbZUK3FFkjsIbPkpO3EEU8RSEa9rqFtBfotgCBSnneFus19wP4LC+zaCfrF7OKEPkUO80g2pI2B5RNAXXbGQIBIIhQVrxnW3h6exXW41XsFyHdzZjzjIsNWDK5Rpy/hsqTwqA+Zf5r6Ieu+9rNVDFnlTkAcVnDCTAvlav6IiS11i3YTs0ZHEsToYQYn8G4JKv3I+yRkob5ViudBBJR1zbVKOLBMngPDR27Z00EfPy9q3MV6ff1Mfhm2Rq39fMh+wW+vSWDPz7hloRHDsbrKHDvjII9A9Mv32WJ08MfnCfI7dPCSfgiN8mFRtdNHVF9tZs7TERrKZhDfAc3Nk0x4/Tu8NUfRFhcfcfUmDHwqjBx8xKT5c+w06n/CPn/////4NgAY0RY2dhyAEUm7NlQL8WoqiR3wuo+8gQ+nLhW+16ejEvYP81xka8oOQRb605oF/bGsxVZnqSkVSYdjdR2izhj3Qfj6ojqXEn1N8I0seuhKz++O0org+U09Y/FjfizIEHUGDEGPrrLeyF3lSWC4YzDo9d1i+8QbmtLJoiMIMqUoMBiiHucUw2HzJw/kf3tJBUTMz4alAL6Av2xj9YAAFmG49sFxFl++bwVLUweAuOddcNbeU1dBN4iTljXYdOrMfuTNcdZ3uAklWGTJV9knB2ZfzBhjCgdWxxbj96a9q6e3UCYOot0p14BPIHTbAzUyV1Ls4VFo7zOJ3Z1k7//fFTT/0J/ehGfn9ELGrQCzwasVJiTJauMAMt0fch3sYmkwd8yBNv5p/KoUkY0avlVRcOmQwvXpnDxeo4pUR9JRXnXJPtgiv87JSl9kQEvIYTPSpt8On/rfdyhHynUC4aZXks4TSZxXrl/Lkd//+/ooB1II7/W61QnUmQTfFtbaAPsZkmowYLrqp5Lv5q5Tf5+UHbLtCds3501exESDoCzxmWQuIZ21xk1+Xu9Akdn4mdarAbLekx3zQ1BWZcE/gkQyk0J9n8MHlksqZ3g6qoAt8B3B+XujivHh0EKWx0lQc2++RWTuHQhoesODGeTgVqwJ5HvHs7JlStADAXhwZ/U4SQUCTw5b77+YKawGlmQo+KXjIJBnkXSk2HKqayapFoz5HEcWyy2lJPeFN5mCBMzUFkL+OW5UKV/P1u+HSotesX7B1FKOOpfRDv9Z1q3ah/sJDdi7iNmnvGJMU7HSBW4h0C76x8DgBHeZSDCNCF5aNFEEgIanxCQy7ycPbDDqm9qsg2AYdiVuKgkZyo5EmKTIDl2f+cCNcMCeapCbCWfIObbl2h+wwg9Eky2uqZi9PVRbuv287hb1C9ugO91VK7pEotEY3IT1g8RlQSE0Ntlo5mjUb2MUKF9wGHf/mPp73SzOjmHwHmKJfE/0BkwRLl/qP0bXXOI4Igg2Jlr9l1gWMdXh06UyRcnQjrt2OH3K++G+YW1NMGpIgbyGSmro5XVBzaslj+CWl7pfuJSSLSE/jUf86XGAIk/uyYOt12LCJz5SkFQq/qbthxtL1lbN/95PWFmLp2eXJXSQBpIDFOxkiK9T7qmWD7WKGV70udtRcm8Go4flotEbodbRqs9rHzI5wic+vgSyKCOtLumZfrhqLiHiUCrY4lXzD1E3wkCMgIwVL8r3Z2jrKdYqyxI3f9flNoiekf0gehmaVQpAyS1v9d0kG2kCPPXgsiLKaYg3o7LMLnnOsfX4RQ256U9TSix0gQEAEHhldaP9VyIJp7Igx+8/oPOLJh9PfMrviW7k3qVtshFDHmYLNm0u84AAAAyQZIxYSMH7B/tWxajsk1WoxjQyJu9VxkYOTHtv9d6aYtO7khWf5Jcf1N7rXwIrsLwTluDRQl/SQYAX9IccbBz+16hysxQrJm4rTmeZ2hOhp1lD4/riNkNi/n+f6GkUVJ17iJ1JL2cWhkYnOA+fbG/AlzQy8znAP5huLhEYpVI5CQbDLi9MFePj7arO5FGEohd/AlTnKImwkdoDUYtA/PpGR8DKqb+pqcSRF1jqMwtF5Vte691wJuuYwgRueQwNp7/uuqSVb4NxmOii5ff3Y2tKaSQnX6SjZcf1lZlw0fuC+RF92QeiV///s4iVQPzdAoi62NjndFECbojgWyh8G4TX6E5fqIz4Co+lvnlfH1anj5/xK53xN8mglyN5osRyXJhb3Vv9LN3umpJH6+LDei1wlON2WWo9kr8FdfHpiCL7U7IfTfukFrn+Tv562wYc8oO1GDUXQnLh0gZ3ZdUMVwDOPeAsMlMcJASwAPE4JOyfuXJ6e0ECKkwmkE/tW0irYklAzSr5qDmJcCAFz8HxD1jWAlb10UJL9rCNBZsj9otYhyrXVa4pE0CoxBIsvrkIzNWO8THX5aOBN5acKxn7JX/f7F88aeJfTtjvWyrpmnKpgxVab63n5+JoWcvztooZVUttX/h8JBowBoq6dt5iNaWpIpzHx7ib3VZ8wrtv/0Aw/OWNhpniBnspqxKfXxJHXpyP2JCntqsJJJXr0XQNW5azNCqHDtMBuFVfmhZSKmAOxDQanC2Bmr0AakLR4tIH6t7eN2tEyHTlzdhW1a289oZ0k16PFu75fNZQOC9cKHryZ5+gai6R7HYk5g2f/tTyjvkfrbKg8J5R0zQzkuYLan+SIConlobZzMTaqFRPy3ih/mUqE047ZxSAtqY6i5ob3A5dXGdh1Dw7mq6XszprJSxS3dEnZlhR6hfVPh8OW9jsQ/Ld/jPkFWylJY9HKMOKhMKErQIpGvRanLNZC60bgmNpyvYmmmU++j6Xm5AzSAei3VFlynHeHQhXPh3GYpk+Yf184340L+KyjIPLEGaA8u3XNvEPLh5aVQJVT9LDHnZhgl+UZZdo2PuZz8Kpq9iNa4k5h9hWlJ+Hj8yCccRdDtrLdGKuGmndx8yrLlYmCFasAQz9paWQEn5Kd2FfC80ypFxvrfLYQZY6aZh640c2ZyIIR0sZPRBxfiew/OH6nD9VjwKqqqqqqqcP2NuswfxcWXedG6azgVOgZOu3foGL1zlOfLkhMPnJfxERnJdRM2Qh520wa9o0eZSftMrrzrsKV8cGcUoTmmNYZqesSsb5W3PWHlNmrsGX3OD3r5svWbfaI9ej3ldqv+pw+uTYgaRpwGKHT0XZpmcvDuN9HanK0BpRuvofcwqD3BvxybYZtgkPb/hkviEdAY4+OznkFPqajY4wEmaW/1+YMJcs+AVpCxzEsLs13Ps3yVc7TycV7f8p+LVe3x0g6f4ceRQG6e50DX/fihIt+Q+nG9CacJVdyC8Pf911LYyWmobv2Ohc62QM8zwhd8GjdgFS8wkWxmfGoedwY02ag4sV/W6waNf2eE6JDjc+Ha9CbDzO9IEU7MMK0E3mLKJgovf0xVzReU21n2ZiKexw5PygagS7J2HAU+h5oYhPcKKbPa4NPlMGKjDA9mHAJr1amBixm/6iNSDVc5wvcTHXYNBS4cbXsfKuKBzzqSVEl11ypDHW+CV3gm3CeV8ANRG7yCcbX4eaJfraEOP0E0BHM9F/8ANf33gCfkbxF1YBEOKPok5skNXMbCpFQbTPSPwYXhgSAK7MYL8yQiTLSqGuiGaYFZqc/PAdgr8tQkfZTnV/Y6v4mNeLvcDo7S+R8XKiXa0SD0qgU93a8GXWGSfSi9abz9E7ri06rVr+eE0U8etiG7V497g5pBIh1vnLHtVlEoT3wuVgidAx/7uwAZ1nJDxdHWz+e28PgnVhH1WkeEke2tr5K3zLIYfIVkreUGVM3ElfkkKknvqMfrju3DphCm9CwdUAv8CAmDf3wSbzgQsFwfaHV2A8Ru9ugiCmhT9Cz0ws9MLPV///RPXbnQlxTuJVL31NaMdAU1sozyq8OqXtpHmcHOIVb2diqcQEZ2AjKBjwgMLwrRGEJfV7Hx7i9VLJz6m79UHTym9uFGcgE7oULTr6kqJ5VTVNinJ2UwZE8XC62JmSqjK0SHdgdpXfmbusuitnbRjC2DnYMFwCeD7ouXqq1WoS3szMQApT9cKXKAX7tSkNrqjoL3r1s3jDy/jb5IKZ7aRU9MsR4wYLEN2CAOM3ZXbSLYvXm5VO/LlQz0nbMoTSi7/g+BOTG93HovwnTMjfYeFPiHp/hSM4VTJ7D83vybP8ty+ztqt/7Mes3oip7+oIKsREaTQt9m/DB6TbV312p/jFcTEhdiFjkCNv7s5/fUYbpfxass3gqHrebT+2KSiYlKf+xVqSeV2CKfS8AOBbRJqpOJwQvVfdf81csrXnhwWfUL+celqJChEU/AJ66HLHI/Ixts4cRtnoCM+82uoZdOlHbkVJsxVPAqWbQjX/A0pi8WkEAqHuEEGqVxnWH81KU8EgRObUWRYWFoiwem5N/6E4jxBprxwF0aG4uvgSU0AABKLTI3B5InYrBnH3Uy9FdCqoOE7PpMa0FYpVJIF4SewjP81VRIsmyWPB1+bEURhLyyf/GHzbRT1WnlUlCvsixe+fXClbpN6pD2HWNllFStoKa/QXFQYpO0FIBQpiOx9LetG5u9QxGHfySwPSMvyEN0K6tGMgW2iCBtIaffuc4VQWZ7QH5S9zEpjMblifupmw5Ad6skPpjZt9PQTxiNw7780H+i+EJ3Uboka3OYVwyPFbbXUkjlFbVE85906jgdUzYoSnUJUL/LmouOXiwhPpZYMn44EJEeHM7fycIJsPXPmVsw3mM0r3IOvX7lRTSzXH+JWcBXyJToSshbfy92EQZYVtEWs5/Udt0xn8Ny8kljtBlgI7t3Bo5gp9/0F/4lTnOmCOdlLGqG1Kro0xnHeb4y4yI2DKhWt0uUE1PUoQTcQ8un6RHXoCoTzKdphJNuWGHngo+uGH1ww+uCjzxpkt5Mv/AxOOnCu971qU1NTjcDdMhu8QJVyGy+rdYvMXjM3A9UvywudvSamdljK6ZUQZcoA8f3eBF3SWD9XdBOfJU4qqZu71RexWPqVBpaw/Lr09fPWob++0Xaly+fkdebfXEN5sZ1CzFZJBf00zgQ0BAO28rp4hL5bgrIOUvqFRFEumDSwnSUgVt3OPFMirIRNkOeaEA1WvpaivK6eUfCPd7I9iyjpJK1xAwxQwrvtU6y8S928vbegKHv4+UNFUlZzPDCxASvdJn3TZq7cysbrTWwcI/hPFhoLq3B6Pe4rwxYAKmeqk0YDORXQNJWq5rgQsgszBj5mhwOPVSu7RdH4mPup3OWCbGAC2IjCsrbwrzntTRMjf/ebOZv1SVs8vahtpz0dBTAkvtyB5eWYhkBg5m5WiQgGEXAFiL3Hl5tkhSbvtBnx2c9WPOl8eMqUBuhzBOPo/jg/mwuxp+W0D4UDXfSZAq/iXG8S2wqP5gptVfNb57tduOSo6oppMaaMsDeQ5uMwZxxwuO0H/3tdgqzjJozJg19n9aP2/8Pn/yihdaf0gQde0kn7F/3Hynrlpk/WlK7K+lGtDx8N84QphBHGmNm402PMhjSeKOEgpPf36HFwSdEdv3R25FpIqwvDBy6kH+D4yQ4FpI6MsijKlolsNYaCt+ytylrNMgN+MK3wxPIGzuJJ9LmywhayGFTjUl/dhtgW7HS3yGT8OV1Aez0vhT9eRk8IKaVXNiKuPDdmNuh0g8HnKXBTmWfi1A9wH5v2BJpSwZGIrHPs+VCDxmKBWS73i9V+uJgtegn5zWaglzH+C3gSdec98UWM9fZ8O3rroOo6Jrhl8uJ+Brmz/mgWQgLMyFntolK7l7vo0kLbOfCXheV+Pddo1sulRhDQuai1NOEQJ1SBhHt8p0lBcp09MI+4SAE2/9fkWqWKpNjdr+VhlB8Yu25Pd++5WR38zCiiYJ6K9tfokMXDX4G9UBAAAQq0iezMf3VlPJyMJBbPLudAV1l+kRGRiQA40H0+/G00NQj6USEgqxD/ufm6c7/K0Q57uDNLpfR91iUzTnSbFtxet7Fznp2L3eKgDtnu1rVFE6PTXG+8g6Ys1dErD9Vi3wZ2y+4k+A/phX72uGgcKjc07NpeOSkeelxPoIOS+9SP6ImF3dv3ve/0r90IuLK88R/WhGTLZMhOe+PSudhUZ372Fh4p9bxqDMbbTCOT45wjLQ4ex1WAwy6XJmBVr2Bn067ddNV7vCt/iMCOwQLx/m8FJCnRvcoJEl+OhJ3gSkEOxdAQ38Ff+rdOYEAXIHdzxiDyPLZyTtIHF4iRouA1kPKMXEUbEPcLzS1EdE0ZxpIR7de1IjkIQJxCCNH2cR4GAslh78/383vVH4uCw8aF1JogMFJDtlEVB41zSJFfEPfjrK4bOQk/ZGD9v1+hjVdDLW3D1nUhVrZDFYSYSptoKI541V+hX4TZNWsHWKe7uVysyttMB4IajxyBCXCEIUTXAdUuU2IIIsFuW/fNbnir2PRgxXP+mWg0N44HK5TtLZydjgW8RoyrMGmoeooeLBDOt5x6wRxMeogkEOMTyIEf2q7byspsaT9AMIJzYX3JWYdWEC60xG5k8lhHqZXd0WEOFxwyZh1e5psWsszSsrUHQXT8gcDB9Arlt59+qqqpf+zZ2/TI7m/SD2KJU6Lsx7jW0ARtL2svKpoirUyp1XqJqUDHDwfXDqI4nehNrvim/g87Jf08flHtFUm1Rp6NNYGJaoKuKo1MyfFsNvCBcB1C7FC2bSTULhAJp9Y+zmcG7rbIqqLbLGpIVb0bToZPqKQeKcAjE7ljaSwGHWNOF2xi2EPDARHY30Scta5V5biKrnC/7UBvizt4aFOF9IvjWSgg+5sVOU+cCubVC4jVcdMiu9TVmVnkxjBze4BPyLtsJkz2PkNSDln/d9fk+Arv3zyCT0XD9aSF7keVaxir2GZ0inV+XBf6gmV7cOLP6ximtze9CtgnADhytejmVsV969hlbcl9HNeiALNCtc8I4IIiPp05ine6uJ3k145RzvzfMXxk50s0C5tNwqXAGIP8wSRJWFvcxanoTdy6mWlSKqXbfITy9cwKVIAC3LkkFaKUTu95Rixg2wC8DFrVc1PCNtscSyXRowZCMuzG7ZvyiDth+jEiqmeEfBTjbKORTQmW6ZxvlX+XSTzA8dNFPkJoJFGUmoaN8z8yMZhl61sI4jOJHYxE+qksFzYoKPVSxgaONsw58Xmw1EmTm65iEY4WPjzr+zRQDvxODdC/jXKaDXRoCUkq+2QJXxQdd5v0bxpejRFFdz0m20i+d21ZThvdH0ywVbQ+PbtsPgkMIf/msKSu2PSsYg1trv2BWgkR5HJe/HR8bRXiGtyWs4EGXcLOgoM/h7SJ8tPRQi6tciUgspr4u8gXEsfdFOVuzB1UGw4eKVlJxxlV+NJWU40E7JQoxeHWZjVHrHtHkpWJCL4/Q+IQkqEm/42YUNI5JFPlPMEEqkxzp+jKhiDwvI/FrbIIUfElp2Ft1a43FT3CNUzMfv1Vlnb1mMlsHohZwtOPXzfA48FxnzJUw9dUXoxPKEOxgNuIUmowHspHegl4sdw4/uSsBa+UkrD3K6tx8M5ou5NpeOWdCDkARhaGxroo/URpSEfaFsrBEvoAPrPqTpctZg5xLKW6EHx1aoU/SR6u2moQ1IMu/O5mlRO5JARAZP9ocDHnsXeml6esWmtwEKiB2FgUnW7osmwx2vIgL6b3C7SSef6XL76wFbIwZTX2wcZ9j/TtAJbgXKGZfJIZAv9pdhBpzbLqsiF8bplZIDzm0dN1qJZ436a5yNj8M9/leKH5m0P6bA8ho6ODY47ISBtsdb7vmI/Vb9nxJy8wzZSgM+x0bzCT/rPjtLhUuRBAsle1/FKU6hXbQyvo9VNnrSx2CFJC0k7vjo0XjeArw687r5NHKxyr4CadQRyHFh4cokfhalva9EsYtai62jux4bSWHEX2HHjpzRaMYu93FyO0LayYcZi9+n0rfxEQXpv0Y5x18l95CRznHhbYlnmspQ3CUOaFLPtaUf8NSkopVbSeFLtDb25wdiY2PjeEvG9SxQtb+h52mpj8FWKkYhzoJxeiO4h1iJx78bVvEVLonDlYFW5TuD4AraEzogF07mPoHKFSVQL13uiJJMhnACyTqX+Jg7T/boxG1joLY2SACd/1nOO+ej3/lUtQevg5OCkFCvigzml9WMzoQsv8WGjkf7T1gZ43mCdXZHNa1a2OoRwmcnMA1dTNe/rAxjBBaW6SoVXik5prbEsNtwgDGzgTFyDKeLkOPoqBF7hrgub25zwmwVVc8YbrEn1yR/c3Bsv/N5ndzxuFslxNzudHO/cEw4bXdpa2IbBew661xwm09kip73ITVBD46Sf4tVCqqqqqABrzsno5pTZDtd2QdpYa71M5NIJ8nWq88Y/hGXkbw6OondOt7ea70dF+X/pfKEZK6QL53BxSmRAbi8Vje4uVdOmvRcUxPYHm8+5oyoHmAsT8cuUJgUn51NtkJH85oYaUKWRQff+X7Im09/bfwVq+2oj79pKj/HiapGVMZ9DCRVLEXsLndHAVbLjCRKs80szKAvNl3ogU0ek6uRvcU4hWqk1xITFGpS3l9YwOmvlc7K/JhSSsmYc0wfafXmcLpTxxa3tVmh19Q/Kw1Q+plsxYIKKmTOmB/tfGeV76xvOzE+AHi6+P4NLdQyokd5c3wNQew/xomfXbd3LN+e/kXn/Y61svDIOncFilioJlnDICtsEw/xg7Dhjy1UDg9iQuodJlm44442c1R2z7M5h5afeSxG9ScckfYpsy1fAND/RhsZ3LYeU/AUJmZtjqfXsH1i4FI5yehYFtAo+LX7/Jy9LqwDl0au3+IbBqxlZguDsxqfQHGNloyV7HT02vGRLRfFy9DDDFk54lxtOiBqcuOjyJ0idwiLNGQUrfx7Xk3ugFUhW7r0knYID9p6fuxyyliyNRpYcOwloL6QAAAAAAPP9MN+/1bzcI2TjwDEnUzrKuX27gY0AIGsdFx7lllAejEJCYOA809lkMwfgLbQfATf+4MaODHN4EZFLlIyJLN/e5tjyC8Nc8hc1lnFTs74GAJU2MVYKYRufn492nkjX6tMld9mSKzhFziZE4AipNlMWwtxZk5iv//mb+LE5sRujOfX1+SLnexlQ3vF1jY/PWtntLbvf7JjPwxBxdakHp5nhFacMJnwcgzh+35ClS+t97y2YmXTFRrT5GjjDnWVyHzlHnVO7b8A45ILDZGoBzSba1ed3yyxubdJeRDRNyAaKr6oF00To8wj8dsWeaJmIzdHpnnqvXCE8Hn17O/8Vt7jtre7ZIzN3VBVQKmvPEKiCqIeYfAFWPMqP7hJyLbBywRgYfPxt9ozIwMlwXTIzEJCo6kAFh2NdfDc16TMDJ6DGr6QfoAKLO6xnWhsT0WHsJaGgeppcCimG8MQOkYOOBJKx9gd826KQTpYa+EiLnMhyR4/tZtGtTBxY2rhGGHl78h2T5ZZC5ZJpEWWxSZHRGzm/YgYX5RJWfHaovsm98k4ci0TrORr9KyABJr6cU5h50UeQKtVWhNL8ELXlvOyJpMYAes8Z/gZ31OGo97jAkLkOv6iE9JvYhF4ZZgb7VvP5BQA8R/Zp1r8DHoArZaBjizojU78a69YclE9VthSaLXofTugiVsO+JECf8bv8VFa/L9LtUNIFsRAd12gh/i7jRZ5oKok/KquP0H+KuNwLIe+7UuRtsufA82HsBr+siV+2+XceUxfAYhTJQAp50BtrBhvoa/Nkxu9aGVBS/Yqda2FlO0bX9dsHADkZ19qPcCdT5tyb7wlqeAyCwatN6lmbwJ48a/zDG6GkJxH5uXoPE7CIG4GiK/cGkWWXa8odHPB7Gs0hrj8JVgfaYARhUOaA9DGaVCKuoT1YtpzVfX5BY0Ug1vtkrDDT7ez+p9zUyPaPESmkaw317XfKuETiKLtZCztQO4Yu3fnAIVPcOpAVlglI+3MbrS4HCFPxUQz5o9ISZMBVLxN0Y+8jVupgt0eSLVarjrcRiodz0SYm3VUZUZpz1Ns9GuFCwk8TcpLtxt/Jedos2TOrU8hM84+UT8IwXDzqv9XMByVoUaKp/l2JS7+vS7yvEFtTzU3Yp7JfNmCWJQZgbsDkmWCJpwwVQdNC5F9EpoEeA/ZkmwBufaXvZHGTZCISw49KRWQUdctYhYofwI7XLV2JXw6xVw5npCV9rAyUlIkpVVVVVdtWEnWEu1VisuERg6rqQmdG4rgqAe2tzqslH2BCGZS7RKva/t3qOYsZo7m1MYhV6K7+Gbpfa/SCjfdXWBdQGxCGjjFyYQowUgNwQE5dnpGO8/sSALQLxXNwErRhnq1tbZ8USBAmzYRGg2XML0qbLtUQ4sD0A4Pp6REmOHg3iceFEAFNUU+kjlFZ5iElM82bpnU0klRqM7ESuy1+y04s2zSpOYNDnwAoNrErpkscruyeCldczw2WI71n4xzjFIVOBHWHES0OapeGz0NX6HVAeAwh7V+tET7zdAhOQQZwLNWMhzl+v/8siKg7lFovjWehZJDnLZg0fLAMkOCMa0oTAxdfgSuKrj9GSN5sI9xykBepdWQCJ25lTVeEhZYguQZwKbfYqXTPhcvZpmoJ6CNp4Jaj1SykHpqufpwfeRqw5UqgPk6+/Irljn4SmeUSCmdidZtqS6rjBD2a7S8TX/zR4iqzcP7wGRJzwDLFq4JFb+1HE8wRy0D1pELXga+PlWvCZunPWTE9zrZlL79SD19DTNtGv2bjiohUpCpVVVVVVVVW9jq29Y57yFUYNMhH0jP+i0FMb1FyTCd9ouiKN5BaheoqWt8hVVjiTHl2DwDkHsnwwGa7M7EOGv2ZOgg/O4yKwv37wD57WhrCcIF81OjC9dshbdw9OuKAs52XZlMKaMweDKesbOjKdiG+nNhyO7rC1q041HYqCIedW9a75eoDqozt+9uIKshF+8TAuELX9k6e97cdQ3z/RV8q0MwtW1mkLuTYq1RaGshCZkFzW0PsQE++MeezNuO1QVyXE+uo82WyAGayFifpvr/CjQeHl4A0UvnDSc3A0oTDhD07pOYw/Q9veLA/tz7nT4YbXzj6WNUg00b9fZxgwlUmV4uP6djEyALruIcOUXgCW+edWh4johrHyfJA4wpfhDBxxOkL128GgvasK26mZjkaUQX8R9z8ueNibmQ1RCpr6rvVPVVg+WNHE5yiblUG6OMvqSystaP/r6w0x6UY6viXRxosORN3XbeSsrqTK3BEhPpoolSaLJzGJ+wlzDe50tr3aR/SL6fmAvh1vGh+M5M30ebEwHmdh2amrXhvCMWdsDtSBP4xo87EorjLVzc6mTVPbZCogylkhbhbWFsp1ZfNUysPbhIZCPXDMk4feKYmCfq3ogt0DRioWlfJmV9T5r1QHuksFKa1fGlnPwTdy1EUbkwndNtjAEp1/c3DTUO+yRl7X88DY1Sf2BhfiRLOYt0ZdIdit2yHFr3QtulMRhDUXS/XFlsj+nwN3SpD9wrMVfOqAxV////////86oAAMUFmq0hBCERkXlEAAbTRfGGOQ0qwOY2q3adG4m1zIWLU0pSrnBE2Rncp5b+Rht3mx7jcDQgdLJCzIUI/////sh0T3+qR392od+E3zi35krUXkukDl8s+jFXfuD/9VvNEnAY6ZaPaAJ3nDGkvnPV81CIlrYgUoJd4ir11pum8St6I3O8JzC5rD03iYEGixbrwT9yBuGO0MqPuSkfH1FERLgzKUzwY3N8qUkOf1qEO742V0SOVg8H8cbt2rC3q1CJGtg69YIKrdhIcw7b9rDGYp2qntfdmXOH3juD6uGbPwgB0UBpW4KTPuZo+AqipAs4VnQFhqi+YpeXheHMdKy6+Grw46tS+sDCgaWn/Z2WZhr89Nkc+QsBcW9Fqtqd8Thxgadgf21DfHPDMt4mvkY195D9vv3hcpXx0EJ+gkiYIEumkGMxntMhfY8drOQRPGUWaXIFhD2YUEXUkQsBVfEUjIXZg65/c63M44444uwbpYguejdIjMsL7704I1PYjYfPvLBNbhdP4YkxgPCtCS70WXKM/+N+QPq7CQhZwpUL+nAUO3Aic+iN4e7BoGUM/WcNJEFRx2t1aO3vpsceiVV8uudTZB40BSHCEvJjXzRUiFREQ59eyXCfGoTL/xz1xuPzpnrxbJahFi+PQ7L33shFFXI62qbmPP5VsmttEhDgwlNtxs7e/r29LFqHriwYB4N4kjugWxWqGXsppZtIlkJxjGGb4tptwZ9FeqDJzOKyEpZxiFjxW5ZZRDoSXs2AoCuGMCV++pxMhW/IgAuO+V8eeyDlWt7xZScxr1hjceyTWzr3TdmkOS6Hs1/jFRkSDZpwTpBRhIBr9hVca84dRgxcMaxe15FO2P9IcEMCu20h7fZVImDI3Q37rJ66KyK0vKMD2TquGTaOpr8J8M/N8CVAh2ZM5IWOExBzcMCZrbmeQMcFcnM9ji6MxYkbYSZPFWleDyKdLwH103NWSM2L8tnFlqlf100XqqDj9dRhf1uXjVoAcdTV4YBogpRvgz6lsYUq/seBs+nLgOGNPzLI+RgsG3umVnn30YVf5iGX90kB4ThPiCZsA81osoqq3TUlW5E8MiNTyPzbTVhLGEk37tRlDwXiRDUp05DlhusXdSBsR/pVBAAyQFHTMf8pwnhWKP//pWH7zG1XUVBNChBZ0WqnzDp4BUJZ3UVHbft3m7//vS82d17yxrwzri0UBlAV/klvSO/9ZHB7iMf7iXeJHznvRux1AkoodNO7pR1NAyZIKJtYhEYYUac0LvRGTeHiDUtS0ItlaiR/r2kNGl42rO+nM5tdWSWrNdPXCLiZV7c0O87DyT0F//9qvkZS/O3i0HjrzMf6zCEil0D+ZyVg//9Okrj3+VCC/2BFL5cQgwJ0IUb2FHrt7qd+BUAar7rzMz2xPUP0KIeZw4GPTlh9P0jFQys1UGs3Ot5UDeitUlUUlJFb9gyLLtcDErGTz/QXaAPQ4QBWQTefjYFiNRZ/vzV+DrJdoqTe/icZF5DoDCGee2Kz7btj7PMGCsxE1Cw2oZlseVPc1WzgX97h0OHzBiqlu7KhYV/6hvkWssrE5xgJeF0AmwRqZ46fk9u9T5QHKO7Nc8uIhA21Ngw/D5VGN+SdTpzOAzWFel+XWv7mBsqkdSASf4PeBKC51ZcF5CsdFRRJxa2pAWDfzBqcFVAAAAAAAAFnMDyyGUEZEOyDKWpMSLrrnh4sAAAADj72dd8h6t2ENL3xW8HV5rjBegxzlMVsdiGaHR4TL7oFbiKuC9dfVrTPljrdzZjzHpT0oE+eyJa28yOJtR8s4mZjv/dodX7vBJbJwRFbM38/KT9ouy5JbCmPnzDFLZMGnWS63XJRWpAo6VRL8LUXIbM5WY/nNgfGtx3dbpfLyjOoguTgSsn4ken0+xzq2L92gXVvorbj+4BcTir5UOd+GFILB0LWUOIg4XABHcOC+mmBOA7XUtW4Fu4qOGxX+VnItVJOmH23n/HBWPN248eL59iBSfAEocjetFfVx4lhIE8UjneYKGg4gwHNONGUjIdusJ7kB7SNwFpiCi2kDcTOoHHXU+2czVkKxbo9CQu2wuAuifwv0QsN14BnF4ezYUKawaeXUOCEZv/c1ta0l+PO3wnuaai33AfGt+N41Fcj2OyLeXTeg7C1Iu6/eVyfiOaHZphePYDeG2xuPF0GMWQcadM6vMscx2PEKNxi46ZGazPCwL4BX5XlYSQmDt9cE1skEwVzSVZZP97ar5zm4Nkedcb0x2N8Fa/E/6qhDJzItjy1/UHP1SQhzABLSIWrNdfRZi5vI43P9GUJ4WI/9MP5WcWGYnQRAMttd/3TqMDwyqj9o+JODW0pjVPvVpBAnbdsRr0rs5NLHxR4PWKMZ41+8us350J7I+AiVZP3eU0iFPF7GADX3SWgFz8UaX0GF9obeKX/00dAdCgLzZOHhFrR7yTbDCFp7+kT5GVMYZOEeI/5qNXsrnpY1GQL4Ijc75t/8HGLdEBekf4P6o3tgZGTaw0KpAgYKUuz/EtsqV77XNmATETaU2qv1WpBjM0dfSin0bdmLgmiMoAX8N2SUMbaokrvzQ1G213Nc6MCE2J1Tu0zr3////984kHkzHzKjYdiUB6dLjvXVg1/07FjAxDUrgedyp/TYdHryYGkcTBjicysM7rD48VEXVAsjIbGVhSmjMDIXOkfVMQCmQbNJJEfHpdIhlAHM6MiPKyEz4GGzc76kPSPJgfua8NRQtQ5DAkfWCsX0OYlioq+qh+z18a9IRSmmY8hVobhVCDTJbUNMkXltrZ40XdUHWf5plcXwelTS7MQTF9Twx3taVlz5aOlFDhelv6hViw5rQppn+wObKx0htK0C8e5oUpjF90nTK90bRPKZOftqP1TXRM6HJezx/iRFyaGi5iFZerFbukKp7KSkciuwoKWivvk4APn1xbSEszxSHIUbx2utQbyty/1qaV0fcw3yoArdtoL2yODkJhvn15FLBdUCsKbBRfCA7I/sf0AEb9glRBY2SUaf4nLWDhKyHxgEwIuiMbsEmHWgagqbZSD5RzRrYaXG/aY11lYp5qNXFHzsGun2SnZ0H4g8qJbpiA8TcjBgbqNgW6+qUwfZ7fJJ6fKqqMtSgyXkwDJEE1LmqCyB5i/hhfIC66rP/LjjcSr1ZTIu7cm1CPSWe3lm9XyDMilwkiZOQ0coLh8EFwxU7K2xGG/blmQNb4kqwd+ub+BJfGvJhQFs/EvQA4voGrfdvRt1LwZjhUX8mL98wgvYOT56zRg24AAAAbnMEkqVzeBP4MGiDLjVOtPoO4gyTGVCqeVurA8Av/5VqpVaqwNVmoyKp/AN8KSNyVURM7qVfCPkw/SjXSc7HARdMcOnv5EC3EJjB2sNqH7KdAvehU6K/PLzVgjxlL/DaiCqc/ryleVzi6U1YZ+ydMIgzVwx60wAdJX0rXpNbKVqvSa2UmtlJrZStVVUI/OYsWtHzRJVGKNBxkNmE89zQJAO59Vs2VDpeZRO8glihQJjFggR7A7f2+fgv4XSaO7ldulmJHZFNX0pD8Cqc8K/58iiE60+4XV9lyRzRpr+2MC7oOh9F9vu6Drpul/3Fjb/PbokUi6y2R0pkkKA20GNDEdA98POAv41g041k1TWB0uoXKmp7IX0ythrPhancEyTFFti7N1rboRSrbrW4D35r5XBg5LXTidsSpKCrHEjitS5SyM4aU7RQ8ApPIcFuoA7ZvCJYWoIgGXJ+7FmASeQusRbSu7I7vPoKY1zbPICfa5g4HpDXFcAtQqQbeShMNJyAV1hrS7ZOcmP6PW4wOqddpc0I3+Zp0ZZLTreGljsdeORIqbD/GxtEEhjsMTreaVl6YOD3Kq1vhqgvLjfobvDPc3pZTpbyRjdJdf+0bs/utUz+uvxIjBg8PRL1PWEvM1KBIDy+QYuRDA0I3LhdBF6jQclhzHbFa4BgxVNSpvwcIXwws6G5Q6nPMCN9DMkh92S7BkE8UTzkuQ8WEO3W9CsQ5S9OCvfP9ZdJW+h0mnk22N/fxUkTpJ2fyVLc+AWL37UQwMYmwxU3DBBUpD13T9WMl4M2+Jalgc6ybvT4IFMZJqYps4eULJ3NXY/BJw91Isufioo0qDdZp1L8y+51rNn58z5BkViaQCnr13qf9EdHG60Ppj9gCNpwgqnv2Cw3z0vu31ahbRwU7l/kohl1UFPgpo6KmJdYyWytmlh5hGSsezPGSJjcT51hFP7NvLkHuY7vNXuMsr+fHt7iZE7hrh1I83abjnEc37/c5K5NXd2y7e7et8FNMvh3rmCW6H+9RI7MpUi92S0esk3engSB0VqtOEVLTbCWcHyXUGXCiN+9A/8ZaCq+nlzpgdajB0B3rzhZdbKsJAwn+fqUWAXfHYsxqb4JvMTmZEUxagkdg3E1t/gVpPMBipZlvkRAEP58uqVQU5jZ479Iruo2WrMmlXbbMHxdfBHbllutRDVT249d15MqN0QhNZVJD2B8A5Z1cbxeTtqqiXuOCWMInKeKRnkYggDsgqoVl7U4UsOOqG0P7c4SHEe3KipcFNjyNLAowYnMQtjRBdToOhZA30UGAWYF/U6ZrHahl2as57DUlIqi5Dp9GMa8ffeRoe3BmkRonB4XMx4b+IgJxFndVXUamBHzBSGnLvxYJCwCkb/tDVIkR/VNcB0cXO1HelUL3vmFF4S6hDZ33OK1nuHDhIG9P+4cZfPeknpEBGWlLjyhxOgX+q9Cz0FCMKNBP5ycq7L4xXjLY3OeTMBpuljCGeDsJD7I+oGFi6zTxJBactLEfhFc3b8v6J/////////////////////////Yj9CGwC++1W7sL1kR13SAAJVcNsY02zciPZ5hvzNv//////4Vmvhkqb78y0JdF3xwaIyafSKFAs5cblCFtsgRx/StUUrCvP6LILJQKbfsvraIOaiJD8PhgtQaFUYNXRWE2DkrJjlzC5kJqc9HWs4Od7J1BFp0MCjXLhaxfk156kULrybnscr5PcvRJznDFVN+oq+cBqbeGaUR9JuhWWqzNMh/q+27fn6BfYJ22IbXo4fcOMzqGoORuOkJ2u5A7XVKjmqfRfWq8CzN4hUQE9zve6OXonvy/W414AQiDryWY4o8t5C5/r47NbntzQuqelELH9RK0x1c31hbcgt77rBBaMbheDXsIYEVzkMYjCEVR79UqYeKRrhZpIPBtf7RBmx+HOs2wPdUF43wT912v6rnWjtxTMW0McSba0OmgOCVLD2fBZT+Ys7sCqs0q5p7RxhvpbH3QEGh/TkLo8DPN74tfybooADkWvQrK3HN4ZUGCo0lc8nptTCAoV30KiV1AAhxyAAAAAAXvONdV9sdm/sfVLg//+vF+eLg9F+PCLw8neP3jitv4sVQ9M98fmXJBR7CowdxaLmSfMs1ZlTmtiPnhzX6K8PCga3/iLa/BQLL9zhdlxFXZPxczbETL9GCX5MPz8b5aIOiwmN6te4tyqCQboHmarXde6ZjngMHtZnH3POVFU+QXiOa5UXyf9WxZBCkKlTOTldLZ5G7grNgjhhGcLOjbmLCXGr4y8pWIvG1iuwddz80PtUKR0M76/udNhV2sbkaIgNdFAQEr5sPGU6+DFxxgoExuiAr4bGCcmMqacHzfjHjHw2u1PsABUWp9oe1dVFTvW5L741vdT2iqK1F2q0PBSIwFqsFvP8jH6sNj2wUPMbhX7fludSjmFF4NWNr54k4/ZZdLXSOciYc4JYnqOFKzg1e2HhuG/mDNJSeND7tPvsWfSvfgGcADpXw7y4C5defP2xyoqkYsMCj+Lhu+Aj7sDVErfkOBNLc9FOxsRTM7QDcLe08Vy3Nv+jdggTgBIAszLbZ1J4/ImxElbKCujRPfc/nn9VVhgMKTvlRFuVaJe2zqLjKBPyXgvW8c0E60/yfjnNpoIm4Nt1rfZW89JwVaRfLWJUGeH9hL3Uw0x+EJc8Pk1uMV8DG3PtEagAAiwg0IqOvZyn+TeQFRdf2cS7X5XtgewMYnU1z5zm0GcYBO/Ah0IYA8HHJ4AgmfS/mX9TL6X9TL+Zu4hlPQLW8ZPf4hC5+2+zUbRhhO7qHIE7wvWuKffp/M7ZJL19U88WPBdmiSJpnwkvWagdbKVb2FySNz1cN4FV90ZMI0tAaeDUAAAAfalkvLjqiZC9hYHbrA1goF4DBOYqyXcDfiPwHNMVXc1Jwp1SHZRS+dcBLywLlgAAFywLlfdu/wuCETUmn8SDTjxf+cLI/X6/6ZsXUd5J+V5snk0pIQdrQPJnZiFcb0OyKl9m7Ts8DEYa3zsBaATulqgfh4QUpGnvNwg1g0DqjVIDm63+5PVJuBCUQ/1XQ92N/lSQtEDsBi8V+z/pAMrDqxjHtqmC0CKZCA2UgLOSdj7A3ZiMWuMIQk5SOCVGUXEb90YoJIFrEZlT434xb9SiznuYCC2KqL7wmuYVrD2WzOmDAkLQfJ0UQ1rLjEM0smLetAyX6ElNzsWPJlH2KPPx4G8Q65oxhPadHdRtlRZnRiZ3cbXGB7skCfitgOuYcEfRfLTmU3NrCxeGNNNVg5aoYlIf+BWPgdGsqVqxc2mrc/Q5kbRVzczuiJI/D2GYSuONXx9NiQ1MFdhXTu5S32KuK+IzWaXxEDzP4NWOIxOMtZoA1MGbfmjzD03O1dib/UBv/YGZJrDOx3Gc3P5DdUmSFU5F7O6AWu6OllK0AmZ8sFwc/46c9qgBLV5Lk7AiJSilDXXVjl14Z0WBay12lFyuKEhA8/wWn4CSg2V+deONNHjTU8ntSU6RxS5+dBXUVAefcm9iQw+zlNosj2I/2zKj5AW7REIqBYEOD9RZAR716/HWESTNBtNLGsPWwEQnzO4Bs0eaQmm54AnspNk3o5QuDQ55WgoMMF4F39gmsqjoviw1hXEBPe3a+Sbh3ot4X5ZgrK2pAoLtu1Ubg9Fv6iMtxzFzlLtPRWCV9UL7vQAXxmlngN5DJllsSc2rqXjDpbfLHah9lN3gZaSkTdqH7WxmsOD8va48KvhSfAMXP////wr4ABR/LFsUAvc2tEAiPqaFr60z/3ldjHC9djC5+zpr+k908MYEIyrHvyijN2P7wexU9mDV5GgyQK0RPjLPu4CKX35J6qmDv5ovNKHRhG+094DGyzuRBcwGt4z/ZvScnlaSqNN8c/lV2hsPhEn86voHctn5gojbtWqWozYgjDHE63tk0ZyDXMEJTqkf5FvZ8ahI4uDRY3KP7KVTvdBo5YLPhmpEGSYrxEk7byUUSadQeK3mLHf7/2Lr9hegt36AToNMuDiksRA+bPbdhVCx0pBhE0js6Kw4xz0cOb/gEv0w8YjcX3S2uEm29dWw+uVn0h1b4F6Y/6XfMRfhdQ8KF/MueaCCARu1Alg1Wz3a0ayzGz5UTRhHg1reVtIqR8V/rxVUQIaUi3PCKjj9JqBOmEOe5w/FpNxQdgDdS1Dn0IBblvH3c0cuUGSgNH/u7gb3//cqzFkr0Irfn4oZzSdagXs1HG2ywMEGOM/mM4U/0lY2PRwb+lSaGf8vo9A2kYYfnbE0DtmsM2WWl4xpxRxCoL5NM6+g5ijgePdIqkNEjNEiwrPulBV5T0Sb4oQoPt8hzAAAAAAAAAAAAAAAAAAAAAAALfUSc1mzSJp6/07eLPgLjyiFXyOwkAGC52Pge2M7ce3bOr5a70vGjYNxFIRqtYgRl5xb26us7eRAN05nzeAzBKBgDFTYi1vMnqY2Itio78Qtf1AtATiquIDx/f+iuTdFDev//VEEFvVcc5jv288ZJr9KGLLYw463yUGNP6CcbBwmU/CsjbV24Wy62E9mA/7WPEbuLmLK44nNME+sunAiIpnoOv/9mUgjoXFsJPAbaZv7MmY7LbePfaOYlMIT6DhxlhJzh+2T0RLSLtWQjmwCbxD3bg1LIJxGikQ+pjCBw8FFCj0gCKTD0RrAi80ZZFEW3i3zv7dkH//TF/2S4Vjw7tnjkJMJy6TeusLQ7uT3xlVTxauq/yHsekVE/S4Pear2WbpAUvf+fiEBndwERFzJ/KAEidGQALKXFNsj+dtK+UgsQzCN0bLb4X8x+dtIXiGi9U068dt0KOK/SrVGgGkXPn7KafZ7bKv1SyPdzHk4Fy2m374F/oEfSUF+M0/qd9T++n9T++6yHD4OUiXy0afA9W5uOnwu7gzWg+KSNdlSQaH1fXmT80K5xfEqABomnwctQcV5mhndg61INGMPyoifi611VAThtDmDNJeY7h1QS5JSkKLRaUvZEiQ22Q2Xn3SMZr8Me8kz6DgYDo0jHIOjx0ss+wvSNdA2pGvpf/423GBpvgFivPyUvoInLR7tnsfr3voRtKKmuG2fAySTWaHvtMle/il76gS5+CswSSPoM55uD9Ndj5iy8OmdA8OXHuESc1NHEowdxK80srLBRBTpt9wpbtFg/J2Ud+vP0qjNexe+f9O/p/fz/uBX//AjR8CGDAP3i9TI/I1o8aAO2txIYQjZ8AIBx+5wCTd/sPBqk0BXeeto9nFSa7anNHYSOxV5sQV94hDMAsqah9Wtw1+cXBvEn5NoU+9O0GbekM0nHd11pDh6Y9f5MClkXfNRBYUbfk994W2p+1Gel6zRXjU9+sQUy5RVLWBx4zds4NxdiSMUaD/e+Ff+WcsfZWUYik8h4QE9I19aRPmlu+VlXtFnVFZEYRsonZyszjqR+RdZ1U0q/Mux/5SmKYEbvuD3/IfWwhGkW499l4YwxPsRkfvovFHTKk9T92dvqPq0irGbGDPFFEFDcmgKWuR05dOc8DVWJepJdDvFZp67NSaYqj54THCbxyTPLr+OEfT16hGu7vQqnOR+Z16xtm+GAEqeYLm1Nzu2KiRHPWTGokE1XS1/ul1pjEyjIJBnWhGbkZHKrB+OLI7Cc8yDHKxFj2GPqziZUQ4t6tCCgsfVIZV4F5xlA7R0i4h55U59zwcyUaudKN6Mqvrwa6fYU5a8c271/Ufy4idoSLC/ZKR2TNO3/IFOpVRqEwSKPWImeM/BdjyH56ZPu+leRWzV/Gvv+Yug3DdPrqo82T6UGFhkO2Ok5ktJv+UhAnoJIjyYKlncCiOOlpRMP9pFCnnCX6NMoL3czSdJ/QA/qlfPol6TTWVZZTzVA4rpdOb2Ss6PU2jszuylItqFq4Q1xQYIbeiZM0XtE3pdTV0N4dlDT2Xmon3020ZanGXRTCAbopX7RniWTB/H5qqjlrbV+s2JnTjya8ueXMFUAWh5elK2jnuId5//////6eKtAdhB+YgqQKtBhk7xtvFX/+g4fcr7CuMZsnWb+RyOZdA5ZeJApFaG4v2WK54gSGFRUL/BJ8CyJFrUTHuBQ97j8XFo/YbxsF9o598A+ayzOfZQgtbgjyMDaSwo4zuvB4yzzF4L+FSpc6VlXsZ+o+2V35Df6hcpsMD+OMgZvc7bsLhKWmp/kRlPoMapbMgMlOcIBq2dryxfN8YAlJ1RA4vhSydR/G5+IppDDKyE03fkJ4zS7Acy/ShzmO/M3E9ZSnlkuslFUy/1duLJxjT1j8k3YnR61sVgiO3ZQ+sMM4zknKZ6FXImfWPUc2+tzYszXf4B5C9ueyU0VvQf/WDQLOVwZyFs6EjN2yriPNwF5YxXjzq47l2aJtVQwiHM2awgZH0hh+odqIZ5epyxTRi9WZBt1N9QolA0tLTIRLD6MK8jumMbeuw2i0mm6/iRDfMahQdOCmaCWhkVcjEw46e0Z9MqK7tos0ZwcnjnQ5qLF1jdYx3PLFoL1BEwTbWwqCVh2z9sbbLNm2t5/ugEjXxhwN46PIqDH0BYiA2FORSF3/2Ia3ymKlFYmmkxVXCEpER1idQoUzu0R1lWlnBXirOp+6z18HMXFQEwB5jRUMhvhzelDPx+s4MC8bearkuUD97jOl34YFWoV2W145bJRAkvpxWV8ArBTWIpF17XQdMFG925HndprKy3phrE53JLMk0bncXYdJN8HL3VdWxXGvh9b/GklrmGAOYGP1eQDLm/9C5CShZV3PG+fv0UCXSr+pul3ubZL16kLzOGJFFVtTyf9Al+vra1Rma67epztibnxW9PDT9XcxZ0ijXC7FV8gl/5uuVSGhsnGdBNlqX+l6hZq25agb2BRK5ajRBpV7lkbh0m9Y96HpbniT4HfEhhZHTErFLy4FaDAbPjSvc0R1xRXzx417xB+eGv3yO08yJdEjwz5k7W8xRpISkNeBqP14h8ghuo11YoNkmOuLi06NRTWMdwQ2VhUf/HoxzT0Qq4AyUbArW2LwxsWaG7sKtFbpMyRO3schg;" vertex="1" parent="1">
          <mxGeometry x="318.5" y="260" width="33" height="33" as="geometry" />
        </mxCell>
        <mxCell id="R2kOFksjPvD2Qqe6QgFd-45" value="" style="shape=image;verticalLabelPosition=bottom;labelBackgroundColor=default;verticalAlign=top;aspect=fixed;imageAspect=0;image=data:image/jpeg,/9j/4AAQSkZJRgABAQEAYABgAAD/2wBDAAoHBwkHBgoJCAkLCwoMDxkQDw4ODx4WFxIZJCAmJSMgIyIoLTkwKCo2KyIjMkQyNjs9QEBAJjBGS0U+Sjk/QD3/2wBDAQsLCw8NDx0QEB09KSMpPT09PT09PT09PT09PT09PT09PT09PT09PT09PT09PT09PT09PT09PT09PT09PT09PT3/wAARCAC0AUADASIAAhEBAxEB/8QAHwAAAQUBAQEBAQEAAAAAAAAAAAECAwQFBgcICQoL/8QAtRAAAgEDAwIEAwUFBAQAAAF9AQIDAAQRBRIhMUEGE1FhByJxFDKBkaEII0KxwRVS0fAkM2JyggkKFhcYGRolJicoKSo0NTY3ODk6Q0RFRkdISUpTVFVWV1hZWmNkZWZnaGlqc3R1dnd4eXqDhIWGh4iJipKTlJWWl5iZmqKjpKWmp6ipqrKztLW2t7i5usLDxMXGx8jJytLT1NXW19jZ2uHi4+Tl5ufo6erx8vP09fb3+Pn6/8QAHwEAAwEBAQEBAQEBAQAAAAAAAAECAwQFBgcICQoL/8QAtREAAgECBAQDBAcFBAQAAQJ3AAECAxEEBSExBhJBUQdhcRMiMoEIFEKRobHBCSMzUvAVYnLRChYkNOEl8RcYGRomJygpKjU2Nzg5OkNERUZHSElKU1RVVldYWVpjZGVmZ2hpanN0dXZ3eHl6goOEhYaHiImKkpOUlZaXmJmaoqOkpaanqKmqsrO0tba3uLm6wsPExcbHyMnK0tPU1dbX2Nna4uPk5ebn6Onq8vP09fb3+Pn6/9oADAMBAAIRAxEAPwD2WkpaSgAooooAKKKKACiiigAooooAKKKKACiiigAoorA8VeM9K8IWIn1Kb964/c28fMkp9h2HueKAN/PNcxr3xF8N+HmaO81KOS4XrBbjzXB9DjgH6kV4h4t+KWu+KGkhSU2Fg2QLaBiNw/226t+g9q4ugD2rUvj9bqzLpeiyyDs9zME/8dUH+dYkvx619j+50/TEH+0kjH/0IV5hRQB6fF8evECn97p+luP9lJF/9mNbWnfH6BmVdT0SRB/FJbzBv/HWA/nXi1FAH1FoPxH8NeIGWO11JIrhukFyPKfPoM8E/Qmuoz9a+Na7Lwn8UNd8LskPnG+sF4+zXDE4H+w3Vf5e1AH0xRXPeE/G2leMLPzdOlxOgzNbScSR/h3HuOPx4roaACiiigAooooAKKKKACiiigAooooAKKKKAClpKWgApKKKACiiigAooooAKKKKACiiigAooooAKKKyvEviC18MaDc6pecxwr8sYODI54VR7k/kMntQBi/EDx7a+CtN+UJPqc4P2e3J49N7+ij9TwO5HzhqurXmt6jLfajcPcXMpyzv/IDsB2A4FP1zWrzxDq9xqOoSb7idsnHRR2UDsAOBVADJwOtABRXtA+AlvLpcDLq88N60amQPEHQPjkADBxmuC8UfDfX/AAqGmurb7RZr/wAvVvl0A/2u6/iMe9AHKUUVPDY3VyMwW00o9UjLfyoAgoqxNp95bjM9pPGPV4yP5iq9ABRXTeF/h9rvi3ElhbeXaE4N1Odkf4Hq34A16La/AG1W0b7XrM73JU7fKiCoGxxnOSRn6UAePaZqd3o9/Fe6fcSW9zEdySIeR/iPUHg19G/Dz4gW3jSwKTBINUgXM8IPDD++n+z6jsfwJ+a5oXt55IZRtkjYqw9CDg1b0bWLzQtVt9R0+XyriBtynsfUEdwRwRQB9eUVj+FfEdr4p8P22p2nAkG2SMnJjcfeU/56EGtigAooooAKKKKACiiigAooooAKKKKAClpKKACiiigAooooAKKKKACiiigAooooAKKKKAA14D8a/FJ1PxEmjW7/AOi6d/rADw0xHP5Dj67q9y1bUY9I0i8v5uUtYXmI9dozivka7upb27mubhi80ztJIx7sTkn8zQBFVzRgja5YCT/Vm4jDfTcM1TrV8MaBd+JtfttNsflllbLSY4iUclj9P54HegD61pGUMpVgCCMEEdRTYlKRIrMXYKAWI5Y+tPoAy7PwxomnSNJZ6RYwSMcl0gUH88VqUUUAFZl/4a0bVOb/AEqyuDnO6SBSfzxmtOigBscaxRqkaqqKMKqjAA9AKdRR0oA+TvGIRfGuuCPGwX8+Mf8AXRqxq6Dxt4evfDfim7tL9zK0jGaOfGBMrEkN+eQR2INc/QB6P8F/FDaT4m/smd8WmpfKoPRZgPlP48r75HpX0HXxxBPJa3Ec8DlJYmDow6qwOQa+uNC1NNa0Ox1GMYW6gSXHoSMkfgcigC/RRRQAUUUUAFFFFABRRRQAUUUUAFFFFAC0lFFABRRRQAUUUUAFFFFABRRRQAUUUUAcP8Yb42Xw6vUUkNcyRwAj3YMf0Uivm2vfvjxIV8F2aDo1+uf++HrwGgAr274CaMiaZqWsMo82WUWyE9QqgM2PqWH/AHzXiNfRXwTKn4fIF6i6lDfXj+mKAPQKKKKACiiigAooooAKKKKAPMPjro6XXhe11NUHnWc4Qt/0zfg/+PBfzNeCV9LfF0qPhnqu7GSYQPr5qV800AFfRvwYvjefD23iJybSeSHP47x/6HXzlXvHwEcnwtqKdhe5/NF/woA9SooooAKKKKACiiigAooooAKKKKAClpKKACiiigAooooAKKKKACiiigAooooAKKKKAPOPjlAZfAkcgGfJvY2J9AVYf1FfPlfUvxE0w6v4C1i1QZcQeao75Qh+P++cV8tGgAr3P4Caismhanpxb54bgTAH0dQP5p+teGV1Hw88Vf8ACJeKobyUn7HKPJuQOfkJHIHqCAfwI70AfUVFRwzR3EMcsLrJHIoZHQ5VgeQQe4qSgAooooAKKKKACiimu6xozuwVVGSzHAA9SaAPN/jpqS23g23sw37y7ul+X1RASf1218/12XxQ8Xp4s8UM1q5aws1MNuez8/M/4n9AK42gAr374EW5i8GXcxH+tvmx9AiD+ea8Br6h+GmmHSvh9pMLrh5IvPbPX5yWGfwIFAHU0UUUAFFFFABRRRQAUUUUAFFFFABRRRQAtJRRQAUUUUAFFFFABRRRQAUUUUAFFFFACEAgggEHqD3r5S8Z6A3hnxXf6dtIijkLQn1jblf0OPqDX1dXmnxn8HtrOiJrNnGWu9PU+YoHLw9T/wB8nn6FqAPGvC3hS/8AF+ovZaa1usqRmQ+dJtGMge5PXsKm8TeB9c8JFTqlpiBzhLiJt8bH0yOh9jisW0vLixuo7m0mkhnibckkbFWU+xFfQvgLxRbfEXwrc6drUUct1EnlXcZGBMp6SAdjx26EZGMigDy3wN8UdR8IqtnOpvdMzxAzYaLPXY3b1wePpnNezaJ8TfC+uIvk6pHbSnrFdnymHtk8H8Ca8B8aeDrzwdrclpcK72rEtbXGPllT6/3h3H9CK57FAH2PFNHPGJIZEkQ9GVgQfxFPrzH4I+GobHw0dbkQG7v2ZUc9ViVsYH1ZST9BXp1ABTZJUhjLyuqIOrMcAfjTq88+MnhmHVvCUmpog+2ab86sBy0ZIDKfb+L8D60AbetfEjwxoaMbjVYZpB0htT5rk+nHA/EivHfHXxYv/FUL2FhGbHTG4Zd2ZJh/tHsP9kfiTXn9FABRRQKANnwjoL+JfFFhpig7JpR5rD+GMcufyB/HFfWCIsaKqAKqjAA6AV5h8FvB50rSH128jxdX6gQBhykPXP8AwI8/QD1r1CgAooooAKKKKACiiigAooooAKKKKAClpKKAFpKKKACiiigAooooAKKKKACiiigAooooAKQjIweRS0UAfPHxT+HjeGL5tT0uInSbhuVUf8ezn+E/7J7H8PTPO+BvFDeEfFFvqRVngwYrhF6tGeuPcYBHuK+o7q1hvbaW3uokmglUo8brlWB6givB/H/wjutEeXUNAjkutN5ZoRlpLcd/dlHr1HfpmgD2mC40XxfowaM2mpWEoBKsodc+6noR6HkVmw/DfwnBP5qaFaFs5w4Lr/3ySR+lfMlnqF5p0vm2N1PbS/34ZCh/MVpN408Suu1vEGqlfT7ZJz+tAH1bFDHBCkUMaRxoNqogwFHoAOlPrn/AUrzeA9FkkdndrVCWY5JP1roKACsXxoAfA+vAgH/iXz/+izW1WL4z48D69/2Drj/0W1AHyfRRRQAV6B8MPh5J4p1FNQ1CIjSLd8tkY+0MP4B7ep/DvxP4B+E95r7xX+tpJaaX95UOVkuB2wP4VP8Ae79uuR75Z2cFhax21pEkMEShUjQYVQOwFAEyqFUKoAAGAB0FLRRQAUUUUAFFFFABRRRQAUUUUAFFFFABS0lFAC0lFFABRRRQAUUUUAFFFFABRRXJ698TvDHh6Z4Lm/8APuUOGhtV8xgfQn7oPsTmgDrKK8vf49aCGITTtTK+pWMf+zVbs/jh4XuXCzrf2ueryQhlH/fJJ/SgD0WiqWlazp+uWQu9Lu4rq3JxvjOcH0I6g+xq4zKilmICjqScAUALRSBgcYOQeQaWgDh/Fvwo0PxM0lxCh0+/bkzQKNrn1ZOh+owfevKNX+DvijTLjbbWseoQscLJbuP1VsEfqPevo+jigDI8JaZPo3hPTNPu9vn29uqSBTkBscjNa9UdV1rTtEt0n1S9gtInbYrSvtBPXA/Ks2Px54YmlSKLXLF5HYKqiXkk8AUAdBWb4jsJdU8M6nYW+3zrq1lhj3HA3MpAz+JrSqtqGo2ek2T3eoXMVvbpjdJI2FGTgfrQB876V8HvFWo3Jjns0sI1OGluJBj8AuSf5e9eq+EvhJonht47m5X+0r5eRLOo2IfVU6ficn6Vs/8ACwfCv/QesP8Av7XQxyJLGskbBkcBlYHgg9DQA7FFFFABRRRQAUVhXPjjw3Z3Uttc63ZRzwuUkRpRlWHBB96u6Tr+l66sraVfQXaxEBzE2dpPTP5UAaFFFFABRRRQAUUUUAFFFFABS0lFABRRRQAUUUUAFFFFABRRUdxOltbyTynEcSF2PsBk0AeR/GL4gXFnM/hzSJjE+wG8mQ/NyOIwe3GCceoHrXitWtU1CXVtVur+4OZbmVpX+rHNen/BfwRa6oZte1OFZooJPKtonGVLgAlyO+MgDtnPcCgDzmz8N61qESy2ekahcRMMh4rZ2Uj6gYpl5oGrache90u+t0HVprd0A/EivrkDFBAIIPIPUGgDi/hJpf8AZnw9sSy7ZLsvcv77jhf/AB0LXlnxl1++vvGlzpckrrZWQRY4c4UkoGLEdz835V9DqqooVQAoGAAOAK8x+JOj+C9Y1UDVtaj0vVokVWZRu3L1G9ccnB4OQcfhQBynwQ1++h8Sto3mvJYzxPJ5RORG687h6Z5B9cj0r2bxLr8HhjQbnVbuOWSG327kiA3HLBRjJA6muO+GWleENIuZ4tB1VNT1N490spGGEYI4UY4GcZ6nOParPxe1SxTwDqVm95brdyeWEgMq72xIpOF69AaAMr/hfWhf9A3U/wAo/wD4qvS7S4W7tIbhAQs0ayAHqARn+tfHdfTGlfEXwrb6RZwya5ah44I1YfNwQoB7UAc98e/+RW07/r9/9kavFtD/AOQ9p/8A18x/+hCvaPjywfwpprKcg3mQR/1zavF9D/5D2n/9fMf/AKEKAPryuH+MX/JNr/8A66Q/+jFruK4f4xf8k21D/rpD/wCjFoA+bc19e6L/AMgOw/69o/8A0EV8hV9YR6zp+heGNOutUu4rWBoYow8hwCxTOP0P5UAbVFc0PiL4UZgo12zyTgfMf8K6WgAorCv/ABv4c0y9ltL3WLWG4iOHjZuVPXmrOj+JdI195V0nUILswgGQRnO3PT+RoA+Y/Gn/ACPGvf8AYQn/APRjV6j8AP8Ajy1v/rpD/J68u8af8jxr3/YQn/8ARjV6F8GNe0zw9o+tXOrX0NpE0sQUyNyxAbOFHJ/AUAe3UVwTfGfwks2wXV0y/wDPQWzbf8f0rqtE8R6V4jtWuNIvorqNeG28MnpuU8j8RQBp0UUUAFFFFABRRRQAUUUUALSUUUAFFFFABRRRQAVjeMZTB4L1uReCthPj67DWzWP4ugNz4O1qFRlnsZgo99hxQB8m96+mfhNAsHw20raOXEjk+5kavmbvX0r8Ibtbr4cacqsC0DSRMB2IckfowoAzfiR8S7/wXrdtY2dlazpLbCYtKWyDuYY4P+zXIf8AC/NZ/wCgVp/5v/jXV/Ev4a6p40122vtPurKKOK2ELLOzA5DMc8KePmrxfxT4bufCmuSaXeSwyzRqrFoiSvzDPcA0Ae0fDr4n6h4z8QzafeWVrBGls0waItnIZRjk/wC1XnPxk/5KTf8A/XOH/wBFrWh8Cf8AkeLn/rwk/wDQ0rO+Mn/JSb//AK5w/wDotaANP4D/API8Xf8A2D3/APRkdcRrGmahDe3k89jdRxCZi0kkTADLHqSK7f4D/wDI8Xf/AGD5P/RkdemfFv8A5Jpq3/bL/wBGrQB80VdXRdTdQy6deMGAIIgY5H5VSr680TnQtP5/5do//QBQB5r8cQV8F6QGBBFyuQf+uZrw+KV4JUlidkkRgyspwQRyCK91+Pf/ACK2nf8AX7/7I1eI6bbreana20hISaZI2K9QCwBx+dAGv/wn3in/AKD+o/8Af9qrah4t17VbN7TUNXvLm3cgtHLKWU4ORx9a9m/4UN4c/wCf/Vv+/kf/AMRXOePfhPo3hXwldapZXeoSTxNGFWZ0K/MwByAoPf1oA8lr3P4v/wDJK9F/6+Lf/wBEvXhle5/F/wD5JXov/Xxb/wDol6APELf/AI+Iv98fzr7GPevjm3/4+Iv98fzr7GPegD5d+Jn/ACUXWv8Arv8A+yiu3/Z+/wCP7W/+ucP82riPiZ/yUXWv+u//ALKK7f8AZ+/4/tb/AOucP82oA868af8AI8a9/wBhCf8A9GNVTSdC1TXZjFpVhcXbr97ykJC/U9B+NW/Gn/I8a9/2EJ//AEY1erfAH/kDav8A9fCf+gmgDybW/CmteHBG2sadNarIcI7YKk+m4EjPtR4X8R3XhfX7bUrRm/dtiWMHiWP+JT9R+Rwe1fRXxMsor74e6wkqg+XD5yk/wspBBH5frXy9QB9jW88dzbxzwsGjlUOjeoIyKkrB8DStN4F0N2JJ+xRDJ9lA/pW9QAUUUUAFFFFABS0lFABRS0lABRRRQAUUUUAFNkRZUZJFDIwKsD3B606igD5I8R6NL4e8QX2mTg77aUqCf4l6q34gg/jXX/Cn4gQ+E7uaw1RmGm3TB/MAJ8mTpuwOoIwD34Fek/Ez4cDxfbrfacUj1aBdo3cLOn90nsR2P4H1Hz/qek32jXbWupWk1rOv8Eqlc+49R7igD6oh8WaBcQiWLW9NZCM5+1IPzyeK8A+Ld9a6h4/u57G5huYTFEBJC4dSQozyOK4uigD0n4E/8jxc/wDXhJ/6GlZ3xk/5KTf/APXOH/0WtdL8EfDmq2mvT6tdWUsFi9o0SSSjbvYspG0HkjAPPSua+Mn/ACUm/wD+ucP/AKLWgDT+A/8AyPF3/wBg+T/0ZHXpvxbyfhpq3/bL/wBGrXmXwH/5Hi7/AOwe/wD6Mjr2rxPoy+IfDV/pbMFNzCVVj0Vuqk+wYCgD5K719ceHZ47nw5pssDrJG9rGVZTkH5RXylqml3mjahLZajbyW9zEcMjjH4j1HoR1pLfUr21hMVveXEMZ5KRysoP4A0Ae2/Hv/kVtO/6/f/ZGrxbQ/wDkPaf/ANfMf/oQr2H42Nu8DaIS2WM6HJPX90a8e0P/AJD2n/8AXzH/AOhCgD68rh/jH/yTbUP+ukP/AKMWu4rh/jGf+LbX/PWSH/0YKAPm2vc/i8P+LVaL/wBfFv8A+iXrwyvpbxV4ck8U/DKKxtgDdLbwzQAnALqo4/EZH40AfNcTBJUY9FYE19ixSrPEksTB45FDIy8gg8gg18eXFtNa3EkFxE8U0bbXjkUqyn0IPIqYanfLafZVvbkW+MeUJW2flnFAG58SJY5/iDrMkMiSIZ+GRgQflHcV3P7P3/H9rf8A1zh/m1eVyaTfRaXHqUlrKllJJ5aTMuFdsZwPXgGvVP2fv+P7W/8ArnD/ADagDzrxp/yPGvf9hCf/ANGNXqvwCdBpWrx718zz0bZnnG3rj0ryrxmc+N9dI6f2hP8A+jGqpc6dqeifZbieC4tRcRrNby8qHVgCCrD2I+lAH0b8UtSh074faoZnCvcR/Z4lJ5dmIGB+GT9Aa+Y6sXV/d3xVry6nuCvAMshfH510HgHwbdeL/EEMQib+z4nDXU2PlVRztz/ePQfn0FAH0T4Ptms/BujQOMOllEGHvsGa2aRRtAAAAHQDtS0AFFFFABRRRQAUUUtABRRRQAUUUUAFFFFABRRRQAYqC7sbW/gMN5bQ3ER/glQOv5GiigDCk+H/AIVlbLaBYA/7MQX+VXdP8KaDpcolsdHsYJV6SJAu4fjjNFFAGtiq8+nWdy++4tIJXxjc8asfzIoooAW3sLS0ctbW0MLMMExxhSR+AqfGaKKAKepaNp2rRBNSsba7VegniV8fTPSs628EeGrWYSQ6FpyuOQxt1OPpkUUUAbE9pb3SBLiGOVAchZEDAfnUS6Rp6OrpY2qspyCIVBB/KiigC2BUc0EVxEY540kjPVXUEH8DRRQBW/sbTf8AoH2n/fhf8KthQBgDj0oooAztT8O6RrJDanplpdMBgNLErMB9etU7TwN4ZsphJb6HYK6nIYwhiD7ZzRRQBsz2lvdRiO4gilQHIV0DAH6GktrG2s932a3hh3fe8tAufyoooAjk0nT5XZ5LG1d2OWZoVJJ9zipLixtbq2Nvc28U0BGPKkQMv5HiiigDE/4QHwsZN/8AYGn5/wCuIx+XSty1s7ext1gtIIoIU+7HEgVR9AOKKKAJqKKKACiiigAooooAKKKKAP/Z;" vertex="1" parent="1">
          <mxGeometry x="620" y="90" width="106.67" height="60" as="geometry" />
        </mxCell>
        <mxCell id="R2kOFksjPvD2Qqe6QgFd-46" value="" style="shape=image;verticalLabelPosition=bottom;labelBackgroundColor=default;verticalAlign=top;aspect=fixed;imageAspect=0;image=data:image/jpeg,/9j/4AAQSkZJRgABAQEAYABgAAD/2wBDAAoHBwkHBgoJCAkLCwoMDxkQDw4ODx4WFxIZJCAmJSMgIyIoLTkwKCo2KyIjMkQyNjs9QEBAJjBGS0U+Sjk/QD3/2wBDAQsLCw8NDx0QEB09KSMpPT09PT09PT09PT09PT09PT09PT09PT09PT09PT09PT09PT09PT09PT09PT09PT09PT3/wAARCAC0ASYDASIAAhEBAxEB/8QAHwAAAQUBAQEBAQEAAAAAAAAAAAECAwQFBgcICQoL/8QAtRAAAgEDAwIEAwUFBAQAAAF9AQIDAAQRBRIhMUEGE1FhByJxFDKBkaEII0KxwRVS0fAkM2JyggkKFhcYGRolJicoKSo0NTY3ODk6Q0RFRkdISUpTVFVWV1hZWmNkZWZnaGlqc3R1dnd4eXqDhIWGh4iJipKTlJWWl5iZmqKjpKWmp6ipqrKztLW2t7i5usLDxMXGx8jJytLT1NXW19jZ2uHi4+Tl5ufo6erx8vP09fb3+Pn6/8QAHwEAAwEBAQEBAQEBAQAAAAAAAAECAwQFBgcICQoL/8QAtREAAgECBAQDBAcFBAQAAQJ3AAECAxEEBSExBhJBUQdhcRMiMoEIFEKRobHBCSMzUvAVYnLRChYkNOEl8RcYGRomJygpKjU2Nzg5OkNERUZHSElKU1RVVldYWVpjZGVmZ2hpanN0dXZ3eHl6goOEhYaHiImKkpOUlZaXmJmaoqOkpaanqKmqsrO0tba3uLm6wsPExcbHyMnK0tPU1dbX2Nna4uPk5ebn6Onq8vP09fb3+Pn6/9oADAMBAAIRAxEAPwD2T8aPxoooAPxo/GiigA/Gj8aKKAD8aPxoooAPxo/GiigBfxpPxpaSgA/Gj8aKKAF/Gk/GlpKAF/Gk/GlpKAD8aPxoooAX8aT8aWkoAX8aSlpKAPMPjQxVNEwSMNMwx6jZg1m+Gvive2IS31yNr2AceemBKo9x0b9D9a0fjV93RfrP/wCyV5bQB9KaTren65aC50y6juIu+08qfRgeQfrV78a+ZLLULvS7kXWn3MttcKOJI2wfofUex4r6M0C+k1Pw9p17MFEtzbRyuF6bmUE4/OgDQ/Gk/GlpKAD8aPxoooAX8aT8aWkoAX8aT8aWkoAPxooooAKKKKACiiigAooooAKKKKACiiigAopaSgAooooAKKWkoAKKWkoAKKKKACilpKACilpKAPL/AI1fd0X6z/8AsleWV6n8avu6L9Z//ZK8soAD0P0r6L8If8ibov8A14w/+gCvnQ9D9K+i/CH/ACJui/8AXjD/AOgCgDYopaSgAooooAKKWkoAKKWkoAKKKKACiijNABRWJ4i8X6T4Zizf3GZyMpbxfNI34dh7nAryXxJ8R9Y15mit5G0+zzxFA5Dt/vP1P0GB9aAPdaK8Q8NfE3VdFKQX5bUbMcYkb96g/wBlz1+jfmK9Z0HxPpfiS3Mum3IdlGXib5ZI/qv9envQBrUUCigAopaSgBaSlpKACisfU/EdtYbki/fzjjap+VT7n+lcpceI9UkuPOS6MZHRFHyfTHf8azlVjEzlVjE9EpK5nSPGdvdbYtQAt5um8fcP49vx/OulVgwBU5BGQR0NWmnsXGSlsOpKWkpjCiiigBaSlqG5uoLK3kuLqaOGGMZeSRgqqPcmgCakrzDxN8W1Xfb+HI9zdDdzJwP9xD1+rfka5/Q/ihremXH/ABMJP7StmOWSTCuv+6wH6HI+lAG/8avu6L9Z/wD2SvLK7r4j+K9N8UW2kPpskhaISmWOSMq0eduAex6HoTXC0AB6H6V9F+EP+RN0X/rxh/8AQBXzoeh+lfRfhD/kTdF/68Yf/QBQBs0lLSUAFFFYPiPxlpPhmMi8m33JGUtosNIfqP4R7nFAG/SV4Tr3xI1zWZ82076dbqcrFbOQ3/An6k/kPatvwz8Wbi22W3iFDcRDgXUS/vB/vL0b6jB9jQB65SVV07U7PVrNbrT7mO4gbo8bZGfQ+h9jVqgAooooAp6nq1lo1mbrUbqK3hH8TnqfQDqT7CvLfE3xZu7zdbaCjWkJ4NzIAZW/3R0X9T9K4bVNWvtavDdalcyXE5/ic8KPRR0A9hVOgB8ssk8ryzSPJI53O7sWZj6knk02ik/SgBakt7ia0uEuLaaSGaM5SSNirL9CKiooA9M8M/FuWLZbeIozInQXcK/MP99B1+q/lXp1hqNrqdol1Y3EVxA/3ZI2yP8A9ftXzLW14S1e90jxJp7WU7xrPcxRTJn5ZFZgpDDvweD1FAH0TRmisTxdqVxpWima0YLK8ix7iOgOSce/GPxobsJuyuX7/VLbT1/fyfP2ReWP4Vy2o6/dX2UU+TCf4FPJ+prKSf7SomyWL8kk5OfenVxzqylpscc60paLQjeqrVaaqzVmjIquMNn1rT0nX73SiFhk3w55iflfw9PwrNfuKjU4rRNrYtNrY9M0nxHZ6rtRW8qc/wDLJzyfoe9awryJWrtfBer3GopeQXEhkW3KbGblsHOQT36VvCpzOzOinV5tGdRRRXjfxQ8Tak/iG60aO4aGxgVA0cZx5pZQx3HqR82MdOK1NzrvE3xP03Rt9vp+NQvBwdjfukP+03f6D8xXk2u+JNT8R3PnanctIFOUiX5Y4/8AdX+vJ96y+lFAC0lLRQAlLSUUAB6H6V9F+EP+RN0X/rxh/wDQBXzoeh+lfRfhD/kTdF/68Yf/AEAUAbNUdV1mw0S0NzqV1Hbxdix5Y+gHUn2FO1a7aw0e9u41Vnt7eSVQ3QlVJGfyr5x1DVL3V7s3eo3MlzOw++56D0A6AewoA7jxN8V72/32+ho1lbngzvjzm+nZf1P0rz93aR2eRi7udzMxyWPqT3ptFAC0UUUAXdJ1m/0O8+06ZdSW8vRtpyrj0ZTwR9a9U8M/Fey1Apba2q2NyeBMP9S5+vVPx4968eooA+oVcOqsjBlYZBByCKK+edC8Za14ciaHTrr9w3/LGVd6KfVR2/CigDD7UtJ2paALmkaRea9qkWn6dGr3EgLZc7VRR1Zj6DI/MV694a+FmlaQFn1QLqd56yp+5Q/7KdPxOT9K4z4Rf8jtJ/14yf8Aocde2UAcB4l+FGn6kGuNFZNOuuvlgfuXP+6Pu/VfyryTUtNutI1CaxvovLuIW2uucjpkEHuCCDX0ya8I+J//ACPt9/uRf+gCgDk6vaH/AMjDpX/X9B/6MWqNXtD/AORi0r/r+g/9GLQB9LVzHj//AJF5P+vhP5GunrmvHgzoCf8AXwv8jUy2Jn8LOG0u42SGFj8rcr9a1a57lSCDgjkH0rbtpxcQLIOp4I9DXHNdTgY5qrNVlqrNUoRXeq5OGqw9Vn61oikOkk2pgdTXWfDj72pf9s//AGauLY5bmu0+HH3tS/7Z/wDs1a01ZmtL4kdxXgvxL/5KBqf/AGy/9FJXvVeC/Ev/AJKBqf8A2y/9FJW51nL0qI8kiRxRvJI7BURFyzE8AAdyTSVpeGf+Rt0X/r/h/wDQxQB2Xhn4SXV5sufEUjWsJ5FpC37xv99xwv0XJ9xXQ+IPhPpV/Bu0bGm3KLhQuWifH95eoPuPxzXfUlAHzdrXh/UvD10LfVLYxM2djg7kkA7q3fqPcelZ1eo/Gnpov/bf/wBp15dQAh6H6V9F+EP+RN0X/rxh/wDQBXzoeh+lfRfhD/kTdF/68Yf/AEAUATeJP+RX1b/rym/9ANfNy/dH0r6R8Sf8ivq3/XlN/wCgGvm5fuj6UAFavh/w1qXie8a30yJcR4Ms0hwkQPTPcng8D9Kyq9R+CnTXP9+D+T0Aaem+AfDHhe2VtbeO/upBtL3K5UZ67IxnA9+T71j+IfhQsqG88LXCyRN832WSTIP+4/8ARvzpL6Rpr+4kdy7GRvmJyeproPAkjf2jdRb22eUrbM8Z3dcVjGreVjGNW8rWPF5YpIJXimRo5Y2KOjDBVgcEGm1qeIY3n8YapBBG800l9MEijUszneegHJrsfDPwkubspc+I5GtoeotIW/eN/vuPu/RefcVsbHA2OnX2qyyRabZXF5JGAXWBN2we/YUV9I6dplnpFklpp1tFbW6fdjjXA+vufc0UAfMw7UUDoKKAO4+EX/I6y/8AXjJ/6HHXtdeL/B6CWXxbc3EaFoIrR43kA+VWZkIXPrwePavaKAA14R8T/wDkfb7/AHIv/QBXu9eGfFOCWHxzcSSRsqTxRtExHDgKAcH2IoA4+r2hf8jHpP8A1/Qf+jFqjV7Qv+Rj0n/r+g/9GLQB9K1znjkZ0FP+u6/yNdHXPeNw3/CPlwpKxyqzYHQcjP61M/hZFT4WecSnHFT6bceVP5bH5JOPoe1VCSxJPU0lc/LpY47aHQvVZqW1uPtEAY/eHDUjVjaxBWeq79asPVd+taRKRC3Wu0+HH3tS/wC2f/s1cW3Wu1+HCMU1GXafLJRQ3YkZyB9Mitobm1P4kdvXgvxL/wCSgan/ANsv/RSV71Xg3xMUr8QNR3AjcsTDPceWoz+YI/CtjqOWqxpt4dO1S0vVQSNazJMEJwGKnOM9qr0UAe/eGvHekeJQsUMht7wjm2mOG/4CejD6c+oFbGp6tY6NaNdajcx28I/ic9T6AdSfYV8085BBwQcgg4IqxfajeanMst9dTXMiqEVpXLED0GaAOl8f+MYPFl3arZ27x21pv2vIfmkLbcnHYfL9fpXI0UtACHofpX0X4Q/5E3Rf+vGH/wBAFfObsEQsxAAHJNfR3hON4vCGjJIpR1soQysMEHYODQBJ4k/5FfVv+vKb/wBANfNy/dH0r6U16KSfw9qUMKF5JLSVUVRksShAFfNSnKjH0oAWuq8C+Mh4Ru7kTWpntbsp5hQ4dNucEZ4PU8cfWuVooA93istA8YwfbdLugr5BkMOAw9nQ9D74/Oug03SbPSojHaRBM/ec8s31PevnCyvrrTbtLqxuJbe4T7skbYP09x7HivTPDPxbV9lt4ij8tugu4V+U/wC+nUfUZ+gpcqvclRSd7HoNrounWN9c3trZW8N1cndNMiAM59zV6ora6gvbZLi1mjmhkGUkjYMrD2IqWmUFFFFAHy/awTXlzHbWkMtxcyfciiXczfh6e54r0nw18Inl2XHiaXavUWUD/wDobj+S/nXpGl6DpmiiQaZYW1p5p3P5UYUt9av0AQWVha6baJa2NvHbwRjCxxqFUfgKsUlFAC1T1LSrLV7NrXUbaO5gbqki559R6H3FW6KAPI/E3wlubXfceHZGuYhybWZgJF/3W6N9Dz7muJ0iKS28VabDcRvFNHfwB45FKsp8xeoPIr6Sqjd6Jp1/e295d2VvNc2zboZXQFkPbBoAvUhUMCCMg9QaWigDlda8DWt5um04razHnZj9234fw/h+VcLf6bd6XP5N7C0Tn7pPKt9D0NeyYqG6tIL23aC6iSWJuquMiocEzOVJPY8ftJ/ImGT8rcNWi9bOteApIt02kOZF6+RI3I/3W7/Q/nXPxs6E286Mk8Z2mNlIb2461hUg1qcs4OO416jit5ry4EFrC80zdEQZP19h7mum0vwddX2JL4tawH+D/lo39F/n9K7LT9MtNLg8mzhWJe+OrH1J6mqhTb3LhSb3OU0fwCoKzay4kPUW8Z+Uf7zdT9BgfWuyihjt4lihRY41GFVFwAPYU+sXVvE9lphMak3FwP8Almh4H1Pb+dbaRR0JRgjarJ1/wxpfiW2EWpWwkZR+7lX5ZI/91uo+nT2rL0/xxbzybb2HyFPSRG3qPrxmunimjniWSJ1dGGQynINEZKWw4yUtjxHxN8M9V0PfPYBtRshyTGv71B/tIOv1X8hXGggjIORX1HXKeJ/h5pPiMvcBTZ35/wCXiEfeP+2vRv0PvVFHhFJW54i8Iat4Ycm/g3W2cLdRZMZ+v90+x/Wsi0tbnULxLSxt5bm5f7sUS7m+p9B7nAoAirS0Pw9qniS5MOk2plCnEkzHbFH/ALzevsMn2rv/AAz8IR8lz4mlDnqLKBztH++45b6DA9zXptraQWNslvaQxwQRjCRxqFVR7AUAcZ4X+F+maK0dzqJGo3y/MGkXEUZ/2U9fc5P0ruMUtJQAYrlvE/w90nxIWnKGzvj/AMvMIHzH/bXo38/euqpKAPnnxH4N1bww7New+ZaZ+W7hyYz/AL3dT9fzNYVfUTorqyuoZWGCCMgivP8AxN8J7HUN9zojrYXJ5MJGYXP06p+HHtQB49RVzWNIvvD9z5GrWzWr/wALN9xx6q3Q1seGvAGs+Jdkyx/YrFuftNwpyw/2E6t9TgfWgDO0PxLqXhu6Emm3TJ5jAGAgukp9Cnc/Tmvf9AvbvUtDtLvULJrG6lTdJbseUP8ATPXB5GazfDXgXR/DAElrCZrzGGup8NIfp2Uewx+NdFQAUUUUAFFFFABRRRQAUUUUAFFFFABRRRQAtJRRQAUwwxmUSGNDIBgMV5H40+igAqjqWr2mlR77qUBiPljXlm+g/r0rB8Q+KZ7e7ew01f3qna0gXc270Uf1qnpvhC71CT7Tq8rxK/JTdmV/qe38/pWbm72ijN1He0URXviHU9enNpp0Toh6pEfmI/2m7D8vxrS0jwVFFiXVGEz/APPFPuD692/lXR2VhbadAIbSFIox2UdfcnuasUKn1lqJU9by1MbU/DFhqSZEYgmAwskQx9MjoRXLyW2s+FJvMjYm3zyyjMbf7w7H/Oa9BpCAwIPII5Bpypp6rRjlTT1WjMHSfFtpqG2K4xbTnsx+Rvo39DW/XM6v4Nt7oNLYFbeU9UI/dt+Hb8PyrHttX1bw1MLe8id4R0RzkEf7Df0/lU87j8Qudx0kd5JGksbJIqujDDKwyCPQiqmnaPp2kI6abY21osh3OIYwm4++OtJJqAl06G4tCGNyUWIsOBu7kewzx7YrIt9UuDNcMskki24ZpA7AhlVyp42jacAkYJHGDWjkkW5I6WikpaZQtJRRQAtJRRQAUGiigBksEU6hZokkUHIDqCAfXmn4oooAKKKKACiiigAoo/Cj8KACil/Cj8KAEopfwpPwoAKKPwo/CgAopfwpPwoAWkpfwpPwoAKKPwo/CgDhbL/koTf9fEv/AKCa7quFsv8AkoTf9fEv/oJruvwrKn19TKls/U57xZrF3pKWv2NlXzC+7cu7pjH86sy62LHw7b6hcjfJLGhCLxvcjOPbvWT4++5Y/WT/ANlpmu2ss/g/S5owWWCNGcAdAUxn8KTk02JyaciomueItXZmsUk8sHH7mMBQfTc3+NEl/wCKdOUyXAuPLHUvGjgfXHSpNC8WQadp8VpPbOVjziSIg5yc8g/WtyLxfpE3DzPHntJGf6ZqY2avzERs1fm1Dw74hGsq8UyLHcxjcQv3WHqP8KqeOv8AkGW3/Xf/ANlNP0Tw/aW+o/2jY6h50XzKI0AwAe2evFM8df8AIMtv+u//ALKap39m+Yt39m+Yu6FbrdeFLGNywBiUhlOCpByCPcEVKmi5dPOkiMa5yI4tpfLbiGOTwW5IGM/Til8Mf8i3Yf8AXEVqfhWiV0jSKukIKWij8KooWkpfwpPwoAWkpfwpPwoAKKPwo/CgBaSl/Ck/CgBaSl/Ck/CgAoo/CigA/Gj8aKKAF/Gj8aSigBfxpPxoooAPxo/GiigBfxpPxoooAX8aT8aWkoAPxo/GiigDhbL/AJKE3/XxL/6Ca7r8a4Sy/wCShN/18S/+gmu7rKl19TKls/U5Hx99yx+sn/stWW8Qx6Jo2lo9vJN5tqpG1gOijjn61V8ffcsfrJ/7LV6TRV1nwvp8Yby5o4EaNyOAdoyD7Gk78zsJ35pWLH9haNqkMdz9jjAlUOGjJQnPP8NVZvBGmuD5MlxC3s+4fkaxYofE2igwwRzGIdBGFlX8O4/SntqXiu4HlrBdLnjItwn6kcUOUXuhc0esSppgl0fxbHbRy7h53kORwHU+o9v6VveOf+QZbf8AXf8A9lNR+HfC89reC/1Nh5q5KRBtxDHqzHuak8df8gy2/wCu/wD7KaVmqbuKzVN3NPwx/wAi3Yc/8sRWp+NZfhj/AJFqw/64itSto7I2j8KD8aPxooplC/jSfjS0lAC/jSfjS0lAB+NH40UUAL+NJ+NLSUAL+NJ+NLSUAH40UUUAFFFFABRRRQAUUUUAFFFFABRRRQAUUtJQAUUUUAcr4h8Ky3d019p7DzW5eInGSO6nsaoWHiy+0yU2uqQvLs4If5ZF/wAf8813NVrzT7XUECXdvFMo6b1zj6Vm4a3izNw1vFnBeItc/t24t47aB1CZWNTyzs2Ow+ld9YW5tdPt4GOTFEqEj2GKoSWFloVu91YaUJZV7RKN+PqecfSsvTvG8cszR6hCIFLHbJHkhfZh1/H9KS91+89WTH3X7z1Z1dI7KilmIVQMkk4ArF1PxVYaemI3F1MRkJE2R+LdB/OuYMus+LZsIP8ARwf92FP/AIo/n+FVKolotWVKolotWbWr+NILYNHp4WZxwZW+4Pp6/wAqyLXQ9V8Rzi5v5Xiib/lpIPmI/wBlew/zzXRaR4Us9MKzS/6TcjnzHHCn/ZXt/Ot2p5HL4hcjl8RFbW8dpbRW8K7Y4lCKPQCpaKK1NQooooAKKWkoAKKWkoAKKKKACilpKACilpKACiiigAooooAKKKKACiiigAooooAKKKKAFpKKKACiiigBaSiigAxXPeKdHs5dOuL4xbbmJdwdON319aKKma91kzXus5/wppNrql/MLxDIkKKwTOFYk9/Wu/SNI0VI1CqowFUYAooqKK90zor3R1FFFamwtJRRQAUUUUALSUUUALSUUUAFFFFAC0lFFAC0lFFABRRRQB//2Q==;" vertex="1" parent="1">
          <mxGeometry x="709.8299999999999" y="410" width="65.33" height="40" as="geometry" />
        </mxCell>
        <mxCell id="R2kOFksjPvD2Qqe6QgFd-47" value="" style="shape=image;verticalLabelPosition=bottom;labelBackgroundColor=default;verticalAlign=top;aspect=fixed;imageAspect=0;image=data:image/jpeg,/9j/4AAQSkZJRgABAQEAYABgAAD/2wBDAAoHBwkHBgoJCAkLCwoMDxkQDw4ODx4WFxIZJCAmJSMgIyIoLTkwKCo2KyIjMkQyNjs9QEBAJjBGS0U+Sjk/QD3/2wBDAQsLCw8NDx0QEB09KSMpPT09PT09PT09PT09PT09PT09PT09PT09PT09PT09PT09PT09PT09PT09PT09PT09PT3/wAARCAC0AUkDASIAAhEBAxEB/8QAHwAAAQUBAQEBAQEAAAAAAAAAAAECAwQFBgcICQoL/8QAtRAAAgEDAwIEAwUFBAQAAAF9AQIDAAQRBRIhMUEGE1FhByJxFDKBkaEII0KxwRVS0fAkM2JyggkKFhcYGRolJicoKSo0NTY3ODk6Q0RFRkdISUpTVFVWV1hZWmNkZWZnaGlqc3R1dnd4eXqDhIWGh4iJipKTlJWWl5iZmqKjpKWmp6ipqrKztLW2t7i5usLDxMXGx8jJytLT1NXW19jZ2uHi4+Tl5ufo6erx8vP09fb3+Pn6/8QAHwEAAwEBAQEBAQEBAQAAAAAAAAECAwQFBgcICQoL/8QAtREAAgECBAQDBAcFBAQAAQJ3AAECAxEEBSExBhJBUQdhcRMiMoEIFEKRobHBCSMzUvAVYnLRChYkNOEl8RcYGRomJygpKjU2Nzg5OkNERUZHSElKU1RVVldYWVpjZGVmZ2hpanN0dXZ3eHl6goOEhYaHiImKkpOUlZaXmJmaoqOkpaanqKmqsrO0tba3uLm6wsPExcbHyMnK0tPU1dbX2Nna4uPk5ebn6Onq8vP09fb3+Pn6/9oADAMBAAIRAxEAPwD2SkyM4zz6UkjFI2YDJAJAqoUjBVmfZ8u7zO7H6/0oAu0UyFmaJS4wxHIp9ABRRRQAUUUUAFFFFABRRRQAUUUUAFFFFABRRRQAUUUUAFFFFABRRRQAUUUUAFFFFABRRRQAUUUUAFFFFABRRRQAUUUUAFFFFABRRRQAVF9nj3A4OAc7c8Z+lS0UAFFFFABRRRQAUUUUAFFFFABRRRQAUUUUAFFFFABRRRQAUUUUAFFFFABRRRQAUUUUAFFFFABRRRQAUUUUAFFFFABRRRQAUUUUAFFFFABRRRQAUUUUAFFFFABRRRQAUUUUAFFFFABRRRQAUUUUAFFFFABRRRQAUUUUAFFFFABRRRQAUUUUAFFFFABRRRQAUUUUAFFFFABRRRQAUUUUAFFFFABRRRQAUUUUAFFFFABRRRQAUUUUAFFFFABRRRQAUUUUAFFFFABRRRQAUUUUAFFFFABRRRQAUUUUAFFFV5r2KB9jls4zwKipUhTXNN2Q0m9ixRVP+07f1f8A75o/tO39X/75rD69hv8An4vvK5Jdi5RVP+07f1f/AL5o/tO39X/75o+vYb/n4vvDkl2LlFU/7Tt/V/8Avmj+07fIGW/75oWNw7+2vvFyS7FyikFLXUSFFFFABRRRQAUUUUAFFFFABRRRQAUUUUAFFFVNU1GLSdOmvbhZGjiAysa5Y5IAAHrkigC3RWJ/wkco/wCYDrP/AH5T/wCLo/4SSX/oA6z/AN+U/wDi6ANuisyx1l726ELaVqVsCpPmTxqEGO2QxOfwrToAKKKKACiiigAooooAKKKKACiiigAooooAKKKKACsbU/8Aj7P+6K2ax9U/4+z/ALoryM7/AN1+aNsP8ZTooor407hKWkpaACgfeH1FFA+8PqKqO6B7HRjtS0gpa/Ro7HlhRRRTAKKKKACiiigAooooAKKKKACiiigArD8Z/wDIrXf+9F/6MWtysLxq2zwneMQzbTGcKMk4kXgD1oA3aKxD4lcE/wDEj1n/AMB1/wDiqT/hJX/6Aes/+A6//FUAa9xcRWsTTXEscUScs8jBVHbkmpazLS+XWYriCfTLuCIptdbuIKsitkEYyc+/1qno8smkXo0K7kZ0Cl7CdzzLEOsbHu6fquD1DYAN4nFQxX1rOsLQ3EMizqWhKuD5gHUr6jnqKxdUZtf1CTRLcsLOIA6lKpxlSMiAH1Yct6KcdWBFTxQ01vrWg2+mgRXU6z21uwUbYcqhL46fKqsQOmcCgDav/EWlaXOILy+hjnxnyQd0mPXaMnH4VJp+tafqof7BdwzlPvqrfMn1XqPxo0rSLTR7Yw2ke3cd0kjHdJK3dnbqzHuTUGtaMNRjE9sVg1KAbrW6A+ZG/un1Q9GU8Ee+CADSmnit4jLPIkcYxlnYADJwOT71V1DWdP0kJ/aF3DAz/cR2+Z/ovU/gKwPEGrrffDiXVPJJzHHK0Ged6yLlP++gRWvouirpyPc3G2bUrj57q5IyzN/dB7IvQKOAB65NAF+3u4bq0S5hfMMi71Ygrx689PxrLbxhoKuV/tS3YA4LoSyD/gYG39ar3UI8Ra9NYXGW0vTwnnxdridhuCt6oqlSR0JYZ6c9AiLGgRFCoBgKBgAfSgBlvcw3UCTW8scsTjKyRsGVh7EcGi5uYLO3ee6mjhhQZeSVgqqPcngVh3dqnh/VINQslEVpdzrDewoMJuc4SUDs24qpx1Dc9BS3MMWoeM44L0CSO0s1uLaFhlTIzsrSY7lQFAPbefWgCUeMtBLAf2lCqk/fYMqf99EY/HNbEUsc0ayROro4DKynIYeoPencEYPINYmmac+k69eQ2kDR6ZcRLOqrgRxTbiHCjtuG1sdMgnuaANK/1Oy0qETX91DbRk4VpXC7j6D1PsKow+LdDnlWNdSgR24US5j3H0G4DNVtGhiu/EGsX10qve29z9mj3cmCIIpULnpu3FiR1z7DG5cW8V1A8NxFHNE4w0cihlYehB60ASVj6p/x9n/dFL4etbjT4LuxlEn2e2uClo0hyTCVVlGc5IUkqM9lFJqn/H2f90V5Gd/7r80bUPjKdFFFfGncZGqeLNF0XUEsdQvfJunVWWPynbIbpyBitO7uoLC2luLyaOCCIZeSRsKv+fSvIPif/wAlGs/+uNv/ADra+NctwLTSokLC2aSVnA6Fxtxn8CfzNe3HLKc3RjFv31d/8A5/au0n2Oki+I3hae4EK6qFYnAeSF1Q/wDAiOPxrpVIbaVIIOCCDkEeteY6L4F8LeKPDlodLu3jv1RGuXWTdID/ABq0ZPA64I9uteiaVpsGj6db2Fp5nkQAKnmOWbGe5rDGUMNSaVJvmvqn+ZcJSktTrhS0g7UtfaLY4AooopgFFFFABRRRQAUUUUAFFFFABRRRQAVh+M/+RWu/96L/ANGLW5WF41ZU8J3juwVFMbMxOAAJFyTQBu4FGBWT/wAJZoGT/wATzTP/AAKT/Gj/AISzQP8AoOab/wCBSf40Aa3Fc/4okFxHbabajdqk8nmWrj/l2K9Zz/srnGP4i23oxqW58Y6JDAzwala3co4jt7aZZJZWPAVVB5JPH6nipND0ye386+1Iq+p3eDMVOVjUfdiT/ZXJ+pLHvQBB4TaODT5NPaLyr60kIu1Lbi8jZbzcnlg/LA/UdQQE1UoPGPh/djJS6C/Xav8ATNT61p07Sw6npiKdRtQQEJ2i4j6tEx9+qns2OxOcXVbga7qPh+80ph5ypcTweblcSKEBR+46sp9M+1AHZUVkWfibTrnMc9wlldLxJa3TCOVD9CeR/tDIPY1X1LxCtyHsPD80d3qMo2h4jvjtgeskjDgY6herHAAxkgAyJ9r/AA+vWTBie/laPHQobw4rtq5rX7CLS/AxsoM+VbiCNSepAkTk+56muloA5PS7XVZtQ1s2epQWqjUX3I9p5hzsQg7t47Y7Vo/2fr//AEHLT/wXf/bKivZH8P61NqTRySadeqoumjUsbeRRgSEDkqVwCR02g9CSL6+IdIeHzl1WwMX98XKY/PNAGZqOjare2Zgvtdtlt2kjLFbEITh1IAJc4JIA/GtPUtJstZ2CfcJ7ZiY5oZCksLEc4ZeRkYyOh4yKzHuB4pv7RLMM2k2swuJrkqQtw6cokefvKGwxbp8oAJ5ws90PDuv3d1eBxp2oCN2uApKwSquwh8fdVlC4bpkEHHFAE/8AZ2uWefsesR3SDpHf24J/77j2/mQam03WJLi9k0/ULX7Jfxp5oRX3xypnG5GwMgHAIIBGRxggmb+39I8nzTqth5eM7/tKbfzzWbYXQ17xHDqFmjf2dYwSRJcEEC4kkKZ2Z6ooT73Qk8ZxQBcvNCs9SuBfQTzW14V2C6tJdrMoPRuquAc8MDiovs/iGyGYb6z1FM52XMXkuR6b0yv/AI5VTTdQg8NPLpWqMtpCJ5Hs7iT5YpY3Yvt39A6kkYOM4BGc8adz4i0e2gMs2qWSIBnJnU5+gzk/QUAP0nVk1SKUGGS3ubd/KuLeXG6J8A9RwQQQQw4IP4VX1T/j7P8AuiotAWW6v9S1Z4ZIIbxo0t0kTa7RopAdlPK7ixwDzgDODwJNU/4/D/uivIzv/dfmjbD/ABlOlPGM4Genv/nNFeZ+KvDni2z8VtrmhXdxebs7MOC8KnrHtPBX0x+IzXzGEw8cRJxlNR9TrnJxV0rmP8T/APko1p/1xt/516vrmk2Os2ElnqkatbyyBV3NtIfnG0/3uvSvNNF8F+I9f8Ux6x4pV4kSRZHMpUPJt6KFHQcD04966D4heDNQ8Rywahpd0/2m3XH2Z5dqnHIZD0Vvyz616+I9k50aPtbOK3XcwhzWlK25yfiP4a3/AIbil1bRr5pobYeY3OyaJR344OO5GPpXb/DjxPc+JNDc37B7u0lEbyDgyKRlSffgg/SuMvLb4k6xZHSryK7e3bAfeY1Dj/afuPxrvfA3hb/hFNG+zzSLLdTyCWZk+6DjAUew9fc1eOmvqyjXkpTvpbsEE+b3VZHow6UtIO1LX0cdjlCiiimAUUUUAFFFFABRRRQAUUUUAFFFFABSEAjB5HvS0UAMESf3F/IUvlp/cX8hTqKAG+WgIIVQR3xTqKKAA1halhfF+hjgZiuv5JW7TTGjOrlAXXO1iORnrigCK4sra7ULdW8MyjoJEDY/OnwwRW8YjgiSJB0VFCgfgKkooAQjIxSiiigAqo2lWDzea1latJnO8wrnP1xVuigAoNFFAFT+ybDzfN+w2vmZzv8AJXP54q2BiiigBrosilHVWVhghhkGq8Ol2NtKJILO2ik/vJEqn8wKtUUAJiq09jFcSb33bsY4NWqKzq0oVY8s1dDTa1RR/sqD1f8A76pf7Kg9X/OrtFc39nYX/n2ivaT7lH+yoP8Ab/76o/sqD1f86vUUf2dhf+faD2k+5R/sm3/2/wDvql/sqAHq/wD31V2imsvwy2gg9pLuIBiloorsICiiigAooooAKKKKACiiigAooooAKKKKACiiigAooooAKKKKACiiigAooooAKKKKACiiigAooooAKKKKACiiigAooooAKKKKACiiigAooooAKKKKACiiigAooooAKKKKACiiigAooooAKKKKACiiigAooooAKKKKACiiigAooooAKKKKACiiigAooooAKKKKACiiigAooooAKKKKACiiigAooooAKKKKACiiigAooooAKKKKACiiigAooooAKKKKACiiigAooooAKKKKACiiigAooooAKKKKACiiigAooooAKKKKACiiigAooooAKKKKACiiigAooooAKKKKACiiigAooooAKKKKACiiigAooooAKKKKACiiigAooooAKKKKACiiigAooooAKKKKACiiigAooooAKKKKACiiigAooooAKKKKACiiigAooooAKKKKACiiigAooooAKKKKAP/Z;imageBorder=none;" vertex="1" parent="1">
          <mxGeometry x="709.83" y="510" width="147.09" height="80.47" as="geometry" />
        </mxCell>
        <mxCell id="R2kOFksjPvD2Qqe6QgFd-48" value="hosted on" style="text;html=1;align=center;verticalAlign=middle;resizable=0;points=[];autosize=1;strokeColor=none;fillColor=none;" vertex="1" parent="1">
          <mxGeometry x="400" y="878" width="80" height="30" as="geometry" />
        </mxCell>
        <mxCell id="R2kOFksjPvD2Qqe6QgFd-49" value="" style="shape=image;verticalLabelPosition=bottom;labelBackgroundColor=default;verticalAlign=top;aspect=fixed;imageAspect=0;image=data:image/jpeg,/9j/4AAQSkZJRgABAQEAYABgAAD/2wBDAAoHBwkHBgoJCAkLCwoMDxkQDw4ODx4WFxIZJCAmJSMgIyIoLTkwKCo2KyIjMkQyNjs9QEBAJjBGS0U+Sjk/QD3/2wBDAQsLCw8NDx0QEB09KSMpPT09PT09PT09PT09PT09PT09PT09PT09PT09PT09PT09PT09PT09PT09PT09PT09PT3/wAARCAC0AUADASIAAhEBAxEB/8QAHwAAAQUBAQEBAQEAAAAAAAAAAAECAwQFBgcICQoL/8QAtRAAAgEDAwIEAwUFBAQAAAF9AQIDAAQRBRIhMUEGE1FhByJxFDKBkaEII0KxwRVS0fAkM2JyggkKFhcYGRolJicoKSo0NTY3ODk6Q0RFRkdISUpTVFVWV1hZWmNkZWZnaGlqc3R1dnd4eXqDhIWGh4iJipKTlJWWl5iZmqKjpKWmp6ipqrKztLW2t7i5usLDxMXGx8jJytLT1NXW19jZ2uHi4+Tl5ufo6erx8vP09fb3+Pn6/8QAHwEAAwEBAQEBAQEBAQAAAAAAAAECAwQFBgcICQoL/8QAtREAAgECBAQDBAcFBAQAAQJ3AAECAxEEBSExBhJBUQdhcRMiMoEIFEKRobHBCSMzUvAVYnLRChYkNOEl8RcYGRomJygpKjU2Nzg5OkNERUZHSElKU1RVVldYWVpjZGVmZ2hpanN0dXZ3eHl6goOEhYaHiImKkpOUlZaXmJmaoqOkpaanqKmqsrO0tba3uLm6wsPExcbHyMnK0tPU1dbX2Nna4uPk5ebn6Onq8vP09fb3+Pn6/9oADAMBAAIRAxEAPwD2WkpaSgAooooAKKKKACiiigAooooAKKKKACiiigAoopjyLGheRlVFGWZjgAe5oAcetRzTxW8ZknlSJB1Z2Cgfia5DWvHixs0OkKHPQ3Djj/gI7/U1xt3eXF/MZbueSZ/VznH09PwrlqYqMdI6nr4XJq1Zc1T3V+J6PdeM9Htjhbh52/6YoT+vSqD/ABDswfksrlh6kqP61wNHFczxc2evDJMNH4rv5nfR/EOxZv3lncqPUbT/AFrRtfGWj3JANyYWPaZCv69K8wooWLqLcJ5JhpL3br5ntEUsc0YkidXQ9GUgg/jUleOWOoXWmy+ZZTvC3faeD9R0NdnonjqK4ZYNUVYZDwJl+4fqP4f5fSumnioz0eh5GKyetRXND3l+J2FFNDBlBUggjII70uea6jyBaKKKACiiigAooooAKKKKACiiigAooooAKWkpaACkoooAKKKKACiiigAooooAKKKKACiiigAoopDQAy4nitreSaeQRxIpZmboBXmniPxNNrUpii3RWSn5Y+7+7f4dqt+M9eN/dmwtm/0aBvnIP+scf0H865evOxNdt8kdj6jKcuUIqtVWr28v+CFFFFcZ7oUUKC7hEVmc9FUEk/gK04PDesXAzHps4B/v4T+ZqlFy2RE60KfxyS9WZlFac/hvWbcZk06cj1TD/wAjWawKuVdSrjqrDBH4UOLjughWp1Pgkn6MSjrRUckmPlHWunB4Opi6ip0/m+xx5lmNHL6LrVX6Lq2dD4c8WyaPKttdEy2JOOTlovce3qPyr0uGVJo1kjcOjjcrKcgj1FeHV2HgXxEba4Gl3T/uJT+4J/gb+79D/P619XicqjRop0um/mfmlPN5YnESlWSXM9LdPI9FopBS14x6oUUUUAFFFFABRRRQAUUUUAFFFFABS0lFABRRRQAUUUUAFFFFABRRRQAUUUUAFFFFABWP4o1U6To0ksbYnkPlxexPU/gMmtc1xHjCG41TWIraP5ILaPl26bm5OB34ArnxVeNCk5SdjrwNKNWulPZav5HFdO/TrQCD0Oa6e30S0gALIZn9X/w6VeSNIxhEVR6AYr5eeaQT91XPq5Y+K+FXOLPAy3H14rb8O+F59dImlZoLEH/WD70nsvt71tEBhhgCPerNtf3NqAsMpCDgIRkD8KqhmtLm/exdvI5sRjasoWpKz7nQabpFlpMQjsrdIx3bqzfU9TV6smz1yOUhLhRGx6MPun/CtXcD06GvpsPiKNePNSeh8vWjUUr1NxcVR1LR7LVYtl5bo/o44ZfoetXhSEZrdpNWZEZSg+aLszy7xH4XudDBmjbzrMnAk/iTPZh/X+Vc5XuM0Ec8LxSoHjdSrKRwQe1eReI9GOh6u9sMmFhvhY91Pb6jpXuZLOlCLoqNnv6nj57KvXkq1SV0tPT/AIcyqUEhgVJVgcgjsexpKWvf6Hz57B4b1b+2dEguWI80DZKB2cdfz6/jWrXnXw71DyNRubF2AWdRImT/ABDg4+o/lXomeK+PxtH2NaUVsfWYOt7aipPcWiiiuU6gooooAKKKKACiiigAooooAKKKKAFpKKKACiiigAooooAKKKKACiiigAooqrf3Ys7VpP4j8qj1NRUqRpwc5bIcYuTsinq2qfZyYLc/vf4m/uf/AF658knJJyT3NKzM5JYksTkk96Svg8djZ4upzS26I9ujRVKNluFFFFcRuFFFFABWlpmqNbMIpiTCehP8H/1qza0dK0w3bCWYfuB0B/j/APrV35d7f269hv8AhbzMMRycj5zpFOVBByD3paRQAoAGAO1LX3iPDCuT+INgJ9Ejuwvz20g5/wBluD+uK6ysfxWofwvqIPTySfyINdGFm4V4SXdGGKgp0ZJ9jyGloNJX2Z8eKCVIIJDA5BBwQa9F8H+LTqO3T9Rf/SgP3cp/5aj0P+1/OvOafG7RSLJG5R0IZWHUEdCK5cXhYYiHK9+jOrC4mWHnzLbqj3MUVk+G9ZGt6NFcnAmHySqOzjr+fX8a1q+RnBwk4y3R9XCanFSjswoooqSgooooAKKKKACiiigApaSigAooooAKKKKACiiigAooooAKKKKACue16bfdJCOka5P1NdDXJai5fUrgn++R+XFeLntVww3KvtP/AIJ2YKN6l+xWooor409cltraS7mEUQGT1J6KPU1v2+iW0KjzF81u5bp+VJoduIrESfxSncT7dq06+vyzLKUaSq1FeT19DycTiJOTjF6Ioy6RZyLjyQh9U4rDv9OksXB+9Gxwrf411OKjnt47mIxSjKHqK6cbldGvB8iSl0f+ZnRxM6b1d0c9pemG9cSSgiAH/vs+n0rpVQKoCgADgAUiRrGiqgAVRgAdqdW2BwMMJT5Y7vdkVqzqyu9goooruMQqK5tory2kguIxJFINrKehFS0UXtqgaucnqfw/025jJsd1pL2wSyH6g/0rz6/0+40y8ktbuPZLGee4I7EHuDXtmK5H4haak2kx3yqPNt3Clh3RuMfnivXy/H1FUVOo7pnk4/AwdN1IKzR5xRS0lfRnzx13w71AwaxNZsfkuY9wH+0v/wBYn8q9HFeOeHJjB4k06Qcf6Qq/g3y/1r2MV8zm9NRrqS6o+kyqo5UeXsxaKKK8s9MKKKKACiiigAooooAKKKKAFpKKKACiiigAooooAKKKKACiiigArkL4Y1C4B/56N/OuvrmNah8vUXbHEgDD+R/lXhZ/ByoRl2Z24GVqjXkUKKKK+QPWOo0iRX0yEA/dG0/XNXq5jStQ+xylZP8AVOefY+tdIkiyIHQ5U9CDX3WV4uFehFJ6pWaPExNJwm+zH0Ug6Utekc4UUUUAFFFFABRRRQAZrnfHdwsXhadGPMzoij33A/yBrdnuIrWFpp5FjiQZZ3OAK8u8W+Iv7dvlWDIs4MiMHgue7Efy9vrXdl+HlVrJ20WrOHH140qLV9WYHrSUUV9YfLF7RE8zXtOUdTcx/wDoQP8ASvaK8o8EWZu/FFu2Mrbq0zflgfq1erCvnM4mnWUeyPocog1Scu7FoooryD1gooooAKKKKACiiigApaSigBaSiigAooooAKKKKACiiigAooooAKytctDLbCVBlouuPTvWrSFc5B5HpWGJoRr0pUpdS6c3CSkjiutFXtU09rOUug/csflPp7VjahqMenQB2AaRv9XH/e9/pXwc8LVhW9i1qexLE040nVk7JCalqaadACcNM33E/qfauYj1a/huHmhvJ45HOWKORn8OlQXFxLdTvLM+526n/Paoq+nwOCjhY/3nuz4PMs1qYypeLtFbL9TU/wCEn1n/AKCdz/31R/wk+s/9BO5/76rLorv5n3PO9vV/mf3mp/wk+s/9BO5/76o/4SfWRz/adz/31WXSGnGTutQ9vV/mf3mv/wAJXrf/AEEpv0/wo/4SvW/+glN+n+FZFFffrDUf5F9yH9Yq/wAz+81/+Er1v/oJTfp/hR/wlet/9BKf9P8ACsiin9Wo/wAi+5B9Yq/zP7yzeajeagwa8uZpyOnmOSB9B0qtRRWsYxirRVkZyk5O7YUfWit7wt4bfXr0PMpFhC371v75H8A/rUVqsaUHOeyLpUpVZqETq/h/pLWekvfSrtlvCCoPURj7v58n8RXW0iKEUKoAUDAAHApa+OrVXWqOpLqfW0aSpU1BdAooorI1CiiigAooooAKKKKAClpKKAFpKKKACiiigAooooAKKKKACiiigAooooAjkjWVGR1DK3UHvXn3ibwffpcyXloXvIm5K/xoPQDuPp/9evRaQ1nKlCT5mte5jiKEa8OST0PC2GHZWBDLwQRgj6iivZr/AETTtU/4/bSKVuzFcMPxHNYk3w90iQkxvdQg9llyP1BrJ0X0PEqZRVT9xpnmlFejf8K50z/n7vf++l/+Jo/4Vxpn/P3e/wDfS/8AxNL2MjL+y8R2R5zSGvR/+FcaZ/z93v8A30v/AMTS/wDCuNM/5+r3/vpf/iaapSTQf2XiOy+883or0X/hW+n/APP7ef8Ajn/xNL/wrfT/APn9vP8Axz/4mvsVmuHtu/uD+y8R2X3nnNFei/8ACt9P/wCf28/8c/8AiaP+Fbaf/wA/t5/45/8AE0f2rhu7+4P7LxHZfeedUDlgo5Y8ADkn6CvSovh1pKNmSa7l9jIFH6AVt6foOm6VzZWcMTf38ZY/8CPNZVM4pJe4m/wNaeU1W/faRwmg+BrvUHWbUle0tuvlniR//iR+v0r0a1tYbK2jt7aJYoYxhUUYAqUcUteLicVUxDvN6dj2MPhaeHVo/eAooormOkKKKKACiiigAooooAKKKKAClpKKACiiigAooooAKKKKACiiigAooooAKKKKACiiigAooooAKKKKACiiigAooooAKKKKACiiigAooooAKKKKACiiigAooooAKKKKACiiigAooooAWkoooAKKKKACiiigAooooAp6rqtvo2nyXl2xEadAPvMeygdya4iHVfF3itmm0sJY2O4hXJCg/RiCW+oAFS/EDfqGvaPpO8rFKylsH++4XP4AH867qCCO2gjghRUijUKiqOAB0FMRwhuvGfh2aNrmManA7BdifPkngDOAV+pGPWu9jZmQF12sQCVznB9M1zR+IWhAkedPx/0xardn4v0q+s7y6ilkENmoaUvGV65xj1PFAzcorg4/GXiDVN8+jaIr2aEjc4LE499wyfYZrc8L+KovEKyRPCbe8h/1kROcjpkd+vBB6UWA6CiuKvfG17eanJZeGtOF6Y875WGV9MjkAD3J5qfRfGc8urLpeu2X2K7c4QjIVj2GDnr2IJFIDrqK5fxN4vOkXken6dbfa9Qkx8mCQuegwOST1xxxzWRc+N9c0mErq2jRxTOMwtkqp9QeTzj3/CiwGr4m16+03xJpFnayIsFy6iUFASQXA69uDXVV5z4hu2v9e8KXTqEadYZCo6Al1OK2/EHjCay1RdK0az+235+8OSF74wMZ46nIApgdXRXH6d4vv4dWi0/xHYLZyTkCKVfuk9geSOTxkHr1rrLiZbe3kmblY1Ln6AZpAY2v+LbLQZFgZZLm8fGy3hGW56Z9P1PtWU3jbVLdfOvfDF7DbDlpMklR6kY/nik8AWIvIbnxBdgSXt5M4Vz/AAKDggemTn8ABXZkUAYr+KLNvDc+s2ebiGIcpnawbIBU+h5rR029/tHTba8CeWLiJZAhOduRnGaxvFVpb2PgjUIbWGOGIJkJGuACWBPH1qKHXrbw94H0u6uQXZraNY4l+9I20cD/ABoA6eiuNfxJ4ntoPtt34fjWyHzMqv8AvVX1Izx+X5Voan4sig8JHW7CMXCcARu23Bzgg4zyKAOioqK1lM9rDKRgyIrYHbIzWJofiddS0q/v7yNLaKzmZGIYt8qgHP156UAdBWTb6+s/ii60UQMGt4RKZSww2ccY/wCBVhW/ijxDqqNd6RoUb2AJ2maTa8gHpz/Qj61B4a1BdU+IeoXaxSQl7MB45BhkZSqsp+hFAHdUUUUAFFFFABRRRQAUtJRQAUUtJQAUUUUAFFFFABRRRQBxPxE0+cJZazag77NwHIGdoyGVvoCOfrXRaFr9pr1mstu6iXH72En5oz349PQ1puodCrAMrDBBGQRXHaj8NrG4uDNYXMtiSc7FXeg+nII+mcUwLutWnhnQ7R7i60zT/MwTHF5KbpG9AMeveuIt9Nul8A6hqG3al1cxsABgeWpIDfTc3HsK6ix+GllFcebqN5Negf8ALMrsVv8Ae5JI9s118lrFLatbPEhgZNhjI+UrjGMelAjM8Ky20/hjTzZ7diQqjKv8LAfMD75zXIRn7d8SNRfSjuX7NKGZOhbYFz/33/KtGf4bRiWT7Bq1zawSfei27uPTORn8c10GgeG7Lw7bNHaBmkkIMsznLOR0+gHYCgZzvwwltxpV3bjAulm3yKfvFdoCn6DBFVviDJHNrejW1rg3yyDIX7wBddo/QmtbVvAVtf37Xtjdy2Fw5LOYxlST1IGQQT7GptA8EWeiXZvZZpLy952yyDATPUgep9Tk0AYmjslr8UtRF8QJZQ4gZ/faQB7lf5GtX4izW6eGGimI82SVfJHfIOSfyz+dReJrPQtc1uHTri6e21ULhJEXjHUKSeDnOR361znirw3B4f0tp7vUpr2/lKpCH42oOWOMkn0/GgRNqWBqHgv08m3/APQlqG2bVofG2q2ultbxX1zK6+bcfwJuLfL9QQcYPArqk8JLfw6Dc3NxLDNp8EQMSqMMVwcHPPUYqz4h8H2mvzLcea9rdqMCaMZ3DtuHfHY8Gi4GVD4R063vreTxLqj319O37tJpCisRzgDOTj3OPauxnhWe3khf7silD9CMVyumfD62ttQS81K8l1GSMgosgwoI6EjJJx7nHtXXUDOM8B3v2BLnw/ekR3lpMxRTxvU88evr9CDXZHgVja94VsdeKyy74LpPuXERww9j6j/IxWQ/gS8uVEN74l1Ce27xdMj0yWI/SkBa8S6pZ6n4N1c2NzHOIh5blDnadw/znvWDeFYh4InuiBaJGm4t0DYXBP6H8K6s+FbCPw7Po9mptoZhhpF+Zycj5iT1PHepJvDlpdeH4NIut0sMMaork4cFRgMPQ0AaUjxxRO8xVY0Us5boAOpNeVorv8NdXeNW+zvfDyh7ZUf/AFq6c+AriWMWtx4hv5LAH/UdOOwzkj9K6JtEsTop0oQBbLy/LEanGB9fXPOfWmBJp8qf2Ray718vyEbdnjG0c15ra+ZN8N9dMBODe7iR/d+Q/wCFdLb+ApYlW2m129l00Nk2g+QOM52kg9PXAFbGieG7fRbC6s1ka4huZWkdZFGMEAbcDtgUAWtEeCbQ7J7XHkmBNgHYBQMfhXM6PJDL8UdYNvt2i2CsV7sCgb9alHgOa2Z49N16+s7NzkwJzj6HP6kGtDRvCFpoWqveWcsu1oBD5TYIHQls9SSRk/WgDfooopAFFFFABRRRQAUUUtABRRRQAUUUUAFFFFABRRRQAUUUUAFFFFABRRRQAUUUUAcv450SzvdHmv5oz9pto/3bqccZ6H1HNct4A0a01fUJrm+VpntSrRqzfLnsSO+McZoopiPUcUUUUhhRRRQAUUUUAFFFFABRRRQAUUUUAFFFFABRRRQAUUUUAFFFFABRRRQB/9k=;" vertex="1" parent="1">
          <mxGeometry x="490" y="863" width="106.67" height="60" as="geometry" />
        </mxCell>
        <mxCell id="R2kOFksjPvD2Qqe6QgFd-50" value="" style="shape=image;verticalLabelPosition=bottom;labelBackgroundColor=default;verticalAlign=top;aspect=fixed;imageAspect=0;image=data:image/jpeg,/9j/4AAQSkZJRgABAQEAYABgAAD/2wBDAAoHBwkHBgoJCAkLCwoMDxkQDw4ODx4WFxIZJCAmJSMgIyIoLTkwKCo2KyIjMkQyNjs9QEBAJjBGS0U+Sjk/QD3/2wBDAQsLCw8NDx0QEB09KSMpPT09PT09PT09PT09PT09PT09PT09PT09PT09PT09PT09PT09PT09PT09PT09PT09PT3/wAARCAC0ALQDASIAAhEBAxEB/8QAHwAAAQUBAQEBAQEAAAAAAAAAAAECAwQFBgcICQoL/8QAtRAAAgEDAwIEAwUFBAQAAAF9AQIDAAQRBRIhMUEGE1FhByJxFDKBkaEII0KxwRVS0fAkM2JyggkKFhcYGRolJicoKSo0NTY3ODk6Q0RFRkdISUpTVFVWV1hZWmNkZWZnaGlqc3R1dnd4eXqDhIWGh4iJipKTlJWWl5iZmqKjpKWmp6ipqrKztLW2t7i5usLDxMXGx8jJytLT1NXW19jZ2uHi4+Tl5ufo6erx8vP09fb3+Pn6/8QAHwEAAwEBAQEBAQEBAQAAAAAAAAECAwQFBgcICQoL/8QAtREAAgECBAQDBAcFBAQAAQJ3AAECAxEEBSExBhJBUQdhcRMiMoEIFEKRobHBCSMzUvAVYnLRChYkNOEl8RcYGRomJygpKjU2Nzg5OkNERUZHSElKU1RVVldYWVpjZGVmZ2hpanN0dXZ3eHl6goOEhYaHiImKkpOUlZaXmJmaoqOkpaanqKmqsrO0tba3uLm6wsPExcbHyMnK0tPU1dbX2Nna4uPk5ebn6Onq8vP09fb3+Pn6/9oADAMBAAIRAxEAPwD2SiiloAK5/wAVeK7bwxaIzoZ7mbIihBxnHUk9gP8APt0FeS/ExdvjC0e8Ba0MMeQP7gc7x/P861owU52ZhiKjpwvEVPi1qhl5s7Bk/urvB/Pd/Suj0j4n6XesI9QiksJD/Ex3x/mOR+IrpZNG0m/skiextJbYqNi+Uu0L2x6fhXG658K4JA02hzmF+vkTMWQ/Ruo/HNaqVGejVjFxxENYvmO/imjniWSGRJI3GVdDkEexp9eIabrGteB9UMEkckYU5ltJT8jj1Hb6MP16V3cPxT0R0BkivY2xyDGD/I1E8PJfDqi6eLhJe9oztaSufsfHfh+/IVNRjic/wzgx/qeP1rejlSaNZI3V0bkMpyD+NYuLjujojOMvhdx1FLRSKCkpaKAEopaKAEpaKKAEopaKAEpaKKAEooooAKWkooAWuZ8ceGT4i0j/AEcD7bbZeDP8Xqn44H4gV01JTjJxd0TOCnFxZ518OfFTKV0DUSVkjytsz8HjrGfcc4/LsK9Frzb4keGWgca/p4MbKy/aAnBVs/LIPfOAfwPrXWeD/EH/AAkWgx3L4FzGfLnUf3x3+hGD+NbVYqS9pH5nPQk4v2U+m3oW9a8Padr8CxajbiTYco4JVk+jDn8K56X4WaE5JSS+jHoswIH5g12dczf+O9P0vXTpmoQXVsQR+/dR5ZB6Nwc7fft3qISqbRZpVjS3mkc5qXwlwhbStRJP/PO6Xr/wJen5Vy2PEPgi8BIns8n/AHoZf/ZT/P6V7kCCAQQQajuLaG7geC4iSWJxhkdQyke4NaRxMtpaoyng4PWGjOR8M/EWy1cpbaiFsrw8Ak/upD7E9D7H8zXZV5p4o+GRRXutABZerWjtk/8AACf5H8D2rN8LePrzQ5FsdWEs9mp2fMD5sGO3PJA/unkdvSnKlGa5qf3ExrzpvkrfeevUVBaXcF9ax3NrKksMi7kdDkEVNXMdotFJRQAtFJS0AFFJRQAtFJS0AJRRRQAUtJRQAtJS0lAEV1bR3lpLbTDdFMhRx6gjBry34cXcmj+LbrSLg7fODRkH/npGT/Td+ler15R48t5PD3ja11iBSElZZ+O7JgOPxGPzrooe8nDucmJ91xqdn+B6vXLePvDT+INFDWcKvfwMDFkgbgeGXJ7d/wAK6aCaO4gjmhYNHIodGHcEZFPrGMnF3R0zipx5XsyrpVo1hpNpaO/mPBCkZf8AvEKBn9KtUUVL1GlZWA1yvjDwRb+IYmuLbZBqKjiTGBL/ALL/AOPUe/SuqoqoycXdCnCM1yyPFPD3iPUPBerSWt1FJ5AfFzat1U/3l7Zx+DD8CPZLG9t9Rs4rq0lWWCVdyOvcf4+1c7418Hx+I7Pz7YKmowr+7Y8CQf3D/Q9j9TXB+C/FUvhnU2tL4stjK+2ZHBzA/Tdjt6Ef4V0yiq0eeO63OKEpYafJL4Xsey0UisHUMpBUjII6GlrkO8WikpaAEpaSigApaSloASiiigBaKSloAKKKSgBa5rx3oR1zw7IIU3XVsfOhA6sQOV/EfriulpKqMnFpomcVOLi+pwnwx8RLeaZ/ZE7jz7UZhyfvxeg/3Tx9MV3deSePdFHhnW4NU0u48hrh2kVF4MTjGSP9k56e+Ohr0/SLuS/0ayu5kCSTwJIyjoCVBP8AOta0VpOOzMMPNq9OW6LtFFJWB0i0UUlAC15t8TPCw2nXLNACMLdKO/YP/Q/gfWvSajmiSeF4pVDxyKVZT0YHgirpzcJcyM6tJVYOLOB+Gfic3MH9i3j5lhXdbMT95B1X6r29vpXoIrwrWbC58H+KStuxDW8gmtnP8SdRn9VP417XpeoRarpltewf6ueMSAeme34dK1xEEmpx2ZhhKjadOW6LdFFFc51hRSUtABRSUtACUUUUAFLSUUALSUtJQAtJRRQB5T44jbxF8QrXSYicKI4Gx2zl3P4Kf0r1SONYo1SNQqKAqgdgOleYeCsap8StSvm58sTSL7bnCj/x3Neo1vX0tDsjmw2vNPuxaSiisDpFpKKKAFpKWkoA4L4qaObjTLfU4ly9q2yQj+43Q/g2P++qj+FWs+bZXOkyt88DedED3Rj8w/Buf+BV3V7aRX9nNa3C7oZkMbj2NeI2c9x4M8YBps7rOYxyjH34z1P4qQw/Cuul+8puHVbHBW/dVlU6PRnu1FMjkSaJZI2DI4DKw6EHoafXId4lLSUUAFLSUtACUUUUAFLSUUALRRSUALSd6KKAPLPhQf8Aifalu+95A6/75zXqea8r8GH+yviXe2L8CTz4Vz3w24fopr0vUbxdP025vHGVt4mlI9cDOK6MQrz9TlwjtS16XMPU/GdtY+KrHRkCuZX2XEhPERYfIB7k4z7EetdLXznLNNc3ElxI7tM7GV5O+4nO78zXu3hjWl17QLW948xl2zKP4ZBw3+P0Ip16Ps0micNifayafyNeikormOwWiikoAK82+KuiYNvrEK9f3E+PzU/zH5V6TVPV9Ni1fSrmxn+5OhXP909j+BwfwrSlPkkpGVen7SDicp8Mdd+36M2mzNmexwEz1aI/d/I5H5V3FeE6NfXHhDxWr3KsrW8hhuUHOUPDY9ezD6Cvb7W7gvbdZ7WaOaFxlXQ5BrTEQ5Zcy2ZjhKvPDle6J6KSiuc6xaKSloASiiigApaSloAKKKSgBaSlpKAPLPH1vNoHjK01y2U7ZSsnH99OGX8Vx+ZrqvGOpw3Pw9uru1kDRXMcflsO4ZlH8s1reIdDg8Q6RLY3B27vmjkAyY3HRv8APYmvINQ0zxHpMMmjTQXj2rSBwkUZkjcjoVIBx9OPcV107VOW71X5HBV5qLlZXUvwZq/DbR4dXuNYS5XMTWggPtvbOR7jYDVjwNqMvhnxVc6FqDbUnk8vnoJR90j2Ycf98103w58PXOiaPNLfRmK5u5A5jPVEAwoPvyTj3qDx/wCD31iIanpqn7fAvzInBlUdMf7Q7evT0pyqRlOUXsxQoyhTjNLVHbUtc54K8RjxDoqtMf8ATbfEdwvTJ7Nj3x+eR2roq5JRcXZndGSklJC0UUUigpKKKAOS8X+BIvEcwvLacW16F2sWXKSAdM45B9/SuEfw34q8KTm5tYp1C9ZbN96ke69SPqK9ppK2hXlFcu6OaphYTfMtGea6F8VGDLDrkAIBwbiAcj/eT/D8q9Es723v7ZLi0mSaFxlXQ5BrL1zwnpevxMLu3VZ8fLcRgLIv49/ocivPLix1/wCHF8bi2k86wduXAPlSezr/AAt7/ke1Vywq/DoyOepR+PVdz12lrD8NeKrHxLbFrc+XcIMy27n5k9/ce/8AKtysGnF2Z1RkpK6EooopFBS0lLQAUlLSUALSUtJQAtJS0lAC0lLSUAc3qPh6Wz1ka7oaqt2eLq2ztS6Tv7K/cHoT17mt2zu4723WaEnaeCGGGUjqCOxB4Iqc1WNkFvftMLmNnx5qgZWTjAJHqPX8DnjFN33IUeV6FqiiipLEooooAWiiqupyXUWm3MlgiSXSRs0SPnDMBwOKBN2LNUrzUNNiV4b67s0VhtZJpVAI9CCa8T1DxPrWuOI7q/lZXIURKwjTnpkDA/E1t2Hwt1m5IN5Ja2a9wT5j/kOP1rqeHUfjlY4li5VHanG5Y8R6RpOly/2v4W1q1huITvNvHcqT7+Xz+angj8q7PwZ4rTxLpp83al9BxNGOh9GHsf0Nc/b/AAjtVI+06tcuO4jiVP55rptD8G6R4fm8+ygc3G0oZpZCzYPUeg6dhSqSpuNr3ZVGFWM+ayS7G7RRRXMdgUtIKM0ALSUtJQAtJRRQAtJS0lAC0lLSUALSUZo5oAWikooAKKM0c0ALSGijNAHmHjzwNLHcS6rpMJkhky1xAgyUPdlHcHuO306VvCvxHm0yKOz1ZWubVRhJl5kQeh/vD9frXrFch4k+HdhrLvc2bCyvG5YquY5D/tL6+4/WumFaMo8lQ4qlCUJe0ovXsdNp+o2mqWi3NjcJPC3RkPf0PofY1arxYWfiPwBf/axERDnDuhLwSj0b09s4PpXqXhzxFaeJNOFzakq6/LLCx+aNvQ+o9D3qKlLl1i7o1o1+f3ZKzNaiiisToPA7m71LxNrLCWaSaeUuyIWOBtUttUduBxXY/DDxHM9zLo93O0iMnmW285K4+8oPpjkD2Ncv4K/5HjTP+uzf+gNVrxHaS+D/ABuLi0XbGsguoAOAVJ5X6feX6V6dRKX7vy0PGpSlC1a/XU9prlfiD4gk0PQhHaymO7u2McbL1VR95h79B+NdJZ3UV9ZQ3Vu26KZBIh9QRkV454uv5vFPjL7LZncokFpb+nXBb6Zyc+gFcVCHNPXZHoYmpyw93d7GGVvLWK2vxNLG1wXMciuQ52nBOevXP5V7j4YvJtQ8M6bdXLb5pbdGdv7xxya84+I+nw6W+jWNsMRQWpRffBHP1PWuk86W3+D0UsEjxSLYx7XRipHI6EVvW/eRi+7OfDr2U5rsjt6K86+Fl/d3t1qn2u6nnCJFt82Vn28vnGTXotctSHJLlO2lUVSCkgqO4mFvbSzEZEaFyPXAzXFfFG8ubLTbBrW5mgLTsCYpCmfl74q14CafU/A5FxPJJJK8yGSRix5JHU0TpyVLnQo1U6vs2ipBNqfiG/Ma3Rj+UuRuKqo9gOvWr/8Awil//wBBIf8Aj3+NULM3vhzUGkntHZSpQ4ztI9Q34Vqf8Jknexk/77/+tXzND6u4v603z363Pcq+1T/cJcvyIv8AhFL/AP6CQ/8AHv8AGtG9uZtB8OwqGEs6gRBz0zzzz7CorXxdZzMFmSSDP8R+ZR9SKPF5DaPEQcgzKQR/utXZ+4p0Z1MM9bd/8znftZ1IwrLS/YxrC31XXXkcXjqqHBZ3OMnsAKvf8ItqP/QT/wDQ/wDGpvBf/Hndf9dR/wCgiukpYPB061GNSpdt+bHiMROnUcY2SXkjir631XQfLl+2uyM2AVYkZ9CprUutRe/8HyXX3JCAG2nHIcA4pfGP/IKh/wCu4/8AQTVKD/kQpf8AeP8A6MFZNOjVq0ot8vK3+BatUpwqSWvMkS+DZHka93uzY2Y3MT/erqK5XwV1vf8AgH/s1dXXdljbwsb+f5s5sZpWl/XQayq6lWAKkYIPQ1yN74Tm0XUv7Y8LKkc3SawJ2xTr3Cn+E+nbPpznsKSvRjJx2OKUFLcqaXqEeq6dFdxI6CQcpIuGRgcMrDsQQQfpRVoKFztGMnJx3oqSlex4b4K/5HjTP+uzf+gNXoPxK0X+0fD322Jcz2JL8dTGfvD8OD+BqHRfhquj65baiNUaUwOX8swBd2QR13e9dtJGksbRyKGRwVZT0IPUV1VaydRSj0OOhh2qThPqeUaB4yOmeBL+yMmLuA7LXnnbJnkf7p3H8ql+Fei/aNSn1aVcx2w8mHP/AD0I+Y/gvH/AqvXXwjR7pmtdVMVuTwjwb2Uemdwz+Vdvomj22g6VDYWgPlxA5ZvvOxOSx9yadSrBRfJuyaNGo5p1No7Hnnxa/wCQtp3/AFwb/wBCrZmBPwZTAz/oKH9RWh4s8FDxTd285v2tvJjKbREHzk5z1FbWk6Umm6HbaY7C4SGEQsWXAcYxyPf0qHUXJFLdGioy9pNvZo8/+EkiLf6pGzqHeOMqpPLYLZx9Mj869PriNQ+FelXMxksri5s8nOxcOi/TPI/Oqf8AwqWP/oM3P/fpf8aKjp1Jc3Nb5CpKrSjyct/mSfFr/kFad/13b/0GtH4Y/wDImxf9d5f/AEKuG8Y+EoPC8Vtt1F7maZj+7dQCqgdcD34rtfh5AbjwD5JJUTPOobHYsRmqqrlw/u6k0m5Yl8ytodl+NJxXMf8ACFL/AM/zf9+v/r0f8IUv/P8AN/36H+NeN7fFf8+f/Jkev7Kj/wA/PwZS8WtCdUTyim4R/vNvrk9ffFWtXB/4Q7Tsg8eXn/vk1btPB9pDIGuZXuAP4CAqn6gda27i1hurZoJkDRMMFa5oYKrP2s5pRc1sbSxEI8kY68pzvg2WMQ3MRceYXDBc8kYxVjVNdvdKuQstnG0TH5JAxww/oagl8FxF8w3ciL6OgbH48Uz/AIQv1vzj2i/+vUxjjadFUoRs11uvyZUnh51HUlLfpZjfEeqW2o6PbmCQFml3FD95cA5yPxFJbqT4ClwD95j+HmVm6tokukSqzDzrckYfpn2OOldZo95ZX+nCO2jVERdjQEfdHp7j3rOgp1sRNVvdk42t+pVRxp0o+z1V7mJ4Nljjlu42dQ7hCoJxnGc/zrrc1z1z4OtJXLW80sIP8PDAfTPP61B/whS/8/zf9+v/AK9dOHWKw1NUvZ81ut0jKr7GtNz57X8jqMj2qhqGoNbOI4kUtgFmc4C5OB6dcHuOlYp8EqVI+3NyMf6of41t3Wn+cyPG6h1UKwddyuB0yMjpk/ma6VUxE4vmhy/NMwcaUWrSv8rFePX7ZI1+2MIXYBlHJDKehH+e1FPTQ7ZlBvEW4l4G5hjAAwAOeg/Gil/tXS3zuP8AcdbmnRRRXac4tJRRQAVh+NSR4P1PBI/c9vqKKKuHxIir8D9Dw0yP/wA9H/76NHmP/wA9H/76NFFexY+duzc8H6HbeIdeW0vXmEWwufLbBbHbOD+le12dnBp9pFa2kSxQRKFRF6AUUV5+LfvJHrYBLkbJ6KKK5DvFpKKKACiiigAooooAKKKKACiiigAooooA/9k=;" vertex="1" parent="1">
          <mxGeometry x="435" y="700" width="110" height="110" as="geometry" />
        </mxCell>
        <mxCell id="R2kOFksjPvD2Qqe6QgFd-55" value="" style="shape=image;verticalLabelPosition=bottom;labelBackgroundColor=default;verticalAlign=top;aspect=fixed;imageAspect=0;image=data:image/jpeg,/9j/4AAQSkZJRgABAQEAYABgAAD/2wBDAAoHBwkHBgoJCAkLCwoMDxkQDw4ODx4WFxIZJCAmJSMgIyIoLTkwKCo2KyIjMkQyNjs9QEBAJjBGS0U+Sjk/QD3/2wBDAQsLCw8NDx0QEB09KSMpPT09PT09PT09PT09PT09PT09PT09PT09PT09PT09PT09PT09PT09PT09PT09PT09PT3/wAARCAC0AXcDASIAAhEBAxEB/8QAHwAAAQUBAQEBAQEAAAAAAAAAAAECAwQFBgcICQoL/8QAtRAAAgEDAwIEAwUFBAQAAAF9AQIDAAQRBRIhMUEGE1FhByJxFDKBkaEII0KxwRVS0fAkM2JyggkKFhcYGRolJicoKSo0NTY3ODk6Q0RFRkdISUpTVFVWV1hZWmNkZWZnaGlqc3R1dnd4eXqDhIWGh4iJipKTlJWWl5iZmqKjpKWmp6ipqrKztLW2t7i5usLDxMXGx8jJytLT1NXW19jZ2uHi4+Tl5ufo6erx8vP09fb3+Pn6/8QAHwEAAwEBAQEBAQEBAQAAAAAAAAECAwQFBgcICQoL/8QAtREAAgECBAQDBAcFBAQAAQJ3AAECAxEEBSExBhJBUQdhcRMiMoEIFEKRobHBCSMzUvAVYnLRChYkNOEl8RcYGRomJygpKjU2Nzg5OkNERUZHSElKU1RVVldYWVpjZGVmZ2hpanN0dXZ3eHl6goOEhYaHiImKkpOUlZaXmJmaoqOkpaanqKmqsrO0tba3uLm6wsPExcbHyMnK0tPU1dbX2Nna4uPk5ebn6Onq8vP09fb3+Pn6/9oADAMBAAIRAxEAPwDiDSZNB60V6Z5wZNGTSUUALk0ZNFJQAuTRk0lLQAZNJk0UUDDJoyaKKADJoyaKQ0ALk0ZNJRSACTRzRRQAUc0UUAGTSEn1oNJQMKM0UlAC5oJPrSUhpALk+tBJ9aSigAyaMmiigAyaMmikoGGTRk0UE8UAJRRRQAUUhpc0hiUUUUAJRRRQMKKKSgBaKSikAtFJRQBbPWig9aK0MgooooAKKKKACkoooGFFFFABRRRQAGkzSmkpAFFFFABRRRQAUUUUDEPSkoNFABRRRSAKQ0GkoAKKKKACiiigAopKWgYlB5oooAKQ0tIelAxDRRRSAKDRSUAFFFFAxM0UUUgCiiigA70UlFAFw9aKD1orQyCiiigApKWkoAKKKKBhRRRQAUUUdqAEooopAFFFFABRRRQMKM+9FIetACUpPFJRQAUUUh6UgA0lFFABRRRQAUlLSUDQUUUUAFJRmigApCaXtSUhhRRRQAdqSjNFABRRSd6BhRRRSAKCaKSgAFFAooAuHrRQetFaGQUUUUAFJS0lABRRRQMKQkAZJx9aUnAJ9K7a1tdN8K6Hb3moWoub255AIBI4zgZ6ADHPc0JXM51OXpqcSMHoQfpSV26XfhnxCRDPbixuDwrcJz7MOPzrB17w1daGxdv31qThZQOnoGHY/wA6GhRqpvllozGpCyjqQDXVaP4O32327XJfslqvzeWW2tj/AGj2+g5q4fE3h/Tv3Gn6V5sQ4L7FXP5gk/jTsJ1tbRVziqK6jxVpNmtlbatpihLe4wGVRgAkZBx275HqK5ek1Y0hNTV0FFFFIsKb3pTSd6ACiiigApD0pabSAKKKKACiiigApKKKBhQaKTvQAUtJS0ANzRR3pT0pDEooooASiipPKbyBKRhWYquf4sdcfSgZHSUUUgCiiigA7UlL2pKAAUUCigC4etFB60VoZBRRRQAhooooGFFFFACjBIz0712HxBJ36ao+4I3wPfIrmLHSr3VCVsbZ5R0LjhR/wI8V6BrOgf21Y2QurkWz26/vH4OcgZGSQOoppaHNVnGM4ts80JAHJ4969F8OyXGneHRPrdwqQMV8lJRkop6A/wA8dqi03who0UguVunuxA25iZB5YI55x6Uuqan4Z1YoL69klEedoXeFB7nAHWmk1qRVqKr7sUzN8eQ35uIppJfMsDxEE+6je/qT61yGa9Ks77QLyzGj29z5sUilFik3Zx1wCfTtWZdeCNKEvlR6m9vNjOyV1JI9cHFDjfUdKsoLkkrEUp3fC6Iv2cbf++ziuNr0LWdDux4TttMsFE7QspfkLuxnpn3NcDcW81pMYrmJ4pB/C64NKSaNMPJNO3dkdFFFSdAhpKOpoNACUUtJQAtNpc0lIAooooAKDRSUDQUUUUAFFdFqHg+W08J2OtwXPnieJZZ4duDArcKfcZ4z61zlJNPYbTW4UZpHbahPoK6y78KaHpiWg1LxBdQz3NslxsSx3hQw6ZB+tJySGk2cnRXR/wBkeFf+hmvf/Bd/9eohpOgy6tZ2lvrtw0E+5XuJLTYI2/gBBPQnqe1LmQ+VmDSd6t6np1zpGoz2N7Hsnhbaw7exHseoqG1tZ7+9htLOIy3M7hI0Hcn+nqad9LisWNK03+0p5TI5hsrZPNupwP8AVpngD/aY8KPU+1RX939suC6xiKJRsiiHSNB0X/6/ckmuluI9DhjbQZNVltba1YPNcwQeb9tuOjN7KvRR9TTtK8K+Hda1KGwsfEl41xNnYGsNo4BJ5z6A1HOt2Xy9EcfRXSnSPCikg+Jr3I4/5B3/ANesPUYrSG9kj0+4e5tlxslePy2bgZyvbmqUkyWrFaiiimAEcUlL2pKBAKKBRQBcPWig9aK0MhKKKKBhRRRQAV0vhrw9b3Vq+q6uwSwiztU8B8dSfbPGO5rmq7awiHiDwOthayBbm2IyhOM4Jxn2OfzpoyrNqNl8yrqXjiQL9n0aFLaBOFcqNxHsOi/zq3ok8niXwxf6fczGS6VsrI5yeTlT+YIrjLi3ltZ2huI2jlXqrDBrqfAVsVlvtQkcpBGnl5JwD3JP0H86aeplUhGFO8dyXxTdxaFolvodkdu6MNMR12/4seT+FGk+BY5bRJtTmlWSQbhFFgbB7nuaoeNrCS11sXhJeO5w6kngMMZX9B+Fd7Y3cWo2cdzbHfG4B4/hPofemkm9TKc5QpJw69TgfEPhl9BEd5ZzO8G8Dc3DRt1HTrW8tvB4z0uwupNq3FvKBNj0B+Zfx6j61L44vorbQ2tHYefcMu1O4UHJJ9PSq/gOzay0x72d9q3ciiNCcAgcA/UnP4ClZXsDnJ0lN7oo+KvEl5Z+IPJ0+4aJbdAjqMFWbqcjoeoH4VNY+JbDxAi2Gu20auxwko4Gf/ZT+lc74ksXsNfuo3JYM/mKx7huc1DpOjXWt3IhtUJTOJJsfKg+vc+gpXdzf2cPZp9upP4h0OTQr8RFvMhkG6KQ9SO4PuKyCa6/x5dwmSz0+J/MktlPmN1IJAABPrgc/WuQpM1pScoJsKKDRSNBKWikNIAOKvtHGPD0cm1N5uCC2OSOeKZaaiLSLYbS3l5J3SLk1pNqI/saO4+yW+DMVEZX5R15A9al3GkYHHairl5fi7jVBbQQ4bOY1wTVOmIKSiimMKKKXtQB297rDaJZ+E5zH51tJpXlXUB6TRE/Mp/mPeub8QaOuk3ym2fzrC5Tz7SYfxxnpn/aHQj2rS8V/wDIB8Kf9gwfzqLQZk1jT28O3jhWdjJp0rf8s5v7hPZX6fXFZR0XMaS1djm5v9U30NdT8QJFW+0gFgD/AGTb8E+xrmLqJ4DNFMjJJGWV1YcqRkEV6B4q8T6ho0mk29oLTyzplu5822SQ5IPcjPanJ+8rCjazueeean99fzFOBDDIIIPoa6T/AIT3WfTT/wDwBi/wrI1XVbnWLsXN35XmBQg8qNUGB7Dimr9RadDfTHjHw95Rwdd0qElWJ+a7tx1Huy/qKZEh8H6ALhxt1vVYsRKR81nbnq3s7/oKZ4Rtl05ZPFF8zx2tgxW1RW2m6uMHCD/ZHf8A+sam8Wxrr9rH4qsiWSfbFfQ7sm3lAAH/AAE9qjrboadL9Tkq6b4b/wDI/wCmfWX/ANFNXM103w3/AOR/0v6y/wDopquXwsiO5zcv+uf/AHj/ADpn4U+X/XP/ALx/nTcEnAGT14FMBKKcY3RVZ43VXGVLKQGHqM9aZQICaKKKAAUUUUAXD1pKU9aStDIKKKKBhRRRQAVYsr+4065W4tJTHIvcdD7EdxVeigTV9GdlH4p0rV4Fh16zVWH/AC1UZA9/UfhW2uiwf8Iy+naXP5UNyNyyP8xYHk+hORgfSvMSMgj14rs/HjGC20q3QkKqMcD2AA/lVJ6HLUpWlGMXa5tS6DcXfhv+ztSdHmiH7qdQeo+6Tn8jXKQeGvElkxNqjRE9THcAZ/Ws2y1zULCaOSK7mIQg7GclT7EV3FzdXevaTFeeH71recHa8JYAe+fcevcUaMTU6T1tZ/gc5beDdWvNQQ6kuyFmBlkMoZiPQfXpXU61ol9qLWcVrPFaWdqQ4G0klh09sADH51T13WpPD2lJZi7a51OVPmlY8oD1b29h+NcJPf3dz/r7qaTP9+QmjRBGNSq1LZI9G16y0RzDqOsnciDy12kkP3xgde9c9qPjYpb/AGXQ7YWcIGBJgbsf7IHA/U1NcH7T8MYHbkwsoB+jFa42lJlUaSafM72YMSzFmJJJySTkk02nGm1J1gaKCaKAEPSkpT0pKQBVg3jtYJabV2LIZM45yar0UAFFFGaAEooooGFFFBoA6bxZ/wAgTwqO/wDZg/8AQq5nnjBIPYg4IpDk4yTx0oNSlZWG3fU6DWf+Kj0RtajA+32yiPUUXq46JPj3+63vj1rf8VeE9b1uXSbnTdPe4gGmW6F1kQDcAcjkg964vStTm0m+S6hCuACkkT/dmjIwyN7Eflwe1S6vaR2twstlK8lhcr5luxPO3PKN/tKeD+feos09C09DT/4V54q/6A0v/f2P/wCKpIPAWtHVILXUrZrGB1aWad3UiKJcb24J554+tc7vf++3/fRpNzHqxP1NVaXcV4m14m1qPU7iG009TDpNivk2cJ9O7n/aY8mm+GtcXRb2RbqPztOu18m8g67kPcf7Q6g1jUUcqtYLu9zW8S6E2hakI0kE1nOvnWk4P+tiPQ/X1rQ+G/8AyP2mHPA83r/1yauZJJHJ4FAOOnH0os7WC/UWX/WyH/aP8639EGm6Y9zeTarE8gtJYlgWF8yGSLA2k8ZDEg5wOM5Nc9Rmhq6sCdnc63xXq9nqWkQiPUFuLnzlPlweYsQQRhdxR+EfIxhDjHNcjQTmkoSsgbuLRSUtMQUUlFAF09aSlPWkrQyCiiigYUUUUAFFFFAhDnHHWu18Xwvqui6bqNqjSIE+YIMkAgf1BFcXWxo3ii+0WIww7JYCc+XIDwfYjkUIzqRbalHdEel+GtT1WRRFbtDEessoIX8B1NdNLe6X4KtTaWY+1XzkGbJ/9CI6eyisTUPGuq3yGNJEtkI5EIIY/wDAjzXPnJOT1NO9tiXTlU+PbsdzeaZp/jCA32mSiK+A/eRuep/2h/7MK5O80bUbGXy57KfdnA2oWDfQjrVa3uJbWZZreRopF6MhwRXRW/j3VYYwkqW85H8TKQfxwRmjRjUZw+HVF/WIm0j4f2ljccXEzDK56HJY/lkCuKq7qmr3es3QnvHBYDaqqMKg9AKpfjSZdOLitdxpNL2pKKRoFFFIaQAelJRRQAUUUUAFIaWkoGFFFFABQaKSgAoNFLSAbVu1uR9nks52/cSHejH/AJZSdAw9j0Ptj0qqe1JQMVlKkq3UcU2lpKACiiikAUlFFAwzQaKTvQAUUUUAFJmlpKACiiigC6etJSnrSVoZBRRRQMKKKKACiikpAFFFFABRRRQAUUUUDCkpaTqaAAUlLnFJQAUhpaTNIBKKKKACiiigANJRRQMKKKKADNJRS0AJR0ozQTSGITRRRQAlFFFAwoopD1pAFFFFABSd6XPakoAKKKKAENFFFABRRRQBdNJSmkrQzCiiigAooooEFJQaKQwooooAKKKKACiiigYhoFFFACGiiikAU2lPWkoAKKKKACiiigYlFLSUAFFLSUAJRS0lIBKKcaSgYlJS0UAJRRRQAUlKaSkMKX1pKKAEooooAKSlooASiiigAooooAuk0lB60VoZhRRRQAUUUlABRRRSAKKKKACiiigYUhpaQ0AIKU0YpOtABRSUGkAh60UUUAFFFFABSUtJQMKKKKACkpaSgBaaaWkNIYuaSiigApKWkoGFFFFACGiiikMKQ0tJQIKKSigBaSiigAooooAKKKKBl91AJ9jTKKK06GPUKKKKYBRRRSAKKKKACkoopDCloopjCkPWiigANNoopMAooopAGB6UYHpRRQAmKKKKAE9aKKKYwooooAQ0lFFABRRRSGJRRRQAUUUUhoKSiigQUUUUhh2pKKKACiiigBtFFFABRRRQMBRRRUspbH//2Q==;" vertex="1" parent="1">
          <mxGeometry x="296.25" y="355" width="93.75" height="45" as="geometry" />
        </mxCell>
      </root>
    </mxGraphModel>
  </diagram>
</mxfile>
